<?xml version="1.0" encoding="UTF-8"?>
<svg xmlns="http://www.w3.org/2000/svg" xmlns:xlink="http://www.w3.org/1999/xlink" width="416.722pt" height="210.821pt" viewBox="0 0 416.722 210.821">
<defs>
<g>
<g id="glyph-0-0">
<path d="M 3.6875 0.359375 C 3.671875 0.46875 3.671875 0.59375 3.671875 0.703125 C 3.671875 1.125 3.75 1.734375 4.453125 1.734375 C 5.515625 1.734375 5.96875 0.140625 5.96875 0 C 5.96875 -0.046875 5.921875 -0.109375 5.859375 -0.109375 C 5.78125 -0.109375 5.765625 -0.046875 5.734375 0.015625 C 5.53125 0.625 5.015625 0.84375 4.6875 0.84375 C 4.265625 0.84375 4.140625 0.59375 4.046875 -0.046875 C 6 -0.890625 6.78125 -2.65625 6.78125 -3.875 C 6.78125 -5.296875 5.84375 -6.3125 4.4375 -6.3125 C 2.421875 -6.3125 0.453125 -4.25 0.453125 -2.21875 C 0.453125 -0.75 1.453125 0.203125 2.8125 0.203125 C 3.171875 0.203125 3.546875 0.109375 3.703125 0.078125 Z M 2.28125 -0.15625 C 1.859375 -0.328125 1.265625 -0.78125 1.265625 -1.9375 C 1.265625 -2.421875 1.421875 -3.859375 2.375 -5.015625 C 2.84375 -5.5625 3.59375 -6.0625 4.375 -6.0625 C 5.25 -6.0625 5.96875 -5.40625 5.96875 -4.15625 C 5.96875 -3.265625 5.53125 -1.234375 4 -0.375 C 3.90625 -0.859375 3.75 -1.328125 3.171875 -1.328125 C 2.671875 -1.328125 2.234375 -0.875 2.234375 -0.421875 C 2.234375 -0.34375 2.25 -0.21875 2.28125 -0.15625 Z M 3.71875 -0.234375 C 3.59375 -0.171875 3.234375 -0.046875 2.875 -0.046875 C 2.75 -0.046875 2.453125 -0.046875 2.453125 -0.421875 C 2.453125 -0.75 2.78125 -1.109375 3.171875 -1.109375 C 3.703125 -1.109375 3.71875 -0.625 3.71875 -0.234375 Z M 3.71875 -0.234375 "/>
</g>
<g id="glyph-0-1">
<path d="M 2.765625 -2.8125 L 4.265625 -2.8125 C 5.71875 -2.8125 6.890625 -3.8125 6.890625 -4.75 C 6.890625 -5.46875 6.265625 -6.109375 5.078125 -6.109375 L 2.125 -6.109375 C 1.96875 -6.109375 1.859375 -6.109375 1.859375 -5.953125 C 1.859375 -5.84375 1.9375 -5.84375 2.125 -5.84375 C 2.171875 -5.84375 2.328125 -5.84375 2.46875 -5.8125 C 2.625 -5.796875 2.6875 -5.78125 2.6875 -5.6875 C 2.6875 -5.640625 2.671875 -5.609375 2.65625 -5.5 L 1.4375 -0.6875 C 1.359375 -0.359375 1.34375 -0.28125 0.671875 -0.28125 C 0.5 -0.28125 0.40625 -0.28125 0.40625 -0.109375 C 0.40625 -0.015625 0.46875 0 0.53125 0 C 0.703125 0 0.9375 -0.015625 1.09375 -0.015625 C 1.375 -0.03125 1.390625 -0.03125 1.671875 -0.03125 C 1.953125 -0.03125 1.984375 -0.03125 2.25 -0.015625 C 2.421875 -0.015625 2.65625 0 2.828125 0 C 2.890625 0 3.015625 0 3.015625 -0.15625 C 3.015625 -0.28125 2.921875 -0.28125 2.734375 -0.28125 C 2.6875 -0.28125 2.53125 -0.28125 2.390625 -0.296875 C 2.1875 -0.328125 2.1875 -0.359375 2.1875 -0.4375 C 2.1875 -0.46875 2.1875 -0.484375 2.234375 -0.640625 Z M 3.40625 -5.484375 C 3.484375 -5.8125 3.515625 -5.84375 3.890625 -5.84375 L 4.796875 -5.84375 C 5.484375 -5.84375 6.046875 -5.625 6.046875 -4.96875 C 6.046875 -4.78125 5.9375 -3.9375 5.484375 -3.515625 C 5.28125 -3.328125 4.875 -3.0625 4.09375 -3.0625 L 2.796875 -3.0625 Z M 3.40625 -5.484375 "/>
</g>
<g id="glyph-1-0">
<path d="M 2.140625 -3.796875 C 2.140625 -3.96875 2.125 -3.96875 1.9375 -3.96875 C 1.546875 -3.59375 0.9375 -3.59375 0.71875 -3.59375 L 0.71875 -3.359375 C 0.875 -3.359375 1.265625 -3.359375 1.625 -3.515625 L 1.625 -0.5 C 1.625 -0.3125 1.625 -0.234375 1.015625 -0.234375 L 0.765625 -0.234375 L 0.765625 0 C 1.09375 -0.03125 1.546875 -0.03125 1.890625 -0.03125 C 2.21875 -0.03125 2.6875 -0.03125 3.015625 0 L 3.015625 -0.234375 L 2.75 -0.234375 C 2.140625 -0.234375 2.140625 -0.3125 2.140625 -0.5 Z M 2.140625 -3.796875 "/>
</g>
<g id="glyph-1-1">
<path d="M 3.21875 -1.109375 L 2.984375 -1.109375 C 2.984375 -1.03125 2.921875 -0.640625 2.828125 -0.578125 C 2.78125 -0.53125 2.296875 -0.53125 2.21875 -0.53125 L 1.109375 -0.53125 L 1.875 -1.15625 C 2.078125 -1.3125 2.609375 -1.703125 2.78125 -1.875 C 2.96875 -2.0625 3.21875 -2.359375 3.21875 -2.78125 C 3.21875 -3.53125 2.53125 -3.96875 1.734375 -3.96875 C 0.96875 -3.96875 0.4375 -3.46875 0.4375 -2.90625 C 0.4375 -2.59375 0.6875 -2.5625 0.75 -2.5625 C 0.90625 -2.5625 1.078125 -2.671875 1.078125 -2.890625 C 1.078125 -3.015625 1 -3.203125 0.734375 -3.203125 C 0.875 -3.515625 1.234375 -3.734375 1.640625 -3.734375 C 2.28125 -3.734375 2.609375 -3.265625 2.609375 -2.78125 C 2.609375 -2.359375 2.328125 -1.921875 1.90625 -1.546875 L 0.5 -0.25 C 0.4375 -0.1875 0.4375 -0.1875 0.4375 0 L 3.03125 0 Z M 3.21875 -1.109375 "/>
</g>
<g id="glyph-2-0">
<path d="M 0.375 -5.4375 L 0.375 -5.171875 L 0.5625 -5.171875 C 1.171875 -5.171875 1.1875 -5.09375 1.1875 -4.796875 L 1.1875 -0.640625 C 1.1875 -0.34375 1.171875 -0.265625 0.5625 -0.265625 L 0.375 -0.265625 L 0.375 0 L 3.640625 0 C 4.734375 0 5.515625 -0.703125 5.515625 -1.453125 C 5.515625 -2.109375 4.90625 -2.734375 3.90625 -2.84375 C 4.765625 -3.03125 5.28125 -3.546875 5.28125 -4.09375 C 5.28125 -4.8125 4.484375 -5.4375 3.40625 -5.4375 Z M 1.859375 -2.9375 L 1.859375 -4.859375 C 1.859375 -5.125 1.875 -5.171875 2.25 -5.171875 L 3.359375 -5.171875 C 4.140625 -5.171875 4.5 -4.5625 4.5 -4.09375 C 4.5 -3.546875 4.03125 -2.9375 3.109375 -2.9375 Z M 2.25 -0.265625 C 1.875 -0.265625 1.859375 -0.3125 1.859375 -0.59375 L 1.859375 -2.71875 L 3.484375 -2.71875 C 4.25 -2.71875 4.703125 -2.09375 4.703125 -1.46875 C 4.703125 -0.828125 4.171875 -0.265625 3.359375 -0.265625 Z M 2.25 -0.265625 "/>
</g>
<g id="glyph-2-1">
<path d="M 2.65625 -3.421875 L 2.65625 -3.15625 C 3.203125 -3.15625 3.265625 -3.109375 3.265625 -2.71875 L 3.265625 -1.328125 C 3.265625 -0.640625 2.859375 -0.140625 2.25 -0.140625 C 1.5625 -0.140625 1.53125 -0.484375 1.53125 -0.890625 L 1.53125 -3.515625 L 0.328125 -3.421875 L 0.328125 -3.15625 C 0.9375 -3.15625 0.9375 -3.140625 0.9375 -2.4375 L 0.9375 -1.234375 C 0.9375 -0.65625 0.9375 0.078125 2.203125 0.078125 C 2.953125 0.078125 3.25 -0.5 3.28125 -0.5625 L 3.296875 -0.5625 L 3.296875 0.078125 L 4.484375 0 L 4.484375 -0.265625 C 3.9375 -0.265625 3.875 -0.3125 3.875 -0.703125 L 3.875 -3.515625 Z M 2.65625 -3.421875 "/>
</g>
<g id="glyph-2-2">
<path d="M 3.53125 -2.625 C 3.734375 -3.078125 4.03125 -3.15625 4.28125 -3.171875 L 4.28125 -3.4375 C 4.015625 -3.40625 4 -3.40625 3.65625 -3.40625 C 3.625 -3.40625 3.203125 -3.40625 2.96875 -3.4375 L 2.96875 -3.171875 C 3.203125 -3.15625 3.3125 -3.03125 3.3125 -2.84375 C 3.3125 -2.796875 3.3125 -2.734375 3.265625 -2.640625 L 2.421875 -0.71875 L 1.484375 -2.8125 C 1.4375 -2.921875 1.4375 -2.9375 1.4375 -2.96875 C 1.4375 -3.15625 1.6875 -3.171875 1.859375 -3.171875 L 1.859375 -3.4375 C 1.5 -3.40625 1.15625 -3.40625 0.984375 -3.40625 C 0.8125 -3.40625 0.4375 -3.40625 0.171875 -3.4375 L 0.171875 -3.171875 C 0.59375 -3.171875 0.703125 -3.15625 0.84375 -2.859375 L 2.09375 0 C 1.734375 0.84375 1.5 1.40625 0.9375 1.40625 C 0.734375 1.40625 0.609375 1.3125 0.609375 1.3125 C 0.671875 1.296875 0.859375 1.203125 0.859375 0.96875 C 0.859375 0.75 0.6875 0.625 0.515625 0.625 C 0.34375 0.625 0.171875 0.734375 0.171875 0.984375 C 0.171875 1.328125 0.515625 1.625 0.9375 1.625 C 1.65625 1.625 2.03125 0.765625 2.0625 0.6875 Z M 3.53125 -2.625 "/>
</g>
<g id="glyph-2-3">
<path d="M 3.296875 -1.8125 C 3.46875 -1.8125 3.515625 -1.8125 3.515625 -2 C 3.515625 -2.703125 3.125 -3.546875 2 -3.546875 C 1.015625 -3.546875 0.234375 -2.734375 0.234375 -1.75 C 0.234375 -0.71875 1.09375 0.078125 2.109375 0.078125 C 3.109375 0.078125 3.515625 -0.765625 3.515625 -0.953125 C 3.515625 -0.984375 3.484375 -1.0625 3.390625 -1.0625 C 3.296875 -1.0625 3.28125 -1.015625 3.265625 -0.96875 C 2.984375 -0.1875 2.296875 -0.171875 2.15625 -0.171875 C 1.796875 -0.171875 1.421875 -0.328125 1.1875 -0.703125 C 0.953125 -1.0625 0.953125 -1.578125 0.953125 -1.8125 Z M 0.953125 -2.03125 C 1.03125 -3.140625 1.703125 -3.328125 2 -3.328125 C 2.9375 -3.328125 2.96875 -2.203125 2.96875 -2.03125 Z M 0.953125 -2.03125 "/>
</g>
<g id="glyph-2-4">
<path d="M 1.46875 -1.8125 C 1.46875 -2.421875 1.71875 -3.28125 2.484375 -3.296875 C 2.4375 -3.265625 2.34375 -3.203125 2.34375 -3.015625 C 2.34375 -2.765625 2.546875 -2.65625 2.703125 -2.65625 C 2.890625 -2.65625 3.0625 -2.78125 3.0625 -3.015625 C 3.0625 -3.296875 2.8125 -3.515625 2.453125 -3.515625 C 1.9375 -3.515625 1.578125 -3.125 1.421875 -2.671875 L 1.40625 -2.671875 L 1.40625 -3.515625 L 0.28125 -3.421875 L 0.28125 -3.15625 C 0.828125 -3.15625 0.890625 -3.109375 0.890625 -2.71875 L 0.890625 -0.625 C 0.890625 -0.265625 0.78125 -0.265625 0.28125 -0.265625 L 0.28125 0 C 0.59375 -0.03125 1.03125 -0.03125 1.21875 -0.03125 C 1.6875 -0.03125 1.703125 -0.03125 2.21875 0 L 2.21875 -0.265625 L 2.0625 -0.265625 C 1.484375 -0.265625 1.46875 -0.34375 1.46875 -0.640625 Z M 1.46875 -1.8125 "/>
</g>
<g id="glyph-2-5">
<path d="M 1.515625 -4.78125 C 1.515625 -4 1.234375 -3.640625 0.875 -3.296875 C 0.84375 -3.265625 0.84375 -3.234375 0.84375 -3.21875 C 0.84375 -3.140625 0.90625 -3.09375 0.953125 -3.09375 C 1.0625 -3.09375 1.734375 -3.734375 1.734375 -4.671875 C 1.734375 -5.140625 1.546875 -5.53125 1.171875 -5.53125 C 0.90625 -5.53125 0.734375 -5.328125 0.734375 -5.09375 C 0.734375 -4.859375 0.90625 -4.640625 1.171875 -4.640625 C 1.390625 -4.640625 1.46875 -4.734375 1.515625 -4.78125 Z M 1.515625 -4.78125 "/>
</g>
<g id="glyph-2-6">
<path d="M 2.84375 -3.34375 C 2.84375 -3.46875 2.84375 -3.546875 2.734375 -3.546875 C 2.6875 -3.546875 2.671875 -3.546875 2.546875 -3.421875 C 2.53125 -3.421875 2.453125 -3.34375 2.4375 -3.34375 C 2.421875 -3.34375 2.40625 -3.34375 2.359375 -3.375 C 2.234375 -3.46875 2 -3.546875 1.640625 -3.546875 C 0.53125 -3.546875 0.28125 -2.953125 0.28125 -2.5625 C 0.28125 -2.171875 0.578125 -1.9375 0.59375 -1.90625 C 0.921875 -1.671875 1.09375 -1.640625 1.640625 -1.546875 C 2.015625 -1.46875 2.625 -1.359375 2.625 -0.828125 C 2.625 -0.515625 2.421875 -0.140625 1.6875 -0.140625 C 0.875 -0.140625 0.640625 -0.765625 0.546875 -1.1875 C 0.515625 -1.296875 0.5 -1.328125 0.40625 -1.328125 C 0.28125 -1.328125 0.28125 -1.265625 0.28125 -1.109375 L 0.28125 -0.125 C 0.28125 0 0.28125 0.078125 0.375 0.078125 C 0.4375 0.078125 0.4375 0.078125 0.578125 -0.078125 C 0.625 -0.125 0.703125 -0.21875 0.75 -0.265625 C 1.109375 0.0625 1.484375 0.078125 1.6875 0.078125 C 2.703125 0.078125 3.046875 -0.5 3.046875 -1.03125 C 3.046875 -1.40625 2.828125 -1.96875 1.875 -2.140625 C 1.8125 -2.15625 1.359375 -2.234375 1.328125 -2.234375 C 1.078125 -2.296875 0.703125 -2.46875 0.703125 -2.78125 C 0.703125 -3.015625 0.890625 -3.359375 1.640625 -3.359375 C 2.53125 -3.359375 2.578125 -2.703125 2.59375 -2.484375 C 2.59375 -2.421875 2.65625 -2.390625 2.703125 -2.390625 C 2.84375 -2.390625 2.84375 -2.453125 2.84375 -2.59375 Z M 2.84375 -3.34375 "/>
</g>
<g id="glyph-2-7">
<path d="M 1.859375 -3.328125 C 1.34375 -3.4375 0.96875 -3.84375 0.96875 -4.328125 C 0.96875 -4.875 1.4375 -5.375 2.125 -5.375 C 3.5 -5.375 3.6875 -4.078125 3.734375 -3.78125 C 3.75 -3.6875 3.75 -3.640625 3.859375 -3.640625 C 3.984375 -3.640625 3.984375 -3.6875 3.984375 -3.84375 L 3.984375 -5.40625 C 3.984375 -5.53125 3.984375 -5.609375 3.875 -5.609375 C 3.8125 -5.609375 3.796875 -5.59375 3.75 -5.5 L 3.46875 -5.046875 C 3.0625 -5.484375 2.5625 -5.609375 2.125 -5.609375 C 1.171875 -5.609375 0.46875 -4.890625 0.46875 -4.078125 C 0.46875 -3.46875 0.8125 -3.140625 0.96875 -2.984375 C 1.25 -2.703125 1.515625 -2.640625 2.375 -2.4375 C 3.0625 -2.28125 3.171875 -2.25 3.4375 -1.96875 C 3.515625 -1.890625 3.71875 -1.625 3.71875 -1.234375 C 3.71875 -0.671875 3.296875 -0.09375 2.546875 -0.09375 C 1.671875 -0.09375 0.765625 -0.515625 0.71875 -1.625 C 0.703125 -1.75 0.703125 -1.8125 0.59375 -1.8125 C 0.46875 -1.8125 0.46875 -1.75 0.46875 -1.59375 L 0.46875 -0.046875 C 0.46875 0.09375 0.46875 0.171875 0.578125 0.171875 C 0.640625 0.171875 0.640625 0.15625 0.703125 0.078125 C 0.734375 0.03125 0.765625 -0.046875 0.984375 -0.375 C 1.484375 0.0625 2.078125 0.171875 2.5625 0.171875 C 3.546875 0.171875 4.21875 -0.625 4.21875 -1.46875 C 4.21875 -2.171875 3.765625 -2.875 2.953125 -3.0625 Z M 1.859375 -3.328125 "/>
</g>
<g id="glyph-2-8">
<path d="M 2.09375 1.28125 C 1.578125 1.28125 1.484375 1.28125 1.484375 0.921875 L 1.484375 -0.390625 C 1.859375 0.015625 2.265625 0.078125 2.53125 0.078125 C 3.53125 0.078125 4.421875 -0.703125 4.421875 -1.71875 C 4.421875 -2.71875 3.609375 -3.515625 2.640625 -3.515625 C 2.328125 -3.515625 1.875 -3.4375 1.46875 -3.015625 L 1.46875 -3.515625 L 0.28125 -3.421875 L 0.28125 -3.15625 C 0.84375 -3.15625 0.890625 -3.109375 0.890625 -2.78125 L 0.890625 0.921875 C 0.890625 1.28125 0.78125 1.28125 0.28125 1.28125 L 0.28125 1.546875 C 0.625 1.515625 0.96875 1.515625 1.1875 1.515625 C 1.421875 1.515625 1.75 1.515625 2.09375 1.546875 Z M 1.484375 -2.65625 C 1.671875 -2.96875 2.078125 -3.265625 2.578125 -3.265625 C 3.1875 -3.265625 3.703125 -2.59375 3.703125 -1.71875 C 3.703125 -0.8125 3.125 -0.140625 2.484375 -0.140625 C 2.203125 -0.140625 1.84375 -0.265625 1.578125 -0.65625 C 1.484375 -0.796875 1.484375 -0.8125 1.484375 -0.953125 Z M 1.484375 -2.65625 "/>
</g>
<g id="glyph-2-9">
<path d="M 1.515625 -5.53125 L 0.328125 -5.4375 L 0.328125 -5.171875 C 0.875 -5.171875 0.9375 -5.125 0.9375 -4.734375 L 0.9375 -0.625 C 0.9375 -0.265625 0.84375 -0.265625 0.328125 -0.265625 L 0.328125 0 C 0.640625 -0.03125 1.09375 -0.03125 1.234375 -0.03125 C 1.390625 -0.03125 1.8125 -0.03125 2.125 0 L 2.125 -0.265625 C 1.625 -0.265625 1.515625 -0.265625 1.515625 -0.625 Z M 1.515625 -5.53125 "/>
</g>
<g id="glyph-2-10">
<path d="M 2.03125 -5.265625 C 1.953125 -5.421875 1.953125 -5.4375 1.734375 -5.4375 L 0.390625 -5.4375 L 0.390625 -5.171875 L 0.5625 -5.171875 C 1.171875 -5.171875 1.1875 -5.09375 1.1875 -4.796875 L 1.1875 -0.859375 C 1.1875 -0.640625 1.1875 -0.265625 0.390625 -0.265625 L 0.390625 0 C 0.75 -0.03125 1.125 -0.03125 1.328125 -0.03125 C 1.53125 -0.03125 1.90625 -0.03125 2.265625 0 L 2.265625 -0.265625 C 1.46875 -0.265625 1.46875 -0.640625 1.46875 -0.859375 L 1.46875 -5.09375 L 3.484375 -0.1875 C 3.53125 -0.09375 3.5625 0 3.671875 0 C 3.78125 0 3.8125 -0.09375 3.859375 -0.1875 L 5.890625 -5.15625 L 5.890625 -0.640625 C 5.890625 -0.34375 5.875 -0.265625 5.265625 -0.265625 L 5.09375 -0.265625 L 5.09375 0 C 5.71875 -0.03125 5.734375 -0.03125 6.21875 -0.03125 C 6.703125 -0.03125 6.71875 -0.03125 7.359375 0 L 7.359375 -0.265625 L 7.1875 -0.265625 C 6.5625 -0.265625 6.546875 -0.34375 6.546875 -0.640625 L 6.546875 -4.796875 C 6.546875 -5.09375 6.5625 -5.171875 7.1875 -5.171875 L 7.359375 -5.171875 L 7.359375 -5.4375 L 6.015625 -5.4375 C 5.796875 -5.4375 5.78125 -5.421875 5.71875 -5.28125 L 3.875 -0.75 Z M 2.03125 -5.265625 "/>
</g>
<g id="glyph-2-11">
<path d="M 3.34375 -2.375 C 3.34375 -3.15625 2.59375 -3.546875 1.859375 -3.546875 C 1.203125 -3.546875 0.609375 -3.296875 0.609375 -2.765625 C 0.609375 -2.53125 0.78125 -2.390625 0.984375 -2.390625 C 1.21875 -2.390625 1.359375 -2.546875 1.359375 -2.765625 C 1.359375 -2.953125 1.25 -3.09375 1.0625 -3.125 C 1.359375 -3.328125 1.796875 -3.328125 1.84375 -3.328125 C 2.296875 -3.328125 2.734375 -3.015625 2.734375 -2.359375 L 2.734375 -2.125 C 2.28125 -2.09375 1.75 -2.078125 1.1875 -1.84375 C 0.484375 -1.53125 0.34375 -1.078125 0.34375 -0.8125 C 0.34375 -0.125 1.15625 0.078125 1.703125 0.078125 C 2.28125 0.078125 2.640625 -0.25 2.828125 -0.5625 C 2.859375 -0.265625 3.0625 0.046875 3.421875 0.046875 C 3.5 0.046875 4.171875 0.015625 4.171875 -0.71875 L 4.171875 -1.15625 L 3.921875 -1.15625 L 3.921875 -0.71875 C 3.921875 -0.390625 3.8125 -0.265625 3.640625 -0.265625 C 3.34375 -0.265625 3.34375 -0.625 3.34375 -0.71875 Z M 2.734375 -1.125 C 2.734375 -0.34375 2.09375 -0.140625 1.765625 -0.140625 C 1.359375 -0.140625 1 -0.421875 1 -0.8125 C 1 -1.328125 1.5 -1.875 2.734375 -1.90625 Z M 2.734375 -1.125 "/>
</g>
<g id="glyph-2-12">
<path d="M 2.40625 -2.171875 L 3.078125 -2.703125 C 3.609375 -3.125 3.9375 -3.15625 4.140625 -3.171875 L 4.140625 -3.4375 C 3.9375 -3.40625 3.828125 -3.40625 3.5 -3.40625 C 3.109375 -3.40625 3 -3.421875 2.65625 -3.4375 L 2.65625 -3.171875 C 2.8125 -3.15625 2.84375 -3.0625 2.84375 -3.015625 C 2.84375 -2.84375 2.671875 -2.703125 2.609375 -2.65625 L 1.46875 -1.734375 L 1.46875 -5.53125 L 0.28125 -5.4375 L 0.28125 -5.171875 C 0.828125 -5.171875 0.890625 -5.125 0.890625 -4.734375 L 0.890625 -0.625 C 0.890625 -0.265625 0.78125 -0.265625 0.28125 -0.265625 L 0.28125 0 C 0.59375 -0.03125 1.015625 -0.03125 1.15625 -0.03125 C 1.3125 -0.03125 1.734375 -0.03125 2.046875 0 L 2.046875 -0.265625 C 1.53125 -0.265625 1.4375 -0.265625 1.4375 -0.625 L 1.4375 -1.390625 L 1.96875 -1.828125 C 2 -1.828125 2.203125 -1.546875 2.328125 -1.390625 C 2.453125 -1.234375 2.578125 -1.0625 2.703125 -0.90625 C 2.828125 -0.75 2.984375 -0.546875 2.984375 -0.421875 C 2.984375 -0.28125 2.84375 -0.265625 2.734375 -0.265625 L 2.734375 0 C 3.078125 -0.03125 3.4375 -0.03125 3.578125 -0.03125 C 3.875 -0.03125 4.046875 -0.03125 4.3125 0 L 4.3125 -0.265625 C 3.984375 -0.265625 3.84375 -0.296875 3.546875 -0.671875 Z M 2.40625 -2.171875 "/>
</g>
<g id="glyph-2-13">
<path d="M 1.484375 -3.171875 L 2.671875 -3.171875 L 2.671875 -3.4375 L 1.484375 -3.4375 L 1.484375 -4.90625 L 1.234375 -4.90625 C 1.234375 -4.171875 0.90625 -3.421875 0.15625 -3.390625 L 0.15625 -3.171875 L 0.875 -3.171875 L 0.875 -1 C 0.875 -0.0625 1.59375 0.078125 1.953125 0.078125 C 2.5 0.078125 2.8125 -0.390625 2.8125 -1 L 2.8125 -1.4375 L 2.5625 -1.4375 L 2.5625 -1.015625 C 2.5625 -0.46875 2.3125 -0.171875 2.015625 -0.171875 C 1.484375 -0.171875 1.484375 -0.859375 1.484375 -0.984375 Z M 1.484375 -3.171875 "/>
</g>
<g id="glyph-2-14">
<path d="M 5.28125 -4.640625 C 5.5 -5.171875 6 -5.171875 6.15625 -5.171875 L 6.15625 -5.4375 C 5.921875 -5.421875 5.515625 -5.421875 5.375 -5.421875 C 5.21875 -5.421875 4.859375 -5.421875 4.5 -5.4375 L 4.5 -5.171875 C 4.84375 -5.171875 5.03125 -5 5.03125 -4.796875 C 5.03125 -4.71875 5.03125 -4.703125 4.984375 -4.609375 L 3.40625 -0.75 L 1.75 -4.8125 C 1.71875 -4.890625 1.703125 -4.921875 1.703125 -4.953125 C 1.703125 -5.171875 2.125 -5.171875 2.3125 -5.171875 L 2.3125 -5.4375 C 1.640625 -5.421875 1.625 -5.421875 1.203125 -5.421875 C 0.828125 -5.421875 0.578125 -5.421875 0.171875 -5.4375 L 0.171875 -5.171875 C 0.65625 -5.171875 0.828125 -5.171875 0.953125 -4.875 L 2.953125 -0.015625 C 3.015625 0.140625 3.078125 0.171875 3.15625 0.171875 C 3.3125 0.171875 3.328125 0.109375 3.375 -0.015625 Z M 5.28125 -4.640625 "/>
</g>
<g id="glyph-3-0">
<path d="M -2.8125 -2.765625 L -2.8125 -4.265625 C -2.8125 -5.71875 -3.8125 -6.890625 -4.75 -6.890625 C -5.46875 -6.890625 -6.109375 -6.265625 -6.109375 -5.078125 L -6.109375 -2.125 C -6.109375 -1.96875 -6.109375 -1.859375 -5.953125 -1.859375 C -5.84375 -1.859375 -5.84375 -1.9375 -5.84375 -2.125 C -5.84375 -2.171875 -5.84375 -2.328125 -5.8125 -2.46875 C -5.796875 -2.625 -5.78125 -2.6875 -5.6875 -2.6875 C -5.640625 -2.6875 -5.609375 -2.671875 -5.5 -2.65625 L -0.6875 -1.4375 C -0.359375 -1.359375 -0.28125 -1.34375 -0.28125 -0.671875 C -0.28125 -0.5 -0.28125 -0.40625 -0.109375 -0.40625 C -0.015625 -0.40625 0 -0.46875 0 -0.53125 C 0 -0.703125 -0.015625 -0.9375 -0.015625 -1.09375 C -0.03125 -1.375 -0.03125 -1.390625 -0.03125 -1.671875 C -0.03125 -1.953125 -0.03125 -1.984375 -0.015625 -2.25 C -0.015625 -2.421875 0 -2.65625 0 -2.828125 C 0 -2.890625 0 -3.015625 -0.15625 -3.015625 C -0.28125 -3.015625 -0.28125 -2.921875 -0.28125 -2.734375 C -0.28125 -2.6875 -0.28125 -2.53125 -0.296875 -2.390625 C -0.328125 -2.1875 -0.359375 -2.1875 -0.4375 -2.1875 C -0.46875 -2.1875 -0.484375 -2.1875 -0.640625 -2.234375 Z M -5.484375 -3.40625 C -5.8125 -3.484375 -5.84375 -3.515625 -5.84375 -3.890625 L -5.84375 -4.796875 C -5.84375 -5.484375 -5.625 -6.046875 -4.96875 -6.046875 C -4.78125 -6.046875 -3.9375 -5.9375 -3.515625 -5.484375 C -3.328125 -5.28125 -3.0625 -4.875 -3.0625 -4.09375 L -3.0625 -2.796875 Z M -5.484375 -3.40625 "/>
</g>
<g id="glyph-4-0">
<path d="M 2.40625 -3.984375 C 1.5 -4.1875 1.484375 -4.78125 1.484375 -4.90625 C 1.484375 -5.328125 1.75 -5.84375 2.65625 -5.84375 C 4.078125 -5.84375 4.421875 -4.875 4.515625 -4.28125 C 4.546875 -4.140625 4.546875 -4.09375 4.75 -4.09375 C 4.984375 -4.09375 4.984375 -4.140625 4.984375 -4.359375 L 4.984375 -5.984375 C 4.984375 -6.15625 4.984375 -6.25 4.8125 -6.25 C 4.734375 -6.25 4.71875 -6.234375 4.609375 -6.140625 L 4.21875 -5.75 C 3.71875 -6.15625 3.140625 -6.25 2.65625 -6.25 C 1.21875 -6.25 0.59375 -5.34375 0.59375 -4.453125 C 0.59375 -3.8125 0.953125 -3.390625 1.03125 -3.296875 C 1.53125 -2.8125 1.828125 -2.75 2.75 -2.546875 C 2.90625 -2.53125 3.046875 -2.5 3.171875 -2.46875 C 3.703125 -2.359375 3.859375 -2.328125 4.15625 -2.015625 C 4.15625 -2 4.390625 -1.765625 4.390625 -1.375 C 4.390625 -1.1875 4.34375 -0.328125 3.1875 -0.328125 C 2.65625 -0.328125 1.125 -0.4375 1.046875 -1.828125 C 1.03125 -1.984375 1.03125 -2.046875 0.828125 -2.046875 C 0.59375 -2.046875 0.59375 -1.984375 0.59375 -1.765625 L 0.59375 -0.15625 C 0.59375 0.015625 0.59375 0.109375 0.765625 0.109375 C 0.84375 0.109375 0.859375 0.109375 0.9375 0.03125 C 1 -0.015625 1.1875 -0.234375 1.359375 -0.375 C 1.90625 0.015625 2.703125 0.109375 3.203125 0.109375 C 4.703125 0.109375 5.28125 -0.890625 5.28125 -1.8125 C 5.28125 -2.78125 4.5625 -3.53125 3.703125 -3.703125 Z M 2.40625 -3.984375 "/>
</g>
<g id="glyph-4-1">
<path d="M 7.984375 -2.734375 C 7.984375 -3.78125 7.34375 -4.03125 6.546875 -4.03125 C 5.625 -4.03125 5.171875 -3.46875 5 -3.1875 C 4.796875 -4 4.015625 -4.03125 3.609375 -4.03125 C 2.5 -4.03125 2.0625 -3.21875 2 -3.09375 L 2 -4.03125 L 0.453125 -3.953125 L 0.453125 -3.515625 C 0.984375 -3.515625 1.0625 -3.515625 1.0625 -3.171875 L 1.0625 -0.4375 L 0.453125 -0.4375 L 0.453125 0 C 1.109375 -0.03125 1.21875 -0.03125 1.578125 -0.03125 C 1.9375 -0.03125 2.03125 -0.03125 2.71875 0 L 2.71875 -0.4375 L 2.109375 -0.4375 L 2.109375 -2.28125 C 2.109375 -3.265625 2.921875 -3.671875 3.46875 -3.671875 C 3.8125 -3.671875 4 -3.484375 4 -2.8125 L 4 -0.4375 L 3.390625 -0.4375 L 3.390625 0 C 4.046875 -0.03125 4.15625 -0.03125 4.515625 -0.03125 C 4.875 -0.03125 4.96875 -0.03125 5.65625 0 L 5.65625 -0.4375 L 5.046875 -0.4375 L 5.046875 -2.28125 C 5.046875 -3.265625 5.859375 -3.671875 6.40625 -3.671875 C 6.734375 -3.671875 6.9375 -3.484375 6.9375 -2.8125 L 6.9375 -0.4375 L 6.328125 -0.4375 L 6.328125 0 C 6.984375 -0.03125 7.09375 -0.03125 7.453125 -0.03125 C 7.8125 -0.03125 7.90625 -0.03125 8.59375 0 L 8.59375 -0.4375 L 7.984375 -0.4375 Z M 7.984375 -2.734375 "/>
</g>
<g id="glyph-4-2">
<path d="M 4.328125 -2.671875 C 4.328125 -3.453125 3.6875 -4.0625 2.3125 -4.0625 C 1.796875 -4.0625 0.65625 -4.03125 0.65625 -3.21875 C 0.65625 -2.8125 0.953125 -2.625 1.234375 -2.625 C 1.546875 -2.625 1.8125 -2.84375 1.8125 -3.203125 C 1.8125 -3.46875 1.671875 -3.609375 1.640625 -3.640625 C 1.734375 -3.65625 1.9375 -3.703125 2.28125 -3.703125 C 2.921875 -3.703125 3.28125 -3.375 3.28125 -2.671875 L 3.28125 -2.375 C 1.796875 -2.375 0.296875 -2 0.296875 -1 C 0.296875 -0.109375 1.421875 0.046875 2.0625 0.046875 C 2.734375 0.046875 3.203125 -0.234375 3.453125 -0.65625 C 3.453125 -0.4375 3.453125 0 4.40625 0 L 4.84375 0 C 5.015625 0 5.140625 0 5.140625 -0.21875 C 5.140625 -0.4375 5 -0.4375 4.90625 -0.4375 C 4.328125 -0.453125 4.328125 -0.53125 4.328125 -0.75 Z M 3.28125 -1.25 C 3.28125 -0.296875 2.25 -0.296875 2.21875 -0.296875 C 1.75 -0.296875 1.375 -0.59375 1.375 -1 C 1.375 -1.296875 1.546875 -2 3.28125 -2.078125 Z M 3.28125 -1.25 "/>
</g>
<g id="glyph-4-3">
<path d="M 2.0625 -6.21875 L 0.46875 -6.140625 L 0.46875 -5.703125 C 1 -5.703125 1.078125 -5.703125 1.078125 -5.359375 L 1.078125 -0.4375 L 0.46875 -0.4375 L 0.46875 0 C 1.078125 -0.03125 1.1875 -0.03125 1.5625 -0.03125 C 1.953125 -0.03125 2.1875 -0.015625 2.671875 0 L 2.671875 -0.4375 L 2.0625 -0.4375 Z M 2.0625 -6.21875 "/>
</g>
<g id="glyph-4-4">
<path d="M 4.90625 -4.03125 L 4.5 -4.03125 L 4.046875 -3.328125 C 3.6875 -3.765625 3.234375 -4.03125 2.65625 -4.03125 C 1.25 -4.03125 0.34375 -3.171875 0.34375 -1.984375 C 0.34375 -0.796875 1.203125 0.046875 2.5625 0.046875 C 3.03125 0.046875 3.5 -0.109375 3.859375 -0.4375 L 3.859375 1.296875 L 3.25 1.296875 L 3.25 1.734375 C 3.90625 1.703125 4.015625 1.703125 4.375 1.703125 C 4.75 1.703125 4.828125 1.703125 5.515625 1.734375 L 5.515625 1.296875 L 4.90625 1.296875 Z M 3.90625 -1.328125 C 3.90625 -1.15625 3.90625 -1.140625 3.8125 -0.96875 C 3.484375 -0.484375 3.03125 -0.296875 2.65625 -0.296875 C 2.0625 -0.296875 1.546875 -0.84375 1.546875 -1.984375 C 1.546875 -2.265625 1.5625 -2.734375 1.828125 -3.140625 C 2.15625 -3.625 2.65625 -3.640625 2.75 -3.640625 C 3.484375 -3.640625 3.90625 -2.921875 3.90625 -2.484375 Z M 3.90625 -1.328125 "/>
</g>
<g id="glyph-4-5">
<path d="M 3.375 -3.953125 L 3.375 -3.515625 C 3.90625 -3.515625 3.984375 -3.515625 3.984375 -3.171875 L 3.984375 -1.46875 C 3.984375 -0.75 3.515625 -0.296875 2.828125 -0.296875 C 2.140625 -0.296875 2.109375 -0.5 2.109375 -0.96875 L 2.109375 -4.03125 L 0.453125 -3.953125 L 0.453125 -3.515625 C 0.984375 -3.515625 1.0625 -3.515625 1.0625 -3.171875 L 1.0625 -1.09375 C 1.0625 -0.125 1.828125 0.046875 2.6875 0.046875 C 2.96875 0.046875 3.578125 0.046875 4.03125 -0.625 L 4.03125 0.046875 L 5.640625 0 L 5.640625 -0.4375 C 5.109375 -0.4375 5.03125 -0.4375 5.03125 -0.78125 L 5.03125 -4.03125 Z M 3.375 -3.953125 "/>
</g>
<g id="glyph-4-6">
<path d="M 5.03125 -2.734375 C 5.03125 -3.796875 4.390625 -4.03125 3.609375 -4.03125 C 2.5 -4.03125 2.0625 -3.21875 2 -3.09375 L 2 -4.03125 L 0.453125 -3.953125 L 0.453125 -3.515625 C 0.984375 -3.515625 1.0625 -3.515625 1.0625 -3.171875 L 1.0625 -0.4375 L 0.453125 -0.4375 L 0.453125 0 C 1.109375 -0.03125 1.21875 -0.03125 1.578125 -0.03125 C 1.9375 -0.03125 2.03125 -0.03125 2.71875 0 L 2.71875 -0.4375 L 2.109375 -0.4375 L 2.109375 -2.28125 C 2.109375 -3.28125 2.921875 -3.671875 3.46875 -3.671875 C 3.8125 -3.671875 3.984375 -3.484375 3.984375 -2.8125 L 3.984375 -0.4375 L 3.375 -0.4375 L 3.375 0 C 4.03125 -0.03125 4.140625 -0.03125 4.5 -0.03125 C 4.875 -0.03125 4.953125 -0.03125 5.640625 0 L 5.640625 -0.4375 L 5.03125 -0.4375 Z M 5.03125 -2.734375 "/>
</g>
<g id="glyph-4-7">
<path d="M 2 -3.53125 L 3.34375 -3.53125 L 3.34375 -3.96875 L 2 -3.96875 L 2 -5.6875 L 1.546875 -5.6875 C 1.53125 -4.84375 1.109375 -3.921875 0.203125 -3.890625 L 0.203125 -3.53125 L 0.953125 -3.53125 L 0.953125 -1.09375 C 0.953125 -0.078125 1.828125 0.046875 2.390625 0.046875 C 3.09375 0.046875 3.515625 -0.453125 3.515625 -1.09375 L 3.515625 -1.578125 L 3.0625 -1.578125 L 3.0625 -1.125 C 3.0625 -0.5 2.734375 -0.328125 2.515625 -0.328125 C 2 -0.328125 2 -0.875 2 -1.078125 Z M 2 -3.53125 "/>
</g>
<g id="glyph-4-8">
<path d="M 2.15625 -5.515625 C 2.15625 -5.984375 1.765625 -6.21875 1.453125 -6.21875 C 1.03125 -6.21875 0.75 -5.875 0.75 -5.53125 C 0.75 -5.140625 1.046875 -4.8125 1.453125 -4.8125 C 1.796875 -4.8125 2.15625 -5.078125 2.15625 -5.515625 Z M 0.5 -3.953125 L 0.5 -3.515625 C 1.015625 -3.515625 1.078125 -3.515625 1.078125 -3.171875 L 1.078125 -0.4375 L 0.46875 -0.4375 L 0.46875 0 C 1.0625 -0.015625 1.1875 -0.03125 1.5625 -0.03125 C 2 -0.03125 2.109375 -0.015625 2.609375 0 L 2.609375 -0.4375 L 2.0625 -0.4375 L 2.0625 -4.03125 Z M 0.5 -3.953125 "/>
</g>
<g id="glyph-4-9">
<path d="M 4.671875 -3.34375 C 4.734375 -3.46875 4.765625 -3.53125 5.34375 -3.53125 L 5.34375 -3.96875 C 5.078125 -3.953125 4.859375 -3.953125 4.609375 -3.953125 C 4.34375 -3.953125 4.0625 -3.953125 3.8125 -3.96875 L 3.8125 -3.53125 C 3.8125 -3.53125 4.203125 -3.53125 4.203125 -3.421875 C 4.203125 -3.421875 4.203125 -3.40625 4.15625 -3.328125 L 3.09375 -1.140625 L 1.921875 -3.53125 L 2.375 -3.53125 L 2.375 -3.96875 C 1.890625 -3.953125 1.5625 -3.953125 1.28125 -3.953125 C 0.953125 -3.953125 0.78125 -3.953125 0.25 -3.96875 L 0.25 -3.53125 L 0.8125 -3.53125 L 2.53125 0 C 2.21875 0.734375 1.875 1.4375 1.1875 1.4375 C 1.140625 1.4375 1.078125 1.4375 1.015625 1.40625 C 1.171875 1.328125 1.28125 1.15625 1.28125 0.9375 C 1.28125 0.59375 1.03125 0.40625 0.75 0.40625 C 0.453125 0.40625 0.203125 0.59375 0.203125 0.9375 C 0.203125 1.421875 0.65625 1.796875 1.1875 1.796875 C 1.875 1.796875 2.4375 1.265625 2.71875 0.6875 Z M 4.671875 -3.34375 "/>
</g>
<g id="glyph-4-10">
<path d="M 1.921875 -0.15625 C 1.875 0.5625 1.53125 1.0625 1.09375 1.40625 C 1.0625 1.4375 1.015625 1.46875 1.015625 1.546875 C 1.015625 1.625 1.125 1.734375 1.203125 1.734375 C 1.34375 1.734375 2.296875 0.96875 2.296875 -0.28125 C 2.296875 -0.890625 1.984375 -1.40625 1.46875 -1.40625 C 1.015625 -1.40625 0.765625 -1.0625 0.765625 -0.703125 C 0.765625 -0.34375 1.015625 0 1.484375 0 C 1.671875 0 1.828125 -0.078125 1.921875 -0.15625 Z M 1.921875 -0.15625 "/>
</g>
<g id="glyph-4-11">
<path d="M 5.03125 -2.734375 C 5.03125 -3.796875 4.390625 -4.03125 3.609375 -4.03125 C 2.75 -4.03125 2.28125 -3.546875 2.046875 -3.171875 L 2.046875 -6.21875 L 0.453125 -6.140625 L 0.453125 -5.703125 C 0.984375 -5.703125 1.0625 -5.703125 1.0625 -5.359375 L 1.0625 -0.4375 L 0.453125 -0.4375 L 0.453125 0 C 1.109375 -0.03125 1.21875 -0.03125 1.578125 -0.03125 C 1.9375 -0.03125 2.03125 -0.03125 2.71875 0 L 2.71875 -0.4375 L 2.109375 -0.4375 L 2.109375 -2.28125 C 2.109375 -3.28125 2.921875 -3.671875 3.46875 -3.671875 C 3.8125 -3.671875 3.984375 -3.484375 3.984375 -2.8125 L 3.984375 -0.4375 L 3.375 -0.4375 L 3.375 0 C 4.03125 -0.03125 4.140625 -0.03125 4.5 -0.03125 C 4.875 -0.03125 4.953125 -0.03125 5.640625 0 L 5.640625 -0.4375 L 5.03125 -0.4375 Z M 5.03125 -2.734375 "/>
</g>
<g id="glyph-4-12">
<path d="M 1.9375 -0.765625 C 1.640625 -0.765625 1.515625 -0.765625 1.375 -0.875 C 1.234375 -1 1.15625 -1.140625 1.15625 -1.328125 C 1.15625 -1.5 1.234375 -1.59375 1.234375 -1.609375 C 1.5625 -1.4375 1.953125 -1.375 2.359375 -1.375 C 3.71875 -1.375 4.1875 -2.109375 4.1875 -2.6875 C 4.1875 -3.0625 4.015625 -3.359375 3.828125 -3.546875 C 4.078125 -3.671875 4.25 -3.6875 4.375 -3.703125 C 4.359375 -3.671875 4.34375 -3.609375 4.34375 -3.53125 C 4.34375 -3.28125 4.53125 -3.125 4.75 -3.125 C 4.9375 -3.125 5.140625 -3.265625 5.140625 -3.53125 C 5.140625 -3.765625 4.96875 -4.078125 4.5625 -4.078125 C 4.125 -4.078125 3.75 -3.875 3.578125 -3.75 C 3.203125 -3.96875 2.78125 -4.03125 2.359375 -4.03125 C 0.984375 -4.03125 0.515625 -3.28125 0.515625 -2.703125 C 0.515625 -2.21875 0.828125 -1.890625 0.984375 -1.75 C 0.796875 -1.546875 0.6875 -1.25 0.6875 -0.96875 C 0.6875 -0.59375 0.875 -0.28125 1.0625 -0.109375 C 0.390625 0.078125 0.296875 0.453125 0.296875 0.65625 C 0.296875 1.1875 0.90625 1.796875 2.640625 1.796875 C 4.203125 1.796875 5 1.3125 5 0.625 C 5 0.3125 4.875 -0.234375 4.265625 -0.53125 C 3.75 -0.765625 3.265625 -0.765625 2.375 -0.765625 Z M 2.359375 -1.734375 C 1.546875 -1.734375 1.546875 -2.296875 1.546875 -2.6875 C 1.546875 -3.09375 1.546875 -3.671875 2.359375 -3.671875 C 3.15625 -3.671875 3.15625 -3.09375 3.15625 -2.703125 C 3.15625 -2.296875 3.15625 -1.734375 2.359375 -1.734375 Z M 2.890625 0.125 C 3.15625 0.125 4.203125 0.125 4.203125 0.65625 C 4.203125 0.953125 3.875 1.4375 2.65625 1.4375 C 1.46875 1.4375 1.09375 1 1.09375 0.640625 C 1.09375 0.125 1.671875 0.125 1.796875 0.125 Z M 2.890625 0.125 "/>
</g>
<g id="glyph-4-13">
<path d="M 2.625 1.296875 L 2.015625 1.296875 L 2.015625 -0.34375 C 2.546875 0.046875 3.046875 0.046875 3.21875 0.046875 C 4.625 0.046875 5.53125 -0.796875 5.53125 -1.984375 C 5.53125 -3.171875 4.703125 -4.03125 3.359375 -4.03125 C 2.625 -4.03125 2.140625 -3.71875 1.96875 -3.59375 L 1.96875 -4.03125 L 0.359375 -3.953125 L 0.359375 -3.515625 C 0.546875 -3.515625 0.6875 -3.515625 0.8125 -3.484375 C 0.96875 -3.46875 0.96875 -3.359375 0.96875 -3.171875 L 0.96875 1.296875 L 0.359375 1.296875 L 0.359375 1.734375 C 1.03125 1.703125 1.140625 1.703125 1.5 1.703125 C 1.859375 1.703125 1.953125 1.703125 2.625 1.734375 Z M 2.015625 -3.09375 C 2.1875 -3.28125 2.609375 -3.640625 3.21875 -3.640625 C 3.84375 -3.640625 4.328125 -3.09375 4.328125 -2 C 4.328125 -0.75 3.703125 -0.296875 3.109375 -0.296875 C 2.65625 -0.296875 2.265625 -0.5625 2.015625 -0.9375 Z M 2.015625 -3.09375 "/>
</g>
<g id="glyph-4-14">
<path d="M 1.96875 -1.953125 C 1.96875 -2.609375 2.21875 -3.640625 3.078125 -3.671875 C 2.984375 -3.578125 2.9375 -3.421875 2.9375 -3.28125 C 2.9375 -2.890625 3.25 -2.703125 3.5 -2.703125 C 3.78125 -2.703125 4.078125 -2.90625 4.078125 -3.28125 C 4.078125 -3.734375 3.609375 -4.03125 3.078125 -4.03125 C 2.453125 -4.03125 2.0625 -3.578125 1.875 -3.046875 L 1.859375 -3.046875 L 1.859375 -4.03125 L 0.359375 -3.953125 L 0.359375 -3.515625 C 0.90625 -3.515625 0.96875 -3.515625 0.96875 -3.171875 L 0.96875 -0.4375 L 0.359375 -0.4375 L 0.359375 0 C 1.03125 -0.03125 1.078125 -0.03125 1.515625 -0.03125 C 1.734375 -0.03125 2.25 -0.03125 2.734375 0 L 2.734375 -0.4375 L 1.96875 -0.4375 Z M 1.96875 -1.953125 "/>
</g>
<g id="glyph-4-15">
<path d="M 4.40625 -1.03125 C 4.40625 -1.1875 4.265625 -1.1875 4.171875 -1.1875 C 4 -1.1875 4 -1.171875 3.921875 -1.015625 C 3.75 -0.578125 3.34375 -0.328125 2.8125 -0.328125 C 1.546875 -0.328125 1.546875 -1.625 1.546875 -2.015625 C 1.546875 -2.5625 1.546875 -3.671875 2.71875 -3.671875 C 2.78125 -3.671875 3.265625 -3.65625 3.265625 -3.609375 C 3.265625 -3.609375 3.25 -3.578125 3.234375 -3.578125 C 3.15625 -3.46875 3.125 -3.328125 3.125 -3.203125 C 3.125 -2.84375 3.40625 -2.625 3.703125 -2.625 C 3.984375 -2.625 4.28125 -2.8125 4.28125 -3.21875 C 4.28125 -4.0625 3.03125 -4.0625 2.6875 -4.0625 C 0.96875 -4.0625 0.34375 -2.96875 0.34375 -1.984375 C 0.34375 -0.859375 1.15625 0.046875 2.640625 0.046875 C 2.96875 0.046875 3.40625 0 3.78125 -0.234375 C 4.296875 -0.546875 4.40625 -1.015625 4.40625 -1.03125 Z M 4.40625 -1.03125 "/>
</g>
<g id="glyph-4-16">
<path d="M 4.265625 -1.921875 C 4.453125 -1.921875 4.5625 -1.921875 4.5625 -2.171875 C 4.5625 -2.375 4.546875 -3.15625 3.953125 -3.640625 C 3.546875 -3.96875 3.015625 -4.0625 2.578125 -4.0625 C 1.046875 -4.0625 0.296875 -3.09375 0.296875 -2.015625 C 0.296875 -0.84375 1.1875 0.046875 2.703125 0.046875 C 4.1875 0.046875 4.5625 -0.890625 4.5625 -1.03125 C 4.5625 -1.21875 4.375 -1.21875 4.328125 -1.21875 C 4.15625 -1.21875 4.140625 -1.15625 4.09375 -1.03125 C 3.890625 -0.578125 3.34375 -0.328125 2.78125 -0.328125 C 1.5 -0.328125 1.484375 -1.484375 1.484375 -1.921875 Z M 1.484375 -2.25 C 1.5 -2.65625 1.546875 -3.703125 2.578125 -3.703125 C 3.625 -3.703125 3.65625 -2.609375 3.6875 -2.25 Z M 1.484375 -2.25 "/>
</g>
<g id="glyph-4-17">
<path d="M 5.921875 -2.46875 L 5.46875 -2.46875 C 5.390625 -1.859375 5.234375 -0.4375 3.59375 -0.4375 L 2.640625 -0.4375 L 2.640625 -5.703125 L 3.84375 -5.703125 L 3.84375 -6.140625 C 3.484375 -6.109375 2.46875 -6.109375 2.046875 -6.109375 C 1.671875 -6.109375 0.6875 -6.109375 0.375 -6.140625 L 0.375 -5.703125 L 1.34375 -5.703125 L 1.34375 -0.4375 L 0.375 -0.4375 L 0.375 0 L 5.640625 0 Z M 5.921875 -2.46875 "/>
</g>
<g id="glyph-4-18">
<path d="M 5 -1.953125 C 5 -3.125 4.171875 -4.0625 2.65625 -4.0625 C 1.078125 -4.0625 0.296875 -3.078125 0.296875 -1.953125 C 0.296875 -0.84375 1.09375 0.046875 2.640625 0.046875 C 4.25 0.046875 5 -0.890625 5 -1.953125 Z M 2.65625 -0.328125 C 1.484375 -0.328125 1.484375 -1.265625 1.484375 -2.046875 C 1.484375 -2.796875 1.484375 -3.703125 2.640625 -3.703125 C 3.8125 -3.703125 3.8125 -2.796875 3.8125 -2.046875 C 3.8125 -1.28125 3.8125 -0.328125 2.65625 -0.328125 Z M 2.65625 -0.328125 "/>
</g>
<g id="glyph-4-19">
<path d="M 6.8125 -3.34375 C 6.875 -3.484375 6.890625 -3.53125 7.40625 -3.53125 L 7.40625 -3.96875 C 7.15625 -3.953125 6.9375 -3.953125 6.703125 -3.953125 C 6.40625 -3.953125 6.140625 -3.953125 5.84375 -3.96875 L 5.84375 -3.53125 C 5.96875 -3.53125 6.171875 -3.53125 6.34375 -3.453125 C 6.328125 -3.390625 6.328125 -3.375 6.296875 -3.3125 L 5.359375 -1.03125 L 4.3125 -3.53125 L 4.796875 -3.53125 L 4.796875 -3.96875 C 4.375 -3.953125 4.1875 -3.953125 3.796875 -3.953125 C 3.703125 -3.953125 3.265625 -3.953125 2.890625 -3.96875 L 2.890625 -3.53125 L 3.40625 -3.53125 C 3.515625 -3.28125 3.515625 -3.265625 3.578125 -3.125 L 2.796875 -1.25 L 1.828125 -3.53125 L 2.3125 -3.53125 L 2.3125 -3.96875 C 1.71875 -3.953125 1.546875 -3.953125 1.234375 -3.953125 C 1.015625 -3.953125 0.6875 -3.953125 0.234375 -3.96875 L 0.234375 -3.53125 L 0.75 -3.53125 L 2.15625 -0.1875 C 2.25 0.046875 2.390625 0.046875 2.5 0.046875 C 2.734375 0.046875 2.78125 -0.046875 2.84375 -0.203125 L 3.828125 -2.53125 L 4.796875 -0.1875 C 4.890625 0.046875 5.03125 0.046875 5.140625 0.046875 C 5.25 0.046875 5.40625 0.046875 5.5 -0.1875 Z M 6.8125 -3.34375 "/>
</g>
</g>
</defs>
<path fill="none" stroke-width="0.3985" stroke-linecap="butt" stroke-linejoin="miter" stroke="rgb(30.195618%, 29.804993%, 33.332825%)" stroke-opacity="1" stroke-miterlimit="10" d="M -0.000989544 -0.000150468 L 152.081153 -0.000150468 " transform="matrix(0.999152, 0, 0, -0.999152, 52.356457, 187.847506)"/>
<path fill-rule="nonzero" fill="rgb(30.195618%, 29.804993%, 33.332825%)" fill-opacity="1" stroke-width="0.3985" stroke-linecap="butt" stroke-linejoin="miter" stroke="rgb(30.195618%, 29.804993%, 33.332825%)" stroke-opacity="1" stroke-miterlimit="10" d="M 6.350619 -0.000150468 C 5.568706 0.187509 2.143926 1.25482 0.00148301 2.415962 L 0.00148301 -2.416263 C 2.143926 -1.255121 5.568706 -0.18781 6.350619 -0.000150468 Z M 6.350619 -0.000150468 " transform="matrix(0.999152, 0, 0, -0.999152, 204.307112, 187.847506)"/>
<path fill="none" stroke-width="0.3985" stroke-linecap="butt" stroke-linejoin="miter" stroke="rgb(30.195618%, 29.804993%, 33.332825%)" stroke-opacity="1" stroke-miterlimit="10" d="M -0.000989544 -0.000150468 L -0.000989544 152.078083 " transform="matrix(0.999152, 0, 0, -0.999152, 52.356457, 187.847506)"/>
<path fill-rule="nonzero" fill="rgb(30.195618%, 29.804993%, 33.332825%)" fill-opacity="1" stroke-width="0.3985" stroke-linecap="butt" stroke-linejoin="miter" stroke="rgb(30.195618%, 29.804993%, 33.332825%)" stroke-opacity="1" stroke-miterlimit="10" d="M 6.347549 0.000989544 C 5.569545 0.188649 2.140855 1.25596 -0.00158748 2.417102 L -0.00158748 -2.415123 C 2.140855 -1.253981 5.569545 -0.18667 6.347549 0.000989544 Z M 6.347549 0.000989544 " transform="matrix(0, -0.999152, -0.999152, 0, 52.356457, 35.896851)"/>
<path fill-rule="nonzero" fill="rgb(90.000916%, 90.000916%, 90.000916%)" fill-opacity="1" d="M 52.355469 187.847656 L 52.355469 104.101562 L 102.601562 104.101562 L 102.601562 187.847656 Z M 52.355469 187.847656 "/>
<path fill-rule="nonzero" fill="rgb(81.999207%, 85.598755%, 89.199829%)" fill-opacity="1" d="M 52.355469 53.855469 L 63.425781 64.925781 L 64.28125 65.777344 L 73.648438 75.144531 L 74.5 76 L 102.601562 104.101562 L 102.601562 187.847656 L 52.355469 187.847656 Z M 52.355469 53.855469 "/>
<path fill-rule="nonzero" fill="rgb(90.000916%, 90.000916%, 90.000916%)" fill-opacity="1" d="M 52.355469 187.847656 L 52.355469 104.101562 L 102.601562 104.101562 L 102.601562 187.847656 Z M 52.355469 187.847656 "/>
<path fill="none" stroke-width="1.19553" stroke-linecap="butt" stroke-linejoin="miter" stroke="rgb(0%, 19.999695%, 39.99939%)" stroke-opacity="1" stroke-miterlimit="10" d="M -0.000989544 134.105805 L 1.695762 132.409053 L 3.396424 130.712301 L 5.093176 129.011639 L 10.183432 123.921384 L 11.884093 122.224632 L 13.580845 120.52397 L 18.671101 115.433714 L 20.371762 113.736962 L 22.068514 112.036301 L 27.15877 106.946045 L 28.859431 105.249293 L 30.556183 103.548632 L 35.646439 98.458376 L 37.347101 96.761624 L 39.043853 95.060963 L 44.134108 89.970707 L 45.83477 88.273955 L 47.531522 86.573293 L 52.621778 81.483038 L 54.322439 79.786286 L 56.019191 78.085624 L 61.109447 72.995368 L 62.810108 71.298616 L 64.50686 69.597955 L 69.597116 64.507699 L 71.297777 62.810947 L 72.994529 61.110286 L 78.084785 56.02003 L 79.785447 54.323278 L 81.482199 52.622617 L 86.572454 47.532361 L 88.273116 45.835609 L 89.969868 44.134947 L 95.060123 39.044692 L 96.760785 37.34794 L 98.457537 35.647278 L 103.547793 30.557022 L 105.248454 28.860271 L 106.945206 27.159609 L 112.035462 22.069353 L 113.736123 20.372601 L 115.432875 18.675849 L 117.129627 16.975188 L 120.523131 13.581684 L 122.223793 11.884932 L 123.920544 10.18818 L 125.617296 8.487519 L 129.0108 5.094015 L 130.711462 3.397263 L 132.408214 1.700511 L 134.104966 -0.000150468 " transform="matrix(0.999152, 0, 0, -0.999152, 52.356457, 187.847506)"/>
<path fill="none" stroke-width="0.79701" stroke-linecap="butt" stroke-linejoin="miter" stroke="rgb(79.998779%, 79.998779%, 79.998779%)" stroke-opacity="1" stroke-dasharray="2.98883 2.98883" stroke-miterlimit="10" d="M -0.000989544 83.817049 L 50.287766 83.817049 " transform="matrix(0.999152, 0, 0, -0.999152, 52.356457, 187.847506)"/>
<path fill="none" stroke-width="0.79701" stroke-linecap="butt" stroke-linejoin="miter" stroke="rgb(79.998779%, 79.998779%, 79.998779%)" stroke-opacity="1" stroke-dasharray="2.98883 2.98883" stroke-miterlimit="10" d="M 50.287766 -0.000150468 L 50.287766 83.817049 " transform="matrix(0.999152, 0, 0, -0.999152, 52.356457, 187.847506)"/>
<path fill-rule="nonzero" fill="rgb(79.998779%, 0%, 0%)" fill-opacity="1" d="M 104.792969 104.101562 C 104.792969 102.894531 103.8125 101.914062 102.601562 101.914062 C 101.394531 101.914062 100.414062 102.894531 100.414062 104.101562 C 100.414062 105.3125 101.394531 106.292969 102.601562 106.292969 C 103.8125 106.292969 104.792969 105.3125 104.792969 104.101562 Z M 104.792969 104.101562 "/>
<g fill="rgb(30.195618%, 29.804993%, 33.332825%)" fill-opacity="1">
<use xlink:href="#glyph-0-0" x="96.898638" y="197.486322"/>
</g>
<g fill="rgb(30.195618%, 29.804993%, 33.332825%)" fill-opacity="1">
<use xlink:href="#glyph-1-0" x="104.160473" y="198.481477"/>
</g>
<g fill="rgb(30.195618%, 29.804993%, 33.332825%)" fill-opacity="1">
<use xlink:href="#glyph-0-1" x="38.813956" y="106.666434"/>
</g>
<g fill="rgb(30.195618%, 29.804993%, 33.332825%)" fill-opacity="1">
<use xlink:href="#glyph-1-0" x="44.692964" y="107.661589"/>
</g>
<g fill="rgb(0%, 19.999695%, 39.99939%)" fill-opacity="1">
<use xlink:href="#glyph-2-0" x="9.449888" y="67.868376"/>
<use xlink:href="#glyph-2-1" x="15.439115" y="67.868376"/>
<use xlink:href="#glyph-2-2" x="20.139874" y="67.868376"/>
</g>
<g fill="rgb(0%, 19.999695%, 39.99939%)" fill-opacity="1">
<use xlink:href="#glyph-2-3" x="24.366814" y="67.868376"/>
<use xlink:href="#glyph-2-4" x="28.127102" y="67.868376"/>
<use xlink:href="#glyph-2-5" x="31.424721" y="67.868376"/>
<use xlink:href="#glyph-2-6" x="33.774702" y="67.868376"/>
</g>
<g fill="rgb(0%, 19.999695%, 39.99939%)" fill-opacity="1">
<use xlink:href="#glyph-2-7" x="9.327991" y="77.325346"/>
<use xlink:href="#glyph-2-1" x="14.02875" y="77.325346"/>
<use xlink:href="#glyph-2-4" x="18.729509" y="77.325346"/>
<use xlink:href="#glyph-2-8" x="22.027127" y="77.325346"/>
<use xlink:href="#glyph-2-9" x="26.727886" y="77.325346"/>
<use xlink:href="#glyph-2-1" x="29.077867" y="77.325346"/>
<use xlink:href="#glyph-2-6" x="33.778626" y="77.325346"/>
</g>
<path fill="none" stroke-width="0.3985" stroke-linecap="butt" stroke-linejoin="miter" stroke="rgb(0%, 19.999695%, 39.99939%)" stroke-opacity="1" stroke-miterlimit="10" d="M -11.733599 112.31388 L 1.867783 110.046332 " transform="matrix(0.999152, 0, 0, -0.999152, 52.356457, 187.847506)"/>
<path fill-rule="nonzero" fill="rgb(0%, 19.999695%, 39.99939%)" fill-opacity="1" stroke-width="0.3985" stroke-linecap="butt" stroke-linejoin="miter" stroke="rgb(0%, 19.999695%, 39.99939%)" stroke-opacity="1" stroke-miterlimit="10" d="M 5.78294 0.000401963 C 5.072686 0.171384 1.949501 1.145204 0.00129056 2.203857 L -0.00132398 -2.204225 C 1.950764 -1.14561 5.070755 -0.17378 5.78294 0.000401963 Z M 5.78294 0.000401963 " transform="matrix(0.985503, 0.164241, 0.164241, -0.985503, 54.222703, 77.894353)"/>
<g fill="rgb(30.195618%, 29.804993%, 33.332825%)" fill-opacity="1">
<use xlink:href="#glyph-2-10" x="64.2014" y="144.011725"/>
<use xlink:href="#glyph-2-11" x="71.948933" y="144.011725"/>
<use xlink:href="#glyph-2-4" x="76.179854" y="144.011725"/>
<use xlink:href="#glyph-2-12" x="79.477473" y="144.011725"/>
</g>
<g fill="rgb(30.195618%, 29.804993%, 33.332825%)" fill-opacity="1">
<use xlink:href="#glyph-2-3" x="83.704413" y="144.011725"/>
<use xlink:href="#glyph-2-13" x="87.464702" y="144.011725"/>
</g>
<g fill="rgb(30.195618%, 29.804993%, 33.332825%)" fill-opacity="1">
<use xlink:href="#glyph-2-14" x="67.142903" y="153.468696"/>
</g>
<g fill="rgb(30.195618%, 29.804993%, 33.332825%)" fill-opacity="1">
<use xlink:href="#glyph-2-11" x="72.771391" y="153.468696"/>
<use xlink:href="#glyph-2-9" x="77.002312" y="153.468696"/>
<use xlink:href="#glyph-2-1" x="79.352294" y="153.468696"/>
<use xlink:href="#glyph-2-3" x="84.053052" y="153.468696"/>
</g>
<g fill="rgb(30.195618%, 29.804993%, 33.332825%)" fill-opacity="1">
<use xlink:href="#glyph-0-0" x="128.282991" y="199.609519"/>
</g>
<g fill="rgb(30.195618%, 29.804993%, 33.332825%)" fill-opacity="1">
<use xlink:href="#glyph-3-0" x="46.716246" y="111.869016"/>
</g>
<g fill="rgb(30.195618%, 29.804993%, 33.332825%)" fill-opacity="1">
<use xlink:href="#glyph-4-0" x="71.933835" y="15.51183"/>
<use xlink:href="#glyph-4-1" x="77.823346" y="15.51183"/>
<use xlink:href="#glyph-4-2" x="86.657612" y="15.51183"/>
<use xlink:href="#glyph-4-3" x="91.81071" y="15.51183"/>
<use xlink:href="#glyph-4-3" x="94.755465" y="15.51183"/>
</g>
<g fill="rgb(30.195618%, 29.804993%, 33.332825%)" fill-opacity="1">
<use xlink:href="#glyph-4-4" x="101.229985" y="15.51183"/>
<use xlink:href="#glyph-4-5" x="106.824752" y="15.51183"/>
<use xlink:href="#glyph-4-2" x="112.714263" y="15.51183"/>
<use xlink:href="#glyph-4-6" x="117.867361" y="15.51183"/>
</g>
<g fill="rgb(30.195618%, 29.804993%, 33.332825%)" fill-opacity="1">
<use xlink:href="#glyph-4-7" x="123.47019" y="15.51183"/>
<use xlink:href="#glyph-4-8" x="127.593027" y="15.51183"/>
<use xlink:href="#glyph-4-7" x="130.537782" y="15.51183"/>
</g>
<g fill="rgb(30.195618%, 29.804993%, 33.332825%)" fill-opacity="1">
<use xlink:href="#glyph-4-9" x="134.364979" y="15.51183"/>
</g>
<g fill="rgb(30.195618%, 29.804993%, 33.332825%)" fill-opacity="1">
<use xlink:href="#glyph-4-10" x="139.072825" y="15.51183"/>
</g>
<g fill="rgb(30.195618%, 29.804993%, 33.332825%)" fill-opacity="1">
<use xlink:href="#glyph-4-11" x="145.556304" y="15.51183"/>
<use xlink:href="#glyph-4-8" x="151.445814" y="15.51183"/>
<use xlink:href="#glyph-4-12" x="154.39057" y="15.51183"/>
<use xlink:href="#glyph-4-11" x="159.691488" y="15.51183"/>
</g>
<g fill="rgb(30.195618%, 29.804993%, 33.332825%)" fill-opacity="1">
<use xlink:href="#glyph-4-13" x="169.110763" y="15.51183"/>
<use xlink:href="#glyph-4-14" x="175.000274" y="15.51183"/>
<use xlink:href="#glyph-4-8" x="179.373061" y="15.51183"/>
<use xlink:href="#glyph-4-15" x="182.317817" y="15.51183"/>
<use xlink:href="#glyph-4-16" x="187.029246" y="15.51183"/>
</g>
<path fill="none" stroke-width="0.3985" stroke-linecap="butt" stroke-linejoin="miter" stroke="rgb(30.195618%, 29.804993%, 33.332825%)" stroke-opacity="1" stroke-miterlimit="10" d="M -0.0006003 -0.000150468 L 152.081542 -0.000150468 " transform="matrix(0.999152, 0, 0, -0.999152, 251.121694, 187.847506)"/>
<path fill-rule="nonzero" fill="rgb(30.195618%, 29.804993%, 33.332825%)" fill-opacity="1" stroke-width="0.3985" stroke-linecap="butt" stroke-linejoin="miter" stroke="rgb(30.195618%, 29.804993%, 33.332825%)" stroke-opacity="1" stroke-miterlimit="10" d="M 6.351008 -0.000150468 C 5.569095 0.187509 2.140405 1.25482 0.00187225 2.415962 L 0.00187225 -2.416263 C 2.140405 -1.255121 5.569095 -0.18781 6.351008 -0.000150468 Z M 6.351008 -0.000150468 " transform="matrix(0.999152, 0, 0, -0.999152, 403.072348, 187.847506)"/>
<path fill="none" stroke-width="0.3985" stroke-linecap="butt" stroke-linejoin="miter" stroke="rgb(30.195618%, 29.804993%, 33.332825%)" stroke-opacity="1" stroke-miterlimit="10" d="M -0.0006003 -0.000150468 L -0.0006003 152.078083 " transform="matrix(0.999152, 0, 0, -0.999152, 251.121694, 187.847506)"/>
<path fill-rule="nonzero" fill="rgb(30.195618%, 29.804993%, 33.332825%)" fill-opacity="1" stroke-width="0.3985" stroke-linecap="butt" stroke-linejoin="miter" stroke="rgb(30.195618%, 29.804993%, 33.332825%)" stroke-opacity="1" stroke-miterlimit="10" d="M 6.347549 0.0006003 C 5.569545 0.188259 2.140855 1.255571 -0.00158748 2.416712 L -0.00158748 -2.415512 C 2.140855 -1.254371 5.569545 -0.187059 6.347549 0.0006003 Z M 6.347549 0.0006003 " transform="matrix(0, -0.999152, -0.999152, 0, 251.121694, 35.896851)"/>
<path fill-rule="nonzero" fill="rgb(90.000916%, 90.000916%, 90.000916%)" fill-opacity="1" d="M 251.121094 187.847656 L 251.121094 154.347656 L 351.617188 154.347656 L 351.617188 187.847656 Z M 251.121094 187.847656 "/>
<path fill-rule="nonzero" fill="rgb(81.999207%, 85.598755%, 89.199829%)" fill-opacity="1" d="M 251.121094 53.855469 L 266.449219 69.183594 L 268.15625 70.886719 L 271.5625 74.292969 L 273.265625 76 L 310.734375 113.46875 L 312.441406 115.171875 L 317.550781 120.28125 L 319.253906 121.988281 L 351.613281 154.347656 L 351.613281 187.847656 L 251.121094 187.847656 Z M 251.121094 53.855469 "/>
<path fill-rule="nonzero" fill="rgb(90.000916%, 90.000916%, 90.000916%)" fill-opacity="1" d="M 251.121094 187.847656 L 251.121094 154.347656 L 351.617188 154.347656 L 351.617188 187.847656 Z M 251.121094 187.847656 "/>
<path fill="none" stroke-width="1.19553" stroke-linecap="butt" stroke-linejoin="miter" stroke="rgb(0%, 19.999695%, 39.99939%)" stroke-opacity="1" stroke-miterlimit="10" d="M -0.0006003 134.105805 L 1.696152 132.409053 L 3.396813 130.712301 L 5.093565 129.011639 L 10.183821 123.921384 L 11.884482 122.224632 L 13.581234 120.52397 L 18.67149 115.433714 L 20.372151 113.736962 L 22.068903 112.036301 L 27.159159 106.946045 L 28.859821 105.249293 L 30.556573 103.548632 L 35.646828 98.458376 L 37.34749 96.761624 L 39.044242 95.060963 L 113.732603 20.372601 L 115.433265 18.675849 L 117.130016 16.975188 L 122.220272 11.884932 L 123.920934 10.18818 L 125.617686 8.487519 L 130.707941 3.397263 L 132.408603 1.700511 L 134.105355 -0.000150468 " transform="matrix(0.999152, 0, 0, -0.999152, 251.121694, 187.847506)"/>
<path fill="none" stroke-width="0.79701" stroke-linecap="butt" stroke-linejoin="miter" stroke="rgb(79.998779%, 79.998779%, 79.998779%)" stroke-opacity="1" stroke-dasharray="2.98883 2.98883" stroke-miterlimit="10" d="M -0.0006003 33.528293 L 100.580821 33.528293 " transform="matrix(0.999152, 0, 0, -0.999152, 251.121694, 187.847506)"/>
<path fill="none" stroke-width="0.79701" stroke-linecap="butt" stroke-linejoin="miter" stroke="rgb(79.998779%, 79.998779%, 79.998779%)" stroke-opacity="1" stroke-dasharray="2.98883 2.98883" stroke-miterlimit="10" d="M 100.580821 -0.000150468 L 100.580821 33.528293 " transform="matrix(0.999152, 0, 0, -0.999152, 251.121694, 187.847506)"/>
<path fill-rule="nonzero" fill="rgb(79.998779%, 0%, 0%)" fill-opacity="1" d="M 353.804688 154.347656 C 353.804688 153.140625 352.824219 152.160156 351.617188 152.160156 C 350.40625 152.160156 349.425781 153.140625 349.425781 154.347656 C 349.425781 155.558594 350.40625 156.539062 351.617188 156.539062 C 352.824219 156.539062 353.804688 155.558594 353.804688 154.347656 Z M 353.804688 154.347656 "/>
<g fill="rgb(30.195618%, 29.804993%, 33.332825%)" fill-opacity="1">
<use xlink:href="#glyph-0-0" x="345.909213" y="197.486322"/>
</g>
<g fill="rgb(30.195618%, 29.804993%, 33.332825%)" fill-opacity="1">
<use xlink:href="#glyph-1-1" x="353.171047" y="198.481477"/>
</g>
<g fill="rgb(30.195618%, 29.804993%, 33.332825%)" fill-opacity="1">
<use xlink:href="#glyph-0-1" x="237.578193" y="156.912771"/>
</g>
<g fill="rgb(30.195618%, 29.804993%, 33.332825%)" fill-opacity="1">
<use xlink:href="#glyph-1-1" x="243.457201" y="157.907926"/>
</g>
<g fill="rgb(0%, 19.999695%, 39.99939%)" fill-opacity="1">
<use xlink:href="#glyph-2-0" x="259.662442" y="114.468809"/>
<use xlink:href="#glyph-2-1" x="265.651669" y="114.468809"/>
<use xlink:href="#glyph-2-2" x="270.352428" y="114.468809"/>
</g>
<g fill="rgb(0%, 19.999695%, 39.99939%)" fill-opacity="1">
<use xlink:href="#glyph-2-3" x="274.579368" y="114.468809"/>
</g>
<g fill="rgb(0%, 19.999695%, 39.99939%)" fill-opacity="1">
<use xlink:href="#glyph-2-4" x="278.34762" y="114.468809"/>
</g>
<g fill="rgb(0%, 19.999695%, 39.99939%)" fill-opacity="1">
<use xlink:href="#glyph-2-5" x="281.637275" y="114.468809"/>
</g>
<g fill="rgb(0%, 19.999695%, 39.99939%)" fill-opacity="1">
<use xlink:href="#glyph-2-6" x="283.995219" y="114.468809"/>
</g>
<g fill="rgb(0%, 19.999695%, 39.99939%)" fill-opacity="1">
<use xlink:href="#glyph-2-7" x="259.662442" y="124.518276"/>
<use xlink:href="#glyph-2-1" x="264.363201" y="124.518276"/>
<use xlink:href="#glyph-2-4" x="269.06396" y="124.518276"/>
<use xlink:href="#glyph-2-8" x="272.361578" y="124.518276"/>
<use xlink:href="#glyph-2-9" x="277.062337" y="124.518276"/>
<use xlink:href="#glyph-2-1" x="279.412318" y="124.518276"/>
<use xlink:href="#glyph-2-6" x="284.113077" y="124.518276"/>
</g>
<path fill="none" stroke-width="0.3985" stroke-linecap="butt" stroke-linejoin="miter" stroke="rgb(0%, 19.999695%, 39.99939%)" stroke-opacity="1" stroke-miterlimit="10" d="M 25.145732 70.407235 L 37.883101 86.96425 " transform="matrix(0.999152, 0, 0, -0.999152, 251.121694, 187.847506)"/>
<path fill-rule="nonzero" fill="rgb(0%, 19.999695%, 39.99939%)" fill-opacity="1" stroke-width="0.3985" stroke-linecap="butt" stroke-linejoin="miter" stroke="rgb(0%, 19.999695%, 39.99939%)" stroke-opacity="1" stroke-miterlimit="10" d="M 5.781227 0.00103251 C 5.072996 0.171478 1.951873 1.144562 0.00191682 2.204651 L 0.000947157 -2.205881 C 1.951626 -1.144376 5.070135 -0.171076 5.781227 0.00103251 Z M 5.781227 0.00103251 " transform="matrix(0.609163, -0.791918, -0.791918, -0.609163, 288.971297, 100.957791)"/>
<g fill="rgb(30.195618%, 29.804993%, 33.332825%)" fill-opacity="1">
<use xlink:href="#glyph-2-10" x="288.089306" y="169.135394"/>
<use xlink:href="#glyph-2-11" x="295.836838" y="169.135394"/>
<use xlink:href="#glyph-2-4" x="300.06776" y="169.135394"/>
<use xlink:href="#glyph-2-12" x="303.365378" y="169.135394"/>
</g>
<g fill="rgb(30.195618%, 29.804993%, 33.332825%)" fill-opacity="1">
<use xlink:href="#glyph-2-3" x="307.592318" y="169.135394"/>
<use xlink:href="#glyph-2-13" x="311.352607" y="169.135394"/>
</g>
<g fill="rgb(30.195618%, 29.804993%, 33.332825%)" fill-opacity="1">
<use xlink:href="#glyph-2-14" x="291.030808" y="178.591365"/>
</g>
<g fill="rgb(30.195618%, 29.804993%, 33.332825%)" fill-opacity="1">
<use xlink:href="#glyph-2-11" x="296.659296" y="178.591365"/>
<use xlink:href="#glyph-2-9" x="300.890218" y="178.591365"/>
<use xlink:href="#glyph-2-1" x="303.240199" y="178.591365"/>
<use xlink:href="#glyph-2-3" x="307.940958" y="178.591365"/>
</g>
<g fill="rgb(30.195618%, 29.804993%, 33.332825%)" fill-opacity="1">
<use xlink:href="#glyph-0-0" x="327.047228" y="199.609519"/>
</g>
<g fill="rgb(30.195618%, 29.804993%, 33.332825%)" fill-opacity="1">
<use xlink:href="#glyph-3-0" x="245.480483" y="111.869016"/>
</g>
<g fill="rgb(30.195618%, 29.804993%, 33.332825%)" fill-opacity="1">
<use xlink:href="#glyph-4-17" x="272.760321" y="15.51183"/>
<use xlink:href="#glyph-4-2" x="279.128231" y="15.51183"/>
<use xlink:href="#glyph-4-14" x="284.281329" y="15.51183"/>
<use xlink:href="#glyph-4-12" x="288.654116" y="15.51183"/>
<use xlink:href="#glyph-4-16" x="293.955035" y="15.51183"/>
</g>
<g fill="rgb(30.195618%, 29.804993%, 33.332825%)" fill-opacity="1">
<use xlink:href="#glyph-4-4" x="302.349424" y="15.51183"/>
<use xlink:href="#glyph-4-5" x="307.94419" y="15.51183"/>
<use xlink:href="#glyph-4-2" x="313.833701" y="15.51183"/>
<use xlink:href="#glyph-4-6" x="318.986799" y="15.51183"/>
</g>
<g fill="rgb(30.195618%, 29.804993%, 33.332825%)" fill-opacity="1">
<use xlink:href="#glyph-4-7" x="324.589629" y="15.51183"/>
<use xlink:href="#glyph-4-8" x="328.712465" y="15.51183"/>
<use xlink:href="#glyph-4-7" x="331.657221" y="15.51183"/>
</g>
<g fill="rgb(30.195618%, 29.804993%, 33.332825%)" fill-opacity="1">
<use xlink:href="#glyph-4-9" x="335.484417" y="15.51183"/>
</g>
<g fill="rgb(30.195618%, 29.804993%, 33.332825%)" fill-opacity="1">
<use xlink:href="#glyph-4-10" x="340.192263" y="15.51183"/>
</g>
<g fill="rgb(30.195618%, 29.804993%, 33.332825%)" fill-opacity="1">
<use xlink:href="#glyph-4-3" x="346.675742" y="15.51183"/>
<use xlink:href="#glyph-4-18" x="349.620498" y="15.51183"/>
</g>
<g fill="rgb(30.195618%, 29.804993%, 33.332825%)" fill-opacity="1">
<use xlink:href="#glyph-4-19" x="354.625775" y="15.51183"/>
</g>
<g fill="rgb(30.195618%, 29.804993%, 33.332825%)" fill-opacity="1">
<use xlink:href="#glyph-4-13" x="365.811725" y="15.51183"/>
<use xlink:href="#glyph-4-14" x="371.701236" y="15.51183"/>
<use xlink:href="#glyph-4-8" x="376.074023" y="15.51183"/>
<use xlink:href="#glyph-4-15" x="379.018778" y="15.51183"/>
<use xlink:href="#glyph-4-16" x="383.730208" y="15.51183"/>
</g>
</svg>
