<?xml version="1.0" encoding="UTF-8"?>
<svg xmlns="http://www.w3.org/2000/svg" xmlns:xlink="http://www.w3.org/1999/xlink" width="335.115pt" height="296.285pt" viewBox="0 0 335.115 296.285">
<defs>
<g>
<g id="glyph-0-0">
<path d="M 3.078125 -4.8125 C 3.15625 -5.078125 3.171875 -5.171875 3.90625 -5.171875 C 4.125 -5.171875 4.203125 -5.171875 4.203125 -5.328125 C 4.203125 -5.34375 4.1875 -5.4375 4.078125 -5.4375 C 3.90625 -5.4375 3.671875 -5.421875 3.5 -5.40625 L 2.921875 -5.40625 C 2.09375 -5.40625 1.90625 -5.4375 1.859375 -5.4375 C 1.828125 -5.4375 1.6875 -5.4375 1.6875 -5.28125 C 1.6875 -5.171875 1.796875 -5.171875 1.921875 -5.171875 C 2.1875 -5.171875 2.421875 -5.171875 2.421875 -5.046875 C 2.421875 -5.015625 2.40625 -5 2.390625 -4.90625 L 1.3125 -0.625 C 1.25 -0.328125 1.234375 -0.265625 0.640625 -0.265625 C 0.5 -0.265625 0.390625 -0.265625 0.390625 -0.109375 C 0.390625 0 0.5 0 0.640625 0 L 4.484375 0 C 4.671875 0 4.6875 -0.015625 4.75 -0.15625 C 4.828125 -0.375 5.40625 -1.875 5.40625 -1.953125 C 5.40625 -2.03125 5.34375 -2.0625 5.28125 -2.0625 C 5.203125 -2.0625 5.1875 -2.015625 5.125 -1.890625 C 4.84375 -1.15625 4.5 -0.265625 3.078125 -0.265625 L 2.0625 -0.265625 C 2 -0.28125 1.96875 -0.28125 1.96875 -0.328125 C 1.96875 -0.390625 1.984375 -0.46875 2 -0.515625 Z M 3.078125 -4.8125 "/>
</g>
<g id="glyph-0-1">
<path d="M 7.765625 -4.484375 C 8.125 -5.078125 8.40625 -5.140625 8.65625 -5.171875 C 8.734375 -5.171875 8.828125 -5.1875 8.828125 -5.328125 C 8.828125 -5.375 8.78125 -5.4375 8.71875 -5.4375 C 8.578125 -5.4375 8.703125 -5.40625 8.078125 -5.40625 C 7.5625 -5.40625 7.328125 -5.4375 7.28125 -5.4375 C 7.15625 -5.4375 7.140625 -5.34375 7.140625 -5.28125 C 7.140625 -5.171875 7.25 -5.171875 7.265625 -5.171875 C 7.484375 -5.15625 7.6875 -5.078125 7.6875 -4.890625 C 7.6875 -4.78125 7.609375 -4.640625 7.578125 -4.578125 L 5.375 -0.875 L 5 -4.828125 C 4.984375 -4.84375 4.984375 -4.90625 4.984375 -4.921875 C 4.984375 -5.046875 5.125 -5.171875 5.515625 -5.171875 C 5.640625 -5.171875 5.734375 -5.171875 5.734375 -5.328125 C 5.734375 -5.390625 5.6875 -5.4375 5.609375 -5.4375 C 5.53125 -5.4375 5.234375 -5.421875 5.15625 -5.40625 L 4.671875 -5.40625 C 3.96875 -5.40625 3.875 -5.4375 3.8125 -5.4375 C 3.78125 -5.4375 3.65625 -5.4375 3.65625 -5.28125 C 3.65625 -5.171875 3.765625 -5.171875 3.875 -5.171875 C 4.21875 -5.171875 4.234375 -5.109375 4.25 -5 C 4.25 -4.984375 4.296875 -4.515625 4.296875 -4.5 C 4.296875 -4.46875 4.296875 -4.4375 4.25 -4.34375 L 2.171875 -0.875 L 1.8125 -4.78125 C 1.8125 -4.828125 1.796875 -4.890625 1.796875 -4.9375 C 1.796875 -5 1.859375 -5.171875 2.34375 -5.171875 C 2.4375 -5.171875 2.546875 -5.171875 2.546875 -5.328125 C 2.546875 -5.390625 2.484375 -5.4375 2.421875 -5.4375 C 2.34375 -5.4375 2.046875 -5.421875 1.96875 -5.40625 L 1.484375 -5.40625 C 0.75 -5.40625 0.71875 -5.4375 0.625 -5.4375 C 0.5 -5.4375 0.484375 -5.34375 0.484375 -5.28125 C 0.484375 -5.171875 0.59375 -5.171875 0.671875 -5.171875 C 1.046875 -5.171875 1.0625 -5.109375 1.078125 -4.921875 L 1.53125 -0.0625 C 1.546875 0.09375 1.5625 0.171875 1.6875 0.171875 C 1.75 0.171875 1.84375 0.140625 1.921875 0 L 4.34375 -4.078125 L 4.71875 -0.0625 C 4.734375 0.09375 4.75 0.171875 4.875 0.171875 C 5.015625 0.171875 5.0625 0.078125 5.109375 0 Z M 7.765625 -4.484375 "/>
</g>
<g id="glyph-1-0">
<path d="M 3.28125 -1.90625 C 3.28125 -2.34375 3.28125 -3.96875 1.828125 -3.96875 C 0.359375 -3.96875 0.359375 -2.34375 0.359375 -1.90625 C 0.359375 -1.46875 0.359375 0.125 1.828125 0.125 C 3.28125 0.125 3.28125 -1.46875 3.28125 -1.90625 Z M 1.828125 -0.0625 C 1.5625 -0.0625 1.15625 -0.1875 1.015625 -0.6875 C 0.921875 -1.03125 0.921875 -1.609375 0.921875 -1.984375 C 0.921875 -2.375 0.921875 -2.84375 1.015625 -3.15625 C 1.15625 -3.703125 1.609375 -3.78125 1.828125 -3.78125 C 2.09375 -3.78125 2.484375 -3.640625 2.625 -3.1875 C 2.703125 -2.875 2.71875 -2.4375 2.71875 -1.984375 C 2.71875 -1.59375 2.71875 -1 2.609375 -0.65625 C 2.453125 -0.140625 2.015625 -0.0625 1.828125 -0.0625 Z M 1.828125 -0.0625 "/>
</g>
<g id="glyph-2-0">
<path d="M 2.59375 -3.59375 C 2.640625 -3.78125 2.65625 -3.84375 3.265625 -3.84375 C 3.40625 -3.84375 3.46875 -3.84375 3.46875 -3.984375 C 3.46875 -4 3.46875 -4.078125 3.375 -4.078125 C 3.234375 -4.078125 3.078125 -4.0625 2.9375 -4.0625 C 2.765625 -4.0625 2.59375 -4.046875 2.4375 -4.046875 C 2.296875 -4.046875 2.15625 -4.0625 2.015625 -4.0625 C 1.890625 -4.0625 1.734375 -4.078125 1.59375 -4.078125 C 1.5625 -4.078125 1.46875 -4.078125 1.46875 -3.921875 C 1.46875 -3.84375 1.546875 -3.84375 1.65625 -3.84375 C 1.765625 -3.84375 1.90625 -3.84375 2.03125 -3.796875 C 2.03125 -3.734375 2.03125 -3.703125 2.015625 -3.609375 L 1.234375 -0.5 C 1.171875 -0.28125 1.15625 -0.234375 0.71875 -0.234375 C 0.578125 -0.234375 0.5 -0.234375 0.5 -0.09375 C 0.5 0 0.578125 0 0.6875 0 L 3.84375 0 C 4 0 4.015625 0 4.046875 -0.125 C 4.109375 -0.265625 4.578125 -1.46875 4.578125 -1.5 C 4.578125 -1.5625 4.53125 -1.59375 4.46875 -1.59375 C 4.390625 -1.59375 4.375 -1.546875 4.34375 -1.484375 C 4.078125 -0.8125 3.765625 -0.234375 2.703125 -0.234375 L 1.96875 -0.234375 C 1.84375 -0.234375 1.84375 -0.234375 1.765625 -0.25 Z M 2.59375 -3.59375 "/>
</g>
<g id="glyph-2-1">
<path d="M 5.296875 -3.59375 C 5.34375 -3.796875 5.359375 -3.84375 5.828125 -3.84375 C 5.9375 -3.84375 6.015625 -3.84375 6.015625 -3.984375 C 6.015625 -4.046875 5.984375 -4.078125 5.921875 -4.078125 C 5.796875 -4.078125 5.65625 -4.0625 5.515625 -4.0625 C 5.390625 -4.0625 5.25 -4.046875 5.125 -4.046875 C 4.984375 -4.046875 4.84375 -4.0625 4.703125 -4.0625 C 4.578125 -4.0625 4.421875 -4.078125 4.296875 -4.078125 C 4.265625 -4.078125 4.15625 -4.078125 4.15625 -3.921875 C 4.15625 -3.84375 4.25 -3.84375 4.359375 -3.84375 C 4.46875 -3.84375 4.609375 -3.84375 4.734375 -3.796875 C 4.734375 -3.734375 4.734375 -3.703125 4.71875 -3.609375 L 4.375 -2.234375 L 2.25 -2.234375 L 2.59375 -3.59375 C 2.640625 -3.796875 2.65625 -3.84375 3.140625 -3.84375 C 3.234375 -3.84375 3.328125 -3.84375 3.328125 -3.984375 C 3.328125 -4.046875 3.28125 -4.078125 3.21875 -4.078125 C 3.09375 -4.078125 2.953125 -4.0625 2.828125 -4.0625 C 2.6875 -4.0625 2.546875 -4.046875 2.421875 -4.046875 C 2.28125 -4.046875 2.15625 -4.0625 2.015625 -4.0625 C 1.875 -4.0625 1.734375 -4.078125 1.59375 -4.078125 C 1.5625 -4.078125 1.46875 -4.078125 1.46875 -3.921875 C 1.46875 -3.84375 1.546875 -3.84375 1.65625 -3.84375 C 1.765625 -3.84375 1.921875 -3.84375 2.046875 -3.796875 C 2.046875 -3.734375 2.046875 -3.703125 2.015625 -3.609375 L 1.234375 -0.5 C 1.1875 -0.28125 1.171875 -0.234375 0.71875 -0.234375 C 0.59375 -0.234375 0.578125 -0.234375 0.5625 -0.21875 C 0.53125 -0.203125 0.5 -0.125 0.5 -0.078125 C 0.5 -0.0625 0.515625 0 0.609375 0 C 0.734375 0 0.875 -0.015625 1.015625 -0.015625 C 1.140625 -0.015625 1.28125 -0.03125 1.40625 -0.03125 C 1.546875 -0.03125 1.6875 -0.015625 1.828125 -0.015625 C 1.953125 -0.015625 2.09375 0 2.234375 0 C 2.265625 0 2.3125 0 2.328125 -0.046875 C 2.34375 -0.0625 2.375 -0.125 2.375 -0.15625 C 2.359375 -0.234375 2.296875 -0.234375 2.15625 -0.234375 C 2.09375 -0.234375 2 -0.25 1.9375 -0.25 C 1.828125 -0.265625 1.78125 -0.265625 1.78125 -0.328125 C 1.78125 -0.359375 1.796875 -0.375 1.8125 -0.4375 L 2.203125 -2 L 4.3125 -2 L 3.90625 -0.390625 C 3.859375 -0.28125 3.84375 -0.25 3.390625 -0.234375 C 3.28125 -0.234375 3.265625 -0.234375 3.25 -0.21875 C 3.21875 -0.1875 3.203125 -0.109375 3.203125 -0.078125 C 3.203125 -0.0625 3.21875 0 3.3125 0 C 3.4375 0 3.578125 -0.015625 3.703125 -0.015625 C 3.84375 -0.015625 3.96875 -0.03125 4.109375 -0.03125 C 4.25 -0.03125 4.375 -0.015625 4.515625 -0.015625 C 4.65625 -0.015625 4.796875 0 4.9375 0 C 4.96875 0 5.015625 0 5.03125 -0.046875 C 5.046875 -0.0625 5.0625 -0.125 5.0625 -0.15625 C 5.046875 -0.234375 5 -0.234375 4.859375 -0.234375 C 4.78125 -0.234375 4.703125 -0.25 4.625 -0.25 C 4.53125 -0.265625 4.484375 -0.265625 4.484375 -0.328125 C 4.484375 -0.359375 4.484375 -0.375 4.5 -0.4375 Z M 5.296875 -3.59375 "/>
</g>
<g id="glyph-3-0">
<path d="M 5.84375 -6.0625 C 5.875 -6.15625 5.875 -6.171875 5.875 -6.203125 C 5.875 -6.21875 5.859375 -6.296875 5.765625 -6.296875 C 5.71875 -6.296875 5.71875 -6.296875 5.609375 -6.171875 C 5.484375 -6.03125 5.59375 -6.15625 5.171875 -5.671875 C 4.84375 -6.171875 4.328125 -6.296875 3.859375 -6.296875 C 2.703125 -6.296875 1.609375 -5.265625 1.609375 -4.203125 C 1.609375 -3.828125 1.71875 -3.53125 1.953125 -3.28125 C 2.21875 -3.015625 2.4375 -2.953125 3.078125 -2.78125 L 3.828125 -2.59375 C 4.125 -2.5 4.421875 -2.21875 4.421875 -1.71875 C 4.421875 -0.921875 3.65625 -0.078125 2.765625 -0.078125 C 2.234375 -0.078125 1.171875 -0.234375 1.171875 -1.390625 C 1.171875 -1.46875 1.171875 -1.59375 1.21875 -1.875 C 1.25 -1.90625 1.25 -1.921875 1.25 -1.9375 C 1.25 -1.96875 1.21875 -2.03125 1.125 -2.03125 C 1.015625 -2.03125 1 -1.984375 0.96875 -1.828125 L 0.484375 0.09375 C 0.484375 0.15625 0.53125 0.203125 0.59375 0.203125 C 0.640625 0.203125 0.65625 0.1875 0.765625 0.0625 C 0.828125 0 1.078125 -0.328125 1.1875 -0.4375 C 1.65625 0.15625 2.46875 0.203125 2.75 0.203125 C 3.984375 0.203125 5.046875 -0.953125 5.046875 -2.078125 C 5.046875 -3.1875 4.171875 -3.421875 3.890625 -3.484375 L 3.078125 -3.6875 C 2.78125 -3.765625 2.25 -3.90625 2.25 -4.578125 C 2.25 -5.265625 2.953125 -6.046875 3.859375 -6.046875 C 4.203125 -6.046875 4.5625 -5.953125 4.8125 -5.703125 C 5.140625 -5.375 5.15625 -4.890625 5.15625 -4.65625 C 5.15625 -4.359375 5.125 -4.265625 5.125 -4.1875 C 5.125 -4.125 5.15625 -4.078125 5.25 -4.078125 C 5.34375 -4.078125 5.34375 -4.09375 5.390625 -4.265625 Z M 5.84375 -6.0625 "/>
</g>
<g id="glyph-3-1">
<path d="M 1.4375 -0.671875 C 1.359375 -0.359375 1.34375 -0.28125 0.671875 -0.28125 C 0.5 -0.28125 0.40625 -0.28125 0.40625 -0.109375 C 0.40625 0 0.484375 0 0.65625 0 L 3.671875 0 C 5.578125 0 7.359375 -1.890625 7.359375 -3.828125 C 7.359375 -5.046875 6.59375 -6.109375 5.1875 -6.109375 L 2.125 -6.109375 C 1.96875 -6.109375 1.859375 -6.109375 1.859375 -5.9375 C 1.859375 -5.828125 1.9375 -5.828125 2.125 -5.828125 C 2.15625 -5.828125 2.328125 -5.828125 2.46875 -5.8125 C 2.625 -5.796875 2.6875 -5.78125 2.6875 -5.671875 C 2.6875 -5.625 2.671875 -5.59375 2.640625 -5.5 Z M 3.40625 -5.484375 C 3.484375 -5.796875 3.5 -5.828125 3.875 -5.828125 L 4.890625 -5.828125 C 5.8125 -5.828125 6.5625 -5.3125 6.5625 -4.15625 C 6.5625 -3.640625 6.34375 -2.203125 5.640625 -1.328125 C 5.234375 -0.8125 4.484375 -0.28125 3.5 -0.28125 L 2.4375 -0.28125 C 2.3125 -0.28125 2.28125 -0.28125 2.25 -0.28125 C 2.15625 -0.296875 2.140625 -0.296875 2.140625 -0.359375 C 2.140625 -0.390625 2.140625 -0.40625 2.1875 -0.578125 Z M 3.40625 -5.484375 "/>
</g>
<g id="glyph-4-0">
<path d="M 4.921875 -5.40625 L 0.34375 -5.40625 L 0.34375 -5.140625 L 0.53125 -5.140625 C 1.140625 -5.140625 1.15625 -5.0625 1.15625 -4.765625 L 1.15625 -0.640625 C 1.15625 -0.34375 1.140625 -0.265625 0.53125 -0.265625 L 0.34375 -0.265625 L 0.34375 0 C 1.03125 -0.03125 1.046875 -0.03125 1.578125 -0.03125 C 1.953125 -0.03125 2.53125 -0.03125 2.890625 0 L 2.890625 -0.265625 L 2.625 -0.265625 C 1.890625 -0.265625 1.890625 -0.375 1.890625 -0.65625 L 1.890625 -2.578125 L 2.625 -2.578125 C 3.40625 -2.578125 3.5 -2.328125 3.5 -1.640625 L 3.75 -1.640625 L 3.75 -3.765625 L 3.5 -3.765625 C 3.5 -3.09375 3.40625 -2.84375 2.625 -2.84375 L 1.890625 -2.84375 L 1.890625 -4.8125 C 1.890625 -5.09375 1.90625 -5.140625 2.265625 -5.140625 L 3.328125 -5.140625 C 4.625 -5.140625 4.765625 -4.640625 4.90625 -3.609375 L 5.15625 -3.609375 Z M 4.921875 -5.40625 "/>
</g>
<g id="glyph-4-1">
<path d="M 1.515625 -5.515625 L 0.328125 -5.4375 L 0.328125 -5.171875 C 0.875 -5.171875 0.9375 -5.109375 0.9375 -4.71875 L 0.9375 -0.625 C 0.9375 -0.265625 0.84375 -0.265625 0.328125 -0.265625 L 0.328125 0 C 0.640625 -0.03125 1.09375 -0.03125 1.21875 -0.03125 C 1.390625 -0.03125 1.8125 -0.03125 2.125 0 L 2.125 -0.265625 C 1.609375 -0.265625 1.515625 -0.265625 1.515625 -0.625 Z M 1.515625 -5.515625 "/>
</g>
<g id="glyph-4-2">
<path d="M 3.984375 -1.6875 C 3.984375 -2.6875 3.15625 -3.546875 2.109375 -3.546875 C 1.0625 -3.546875 0.234375 -2.6875 0.234375 -1.6875 C 0.234375 -0.703125 1.09375 0.078125 2.109375 0.078125 C 3.140625 0.078125 3.984375 -0.703125 3.984375 -1.6875 Z M 2.109375 -0.171875 C 1.671875 -0.171875 1.34375 -0.375 1.171875 -0.65625 C 0.96875 -0.984375 0.953125 -1.375 0.953125 -1.765625 C 0.953125 -2.0625 0.953125 -2.546875 1.1875 -2.890625 C 1.40625 -3.171875 1.734375 -3.328125 2.109375 -3.328125 C 2.515625 -3.328125 2.859375 -3.125 3.046875 -2.84375 C 3.265625 -2.515625 3.265625 -2.078125 3.265625 -1.765625 C 3.265625 -1.40625 3.25 -0.96875 3.03125 -0.625 C 2.8125 -0.3125 2.453125 -0.171875 2.109375 -0.171875 Z M 2.109375 -0.171875 "/>
</g>
<g id="glyph-4-3">
<path d="M 1.46875 -1.8125 C 1.46875 -2.40625 1.703125 -3.265625 2.46875 -3.28125 C 2.421875 -3.25 2.34375 -3.1875 2.34375 -3 C 2.34375 -2.765625 2.53125 -2.640625 2.703125 -2.640625 C 2.890625 -2.640625 3.046875 -2.78125 3.046875 -3 C 3.046875 -3.28125 2.796875 -3.5 2.453125 -3.5 C 1.9375 -3.5 1.578125 -3.125 1.421875 -2.671875 L 1.40625 -2.671875 L 1.40625 -3.5 L 0.28125 -3.421875 L 0.28125 -3.15625 C 0.8125 -3.15625 0.875 -3.109375 0.875 -2.71875 L 0.875 -0.625 C 0.875 -0.265625 0.78125 -0.265625 0.28125 -0.265625 L 0.28125 0 C 0.59375 -0.03125 1.03125 -0.03125 1.21875 -0.03125 C 1.6875 -0.03125 1.703125 -0.03125 2.21875 0 L 2.21875 -0.265625 L 2.0625 -0.265625 C 1.484375 -0.265625 1.46875 -0.34375 1.46875 -0.640625 Z M 1.46875 -1.8125 "/>
</g>
<g id="glyph-4-4">
<path d="M 5.8125 -2.640625 C 5.9375 -2.640625 6.09375 -2.640625 6.09375 -2.828125 C 6.09375 -3.015625 5.90625 -3.015625 5.78125 -3.015625 L 0.78125 -3.015625 C 0.65625 -3.015625 0.46875 -3.015625 0.46875 -2.828125 C 0.46875 -2.640625 0.625 -2.640625 0.75 -2.640625 Z M 5.78125 -0.96875 C 5.90625 -0.96875 6.09375 -0.96875 6.09375 -1.140625 C 6.09375 -1.328125 5.9375 -1.328125 5.8125 -1.328125 L 0.75 -1.328125 C 0.625 -1.328125 0.46875 -1.328125 0.46875 -1.140625 C 0.46875 -0.96875 0.65625 -0.96875 0.78125 -0.96875 Z M 5.78125 -0.96875 "/>
</g>
<g id="glyph-4-5">
<path d="M 2.25 -5.328125 C 2.765625 -5.3125 3.28125 -5.09375 3.453125 -4.53125 C 3.421875 -4.546875 3.390625 -4.546875 3.375 -4.546875 C 3.171875 -4.546875 3 -4.390625 3 -4.171875 C 3 -3.921875 3.203125 -3.796875 3.375 -3.796875 C 3.390625 -3.796875 3.75 -3.796875 3.75 -4.203125 C 3.75 -4.953125 3.21875 -5.546875 2.25 -5.59375 L 2.25 -5.96875 L 1.984375 -5.96875 L 1.984375 -5.59375 C 1.03125 -5.515625 0.46875 -4.78125 0.46875 -4.078125 C 0.46875 -3.765625 0.5625 -3.375 0.921875 -3.03125 C 1.25 -2.6875 1.5625 -2.609375 1.984375 -2.53125 L 1.984375 -0.1875 C 1.21875 -0.21875 0.859375 -0.671875 0.75 -1.09375 C 0.78125 -1.09375 0.8125 -1.09375 0.84375 -1.09375 C 1.0625 -1.09375 1.21875 -1.25 1.21875 -1.46875 C 1.21875 -1.71875 1 -1.84375 0.84375 -1.84375 C 0.8125 -1.84375 0.46875 -1.84375 0.46875 -1.421875 C 0.46875 -0.640625 1 0.03125 1.984375 0.078125 L 1.984375 0.453125 L 2.25 0.453125 L 2.25 0.078125 C 3.15625 -0.015625 3.75 -0.765625 3.75 -1.5625 C 3.75 -2.140625 3.4375 -2.53125 3.328125 -2.671875 C 2.953125 -3.046875 2.640625 -3.125 2.25 -3.21875 Z M 1.984375 -3.28125 C 1.78125 -3.328125 0.90625 -3.5 0.90625 -4.3125 C 0.90625 -4.8125 1.359375 -5.265625 1.984375 -5.328125 Z M 2.25 -2.46875 C 3.15625 -2.28125 3.3125 -1.640625 3.3125 -1.3125 C 3.3125 -0.8125 2.9375 -0.28125 2.25 -0.1875 Z M 2.25 -2.46875 "/>
</g>
<g id="glyph-4-6">
<path d="M 2.5 -5.0625 C 2.5 -5.28125 2.484375 -5.28125 2.265625 -5.28125 C 1.9375 -4.96875 1.515625 -4.78125 0.765625 -4.78125 L 0.765625 -4.515625 C 0.984375 -4.515625 1.40625 -4.515625 1.875 -4.734375 L 1.875 -0.65625 C 1.875 -0.359375 1.84375 -0.265625 1.09375 -0.265625 L 0.8125 -0.265625 L 0.8125 0 C 1.140625 -0.03125 1.828125 -0.03125 2.171875 -0.03125 C 2.53125 -0.03125 3.234375 -0.03125 3.5625 0 L 3.5625 -0.265625 L 3.28125 -0.265625 C 2.515625 -0.265625 2.5 -0.359375 2.5 -0.65625 Z M 2.5 -5.0625 "/>
</g>
<g id="glyph-4-7">
<path d="M 2.25 -1.625 C 2.375 -1.734375 2.703125 -2 2.828125 -2.109375 C 3.328125 -2.5625 3.796875 -3 3.796875 -3.734375 C 3.796875 -4.671875 3 -5.28125 2 -5.28125 C 1.046875 -5.28125 0.421875 -4.5625 0.421875 -3.859375 C 0.421875 -3.46875 0.734375 -3.40625 0.84375 -3.40625 C 1.015625 -3.40625 1.25 -3.53125 1.25 -3.828125 C 1.25 -4.25 0.859375 -4.25 0.765625 -4.25 C 1 -4.828125 1.53125 -5.03125 1.921875 -5.03125 C 2.65625 -5.03125 3.03125 -4.390625 3.03125 -3.734375 C 3.03125 -2.90625 2.453125 -2.296875 1.515625 -1.34375 L 0.515625 -0.296875 C 0.421875 -0.21875 0.421875 -0.203125 0.421875 0 L 3.5625 0 L 3.796875 -1.421875 L 3.546875 -1.421875 C 3.515625 -1.265625 3.453125 -0.859375 3.359375 -0.71875 C 3.3125 -0.65625 2.71875 -0.65625 2.578125 -0.65625 L 1.171875 -0.65625 Z M 2.25 -1.625 "/>
</g>
<g id="glyph-4-8">
<path d="M 5.625 -5.390625 C 5.625 -5.515625 5.625 -5.59375 5.515625 -5.59375 C 5.46875 -5.59375 5.453125 -5.59375 5.390625 -5.484375 L 4.984375 -4.90625 C 4.6875 -5.203125 4.171875 -5.59375 3.40625 -5.59375 C 1.8125 -5.59375 0.46875 -4.3125 0.46875 -2.71875 C 0.46875 -1.109375 1.796875 0.171875 3.40625 0.171875 C 4.75 0.171875 5.625 -0.890625 5.625 -1.859375 C 5.625 -1.9375 5.625 -2.015625 5.5 -2.015625 C 5.40625 -2.015625 5.390625 -1.96875 5.375 -1.890625 C 5.3125 -0.671875 4.328125 -0.09375 3.484375 -0.09375 C 2.8125 -0.09375 1.296875 -0.515625 1.296875 -2.71875 C 1.296875 -4.859375 2.734375 -5.34375 3.484375 -5.34375 C 4.234375 -5.34375 5.15625 -4.796875 5.359375 -3.4375 C 5.375 -3.375 5.375 -3.3125 5.484375 -3.3125 C 5.625 -3.3125 5.625 -3.375 5.625 -3.515625 Z M 5.625 -5.390625 "/>
</g>
<g id="glyph-4-9">
<path d="M 3.28125 -1.8125 C 3.453125 -1.8125 3.5 -1.8125 3.5 -2 C 3.5 -2.703125 3.125 -3.546875 2 -3.546875 C 1.015625 -3.546875 0.234375 -2.734375 0.234375 -1.734375 C 0.234375 -0.71875 1.09375 0.078125 2.09375 0.078125 C 3.109375 0.078125 3.5 -0.765625 3.5 -0.953125 C 3.5 -0.984375 3.484375 -1.0625 3.375 -1.0625 C 3.296875 -1.0625 3.28125 -1.015625 3.265625 -0.96875 C 2.96875 -0.1875 2.296875 -0.171875 2.140625 -0.171875 C 1.796875 -0.171875 1.421875 -0.328125 1.1875 -0.703125 C 0.953125 -1.0625 0.953125 -1.578125 0.953125 -1.8125 Z M 0.953125 -2.015625 C 1.03125 -3.140625 1.703125 -3.328125 2 -3.328125 C 2.921875 -3.328125 2.953125 -2.203125 2.96875 -2.015625 Z M 0.953125 -2.015625 "/>
</g>
<g id="glyph-4-10">
<path d="M 1.546875 -4.90625 C 1.546875 -5.125 1.375 -5.34375 1.109375 -5.34375 C 0.875 -5.34375 0.671875 -5.15625 0.671875 -4.90625 C 0.671875 -4.625 0.90625 -4.46875 1.109375 -4.46875 C 1.390625 -4.46875 1.546875 -4.6875 1.546875 -4.90625 Z M 0.359375 -3.421875 L 0.359375 -3.15625 C 0.859375 -3.15625 0.9375 -3.109375 0.9375 -2.71875 L 0.9375 -0.625 C 0.9375 -0.265625 0.84375 -0.265625 0.328125 -0.265625 L 0.328125 0 C 0.640625 -0.03125 1.09375 -0.03125 1.203125 -0.03125 C 1.3125 -0.03125 1.796875 -0.03125 2.0625 0 L 2.0625 -0.265625 C 1.546875 -0.265625 1.515625 -0.296875 1.515625 -0.609375 L 1.515625 -3.5 Z M 0.359375 -3.421875 "/>
</g>
<g id="glyph-4-11">
<path d="M 3.859375 -2.40625 C 3.859375 -3.078125 3.5625 -3.5 2.734375 -3.5 C 1.9375 -3.5 1.578125 -2.9375 1.484375 -2.75 L 1.484375 -3.5 L 0.328125 -3.421875 L 0.328125 -3.15625 C 0.859375 -3.15625 0.9375 -3.109375 0.9375 -2.71875 L 0.9375 -0.625 C 0.9375 -0.265625 0.828125 -0.265625 0.328125 -0.265625 L 0.328125 0 C 0.671875 -0.03125 1.015625 -0.03125 1.234375 -0.03125 C 1.46875 -0.03125 1.796875 -0.03125 2.140625 0 L 2.140625 -0.265625 C 1.625 -0.265625 1.53125 -0.265625 1.53125 -0.625 L 1.53125 -2.0625 C 1.53125 -2.890625 2.171875 -3.28125 2.65625 -3.28125 C 3.140625 -3.28125 3.265625 -2.9375 3.265625 -2.4375 L 3.265625 -0.625 C 3.265625 -0.265625 3.171875 -0.265625 2.65625 -0.265625 L 2.65625 0 C 3 -0.03125 3.34375 -0.03125 3.5625 -0.03125 C 3.796875 -0.03125 4.125 -0.03125 4.46875 0 L 4.46875 -0.265625 C 3.953125 -0.265625 3.859375 -0.265625 3.859375 -0.625 Z M 3.859375 -2.40625 "/>
</g>
<g id="glyph-4-12">
<path d="M 1.375 -0.546875 C 1.125 -0.578125 0.9375 -0.78125 0.9375 -1.078125 C 0.9375 -1.265625 0.984375 -1.34375 1.03125 -1.40625 C 1.375 -1.203125 1.671875 -1.171875 1.875 -1.171875 C 2.65625 -1.171875 3.234375 -1.71875 3.234375 -2.34375 C 3.234375 -2.640625 3.109375 -2.890625 2.90625 -3.109375 C 3.015625 -3.203125 3.28125 -3.359375 3.671875 -3.375 C 3.640625 -3.34375 3.609375 -3.3125 3.609375 -3.1875 C 3.609375 -3.03125 3.703125 -2.9375 3.84375 -2.9375 C 3.953125 -2.9375 4.09375 -3 4.09375 -3.1875 C 4.09375 -3.328125 4 -3.59375 3.640625 -3.59375 C 3.5 -3.59375 3.125 -3.5625 2.765625 -3.234375 C 2.5625 -3.375 2.25 -3.5 1.875 -3.5 C 1.09375 -3.5 0.515625 -2.953125 0.515625 -2.34375 C 0.515625 -1.96875 0.71875 -1.6875 0.875 -1.53125 C 0.703125 -1.328125 0.640625 -1.078125 0.640625 -0.875 C 0.640625 -0.5625 0.796875 -0.3125 0.984375 -0.171875 C 0.5625 -0.0625 0.234375 0.25 0.234375 0.609375 C 0.234375 1.1875 1.0625 1.625 2.109375 1.625 C 3.109375 1.625 3.984375 1.21875 3.984375 0.59375 C 3.984375 0.171875 3.71875 -0.171875 3.453125 -0.296875 C 2.984375 -0.546875 2.59375 -0.546875 1.828125 -0.546875 Z M 1.875 -1.40625 C 1.140625 -1.40625 1.140625 -2.15625 1.140625 -2.34375 C 1.140625 -2.625 1.171875 -2.84375 1.296875 -3 C 1.4375 -3.1875 1.65625 -3.28125 1.875 -3.28125 C 2.609375 -3.28125 2.609375 -2.515625 2.609375 -2.34375 C 2.609375 -2.046875 2.5625 -1.84375 2.453125 -1.671875 C 2.28125 -1.453125 2.015625 -1.40625 1.875 -1.40625 Z M 2.25 -0.03125 C 2.46875 -0.03125 3.5 -0.03125 3.5 0.609375 C 3.5 1.03125 2.890625 1.40625 2.109375 1.40625 C 1.3125 1.40625 0.703125 1.03125 0.703125 0.609375 C 0.703125 0.4375 0.828125 -0.03125 1.484375 -0.03125 Z M 2.25 -0.03125 "/>
</g>
<g id="glyph-4-13">
<path d="M 1.09375 -2.625 C 1.09375 -3.296875 1.15625 -3.875 1.4375 -4.359375 C 1.671875 -4.75 2.078125 -5.078125 2.578125 -5.078125 C 2.75 -5.078125 3.109375 -5.0625 3.296875 -4.78125 C 2.9375 -4.765625 2.90625 -4.5 2.90625 -4.40625 C 2.90625 -4.171875 3.078125 -4.03125 3.28125 -4.03125 C 3.421875 -4.03125 3.65625 -4.125 3.65625 -4.421875 C 3.65625 -4.90625 3.296875 -5.28125 2.578125 -5.28125 C 1.46875 -5.28125 0.34375 -4.234375 0.34375 -2.515625 C 0.34375 -0.359375 1.359375 0.171875 2.125 0.171875 C 2.5 0.171875 2.921875 0.0625 3.28125 -0.28125 C 3.59375 -0.59375 3.859375 -0.921875 3.859375 -1.609375 C 3.859375 -2.65625 3.078125 -3.390625 2.1875 -3.390625 C 1.625 -3.390625 1.28125 -3.015625 1.09375 -2.625 Z M 2.125 -0.078125 C 1.703125 -0.078125 1.4375 -0.359375 1.3125 -0.59375 C 1.140625 -0.953125 1.125 -1.484375 1.125 -1.796875 C 1.125 -2.578125 1.546875 -3.171875 2.15625 -3.171875 C 2.5625 -3.171875 2.796875 -2.953125 2.953125 -2.6875 C 3.125 -2.390625 3.125 -2.03125 3.125 -1.625 C 3.125 -1.21875 3.125 -0.859375 2.953125 -0.578125 C 2.75 -0.21875 2.46875 -0.078125 2.125 -0.078125 Z M 2.125 -0.078125 "/>
</g>
<g id="glyph-4-14">
<path d="M 1.859375 -3.3125 C 1.34375 -3.4375 0.96875 -3.84375 0.96875 -4.328125 C 0.96875 -4.859375 1.4375 -5.359375 2.125 -5.359375 C 3.5 -5.359375 3.6875 -4.078125 3.71875 -3.765625 C 3.734375 -3.6875 3.75 -3.625 3.84375 -3.625 C 3.984375 -3.625 3.984375 -3.6875 3.984375 -3.828125 L 3.984375 -5.390625 C 3.984375 -5.515625 3.984375 -5.59375 3.875 -5.59375 C 3.8125 -5.59375 3.796875 -5.578125 3.734375 -5.484375 L 3.453125 -5.046875 C 3.0625 -5.484375 2.546875 -5.59375 2.109375 -5.59375 C 1.171875 -5.59375 0.46875 -4.890625 0.46875 -4.078125 C 0.46875 -3.46875 0.8125 -3.140625 0.96875 -2.984375 C 1.25 -2.703125 1.515625 -2.625 2.375 -2.4375 C 3.046875 -2.28125 3.171875 -2.25 3.4375 -1.96875 C 3.515625 -1.890625 3.71875 -1.609375 3.71875 -1.21875 C 3.71875 -0.671875 3.296875 -0.09375 2.546875 -0.09375 C 1.671875 -0.09375 0.765625 -0.515625 0.71875 -1.625 C 0.703125 -1.75 0.703125 -1.8125 0.59375 -1.8125 C 0.46875 -1.8125 0.46875 -1.734375 0.46875 -1.59375 L 0.46875 -0.046875 C 0.46875 0.09375 0.46875 0.171875 0.578125 0.171875 C 0.640625 0.171875 0.640625 0.15625 0.703125 0.078125 C 0.734375 0.03125 0.765625 -0.046875 0.984375 -0.375 C 1.484375 0.0625 2.078125 0.171875 2.546875 0.171875 C 3.546875 0.171875 4.21875 -0.625 4.21875 -1.46875 C 4.21875 -2.15625 3.765625 -2.875 2.953125 -3.0625 Z M 1.859375 -3.3125 "/>
</g>
<g id="glyph-4-15">
<path d="M 2.65625 -3.421875 L 2.65625 -3.15625 C 3.203125 -3.15625 3.265625 -3.109375 3.265625 -2.71875 L 3.265625 -1.328125 C 3.265625 -0.640625 2.84375 -0.140625 2.25 -0.140625 C 1.5625 -0.140625 1.53125 -0.484375 1.53125 -0.875 L 1.53125 -3.5 L 0.328125 -3.421875 L 0.328125 -3.15625 C 0.9375 -3.15625 0.9375 -3.140625 0.9375 -2.421875 L 0.9375 -1.234375 C 0.9375 -0.65625 0.9375 0.078125 2.203125 0.078125 C 2.953125 0.078125 3.234375 -0.5 3.28125 -0.5625 L 3.28125 0.078125 L 4.46875 0 L 4.46875 -0.265625 C 3.921875 -0.265625 3.859375 -0.3125 3.859375 -0.703125 L 3.859375 -3.5 Z M 2.65625 -3.421875 "/>
</g>
<g id="glyph-4-16">
<path d="M 2.09375 1.28125 C 1.578125 1.28125 1.484375 1.28125 1.484375 0.921875 L 1.484375 -0.390625 C 1.859375 0.015625 2.265625 0.078125 2.515625 0.078125 C 3.53125 0.078125 4.40625 -0.703125 4.40625 -1.71875 C 4.40625 -2.71875 3.609375 -3.5 2.640625 -3.5 C 2.328125 -3.5 1.875 -3.421875 1.46875 -3.015625 L 1.46875 -3.5 L 0.28125 -3.421875 L 0.28125 -3.15625 C 0.84375 -3.15625 0.875 -3.109375 0.875 -2.78125 L 0.875 0.921875 C 0.875 1.28125 0.78125 1.28125 0.28125 1.28125 L 0.28125 1.546875 C 0.625 1.515625 0.96875 1.515625 1.1875 1.515625 C 1.421875 1.515625 1.75 1.515625 2.09375 1.546875 Z M 1.484375 -2.640625 C 1.671875 -2.96875 2.0625 -3.265625 2.5625 -3.265625 C 3.1875 -3.265625 3.703125 -2.578125 3.703125 -1.71875 C 3.703125 -0.796875 3.125 -0.140625 2.484375 -0.140625 C 2.203125 -0.140625 1.84375 -0.265625 1.578125 -0.65625 C 1.484375 -0.796875 1.484375 -0.796875 1.484375 -0.953125 Z M 1.484375 -2.640625 "/>
</g>
<g id="glyph-4-17">
<path d="M 2.828125 -3.34375 C 2.828125 -3.46875 2.828125 -3.546875 2.734375 -3.546875 C 2.6875 -3.546875 2.671875 -3.546875 2.53125 -3.421875 C 2.515625 -3.40625 2.453125 -3.34375 2.421875 -3.34375 C 2.421875 -3.34375 2.40625 -3.34375 2.359375 -3.375 C 2.234375 -3.453125 2 -3.546875 1.640625 -3.546875 C 0.53125 -3.546875 0.28125 -2.9375 0.28125 -2.5625 C 0.28125 -2.15625 0.578125 -1.9375 0.59375 -1.90625 C 0.921875 -1.671875 1.09375 -1.640625 1.625 -1.546875 C 2 -1.46875 2.609375 -1.359375 2.609375 -0.8125 C 2.609375 -0.515625 2.40625 -0.140625 1.671875 -0.140625 C 0.875 -0.140625 0.640625 -0.765625 0.546875 -1.1875 C 0.515625 -1.28125 0.5 -1.328125 0.40625 -1.328125 C 0.28125 -1.328125 0.28125 -1.265625 0.28125 -1.109375 L 0.28125 -0.125 C 0.28125 0 0.28125 0.078125 0.375 0.078125 C 0.421875 0.078125 0.4375 0.078125 0.578125 -0.078125 C 0.625 -0.125 0.703125 -0.21875 0.75 -0.265625 C 1.109375 0.0625 1.484375 0.078125 1.6875 0.078125 C 2.703125 0.078125 3.046875 -0.5 3.046875 -1.03125 C 3.046875 -1.40625 2.8125 -1.96875 1.875 -2.140625 C 1.8125 -2.15625 1.359375 -2.234375 1.328125 -2.234375 C 1.078125 -2.296875 0.703125 -2.453125 0.703125 -2.78125 C 0.703125 -3.015625 0.875 -3.34375 1.640625 -3.34375 C 2.53125 -3.34375 2.5625 -2.703125 2.578125 -2.46875 C 2.59375 -2.40625 2.640625 -2.390625 2.703125 -2.390625 C 2.828125 -2.390625 2.828125 -2.4375 2.828125 -2.59375 Z M 2.828125 -3.34375 "/>
</g>
<g id="glyph-4-18">
<path d="M 1.515625 -3.171875 L 2.46875 -3.171875 L 2.46875 -3.421875 L 1.5 -3.421875 L 1.5 -4.328125 C 1.5 -5.015625 1.890625 -5.375 2.234375 -5.375 C 2.359375 -5.375 2.4375 -5.34375 2.46875 -5.34375 C 2.328125 -5.265625 2.28125 -5.125 2.28125 -5.03125 C 2.28125 -4.8125 2.4375 -4.671875 2.640625 -4.671875 C 2.859375 -4.671875 3 -4.8125 3 -5.03125 C 3 -5.375 2.671875 -5.59375 2.25 -5.59375 C 1.640625 -5.59375 0.9375 -5.171875 0.9375 -4.3125 L 0.9375 -3.421875 L 0.28125 -3.421875 L 0.28125 -3.171875 L 0.9375 -3.171875 L 0.9375 -0.625 C 0.9375 -0.265625 0.84375 -0.265625 0.328125 -0.265625 L 0.328125 0 C 0.640625 -0.03125 1.078125 -0.03125 1.265625 -0.03125 C 1.734375 -0.03125 1.75 -0.03125 2.28125 0 L 2.28125 -0.265625 L 2.109375 -0.265625 C 1.53125 -0.265625 1.515625 -0.34375 1.515625 -0.640625 Z M 1.515625 -3.171875 "/>
</g>
<g id="glyph-4-19">
<path d="M 3.34375 -2.375 C 3.34375 -3.15625 2.578125 -3.546875 1.859375 -3.546875 C 1.203125 -3.546875 0.609375 -3.296875 0.609375 -2.765625 C 0.609375 -2.53125 0.78125 -2.390625 0.984375 -2.390625 C 1.203125 -2.390625 1.359375 -2.546875 1.359375 -2.765625 C 1.359375 -2.953125 1.234375 -3.078125 1.0625 -3.125 C 1.359375 -3.328125 1.796875 -3.328125 1.84375 -3.328125 C 2.296875 -3.328125 2.734375 -3.015625 2.734375 -2.359375 L 2.734375 -2.109375 C 2.28125 -2.09375 1.734375 -2.0625 1.1875 -1.84375 C 0.484375 -1.53125 0.34375 -1.078125 0.34375 -0.8125 C 0.34375 -0.125 1.15625 0.078125 1.703125 0.078125 C 2.28125 0.078125 2.640625 -0.25 2.8125 -0.5625 C 2.859375 -0.265625 3.0625 0.046875 3.40625 0.046875 C 3.484375 0.046875 4.171875 0.015625 4.171875 -0.71875 L 4.171875 -1.15625 L 3.921875 -1.15625 L 3.921875 -0.71875 C 3.921875 -0.390625 3.796875 -0.265625 3.640625 -0.265625 C 3.34375 -0.265625 3.34375 -0.625 3.34375 -0.71875 Z M 2.734375 -1.125 C 2.734375 -0.34375 2.078125 -0.140625 1.765625 -0.140625 C 1.359375 -0.140625 1 -0.421875 1 -0.796875 C 1 -1.328125 1.5 -1.875 2.734375 -1.90625 Z M 2.734375 -1.125 "/>
</g>
<g id="glyph-4-20">
<path d="M 1.46875 -5.515625 L 0.28125 -5.4375 L 0.28125 -5.171875 C 0.8125 -5.171875 0.875 -5.109375 0.875 -4.71875 L 0.875 0 L 1.125 0 L 1.421875 -0.5 C 1.609375 -0.21875 1.984375 0.078125 2.515625 0.078125 C 3.53125 0.078125 4.40625 -0.703125 4.40625 -1.71875 C 4.40625 -2.71875 3.59375 -3.5 2.609375 -3.5 C 1.984375 -3.5 1.59375 -3.171875 1.46875 -3.015625 Z M 1.484375 -2.515625 C 1.484375 -2.671875 1.484375 -2.6875 1.609375 -2.828125 C 1.84375 -3.125 2.21875 -3.28125 2.5625 -3.28125 C 2.984375 -3.28125 3.296875 -3.03125 3.453125 -2.796875 C 3.59375 -2.578125 3.703125 -2.3125 3.703125 -1.71875 C 3.703125 -1.546875 3.703125 -0.984375 3.40625 -0.609375 C 3.125 -0.25 2.75 -0.140625 2.484375 -0.140625 C 2.109375 -0.140625 1.796875 -0.34375 1.578125 -0.65625 C 1.484375 -0.796875 1.484375 -0.8125 1.484375 -0.96875 Z M 1.484375 -2.515625 "/>
</g>
<g id="glyph-4-21">
<path d="M 1.484375 -3.171875 L 2.671875 -3.171875 L 2.671875 -3.421875 L 1.484375 -3.421875 L 1.484375 -4.890625 L 1.234375 -4.890625 C 1.21875 -4.171875 0.90625 -3.40625 0.15625 -3.390625 L 0.15625 -3.171875 L 0.875 -3.171875 L 0.875 -1 C 0.875 -0.0625 1.59375 0.078125 1.953125 0.078125 C 2.484375 0.078125 2.8125 -0.390625 2.8125 -1 L 2.8125 -1.4375 L 2.5625 -1.4375 L 2.5625 -1.015625 C 2.5625 -0.46875 2.3125 -0.171875 2.015625 -0.171875 C 1.484375 -0.171875 1.484375 -0.84375 1.484375 -0.984375 Z M 1.484375 -3.171875 "/>
</g>
<g id="glyph-4-22">
<path d="M 2.640625 1.984375 C 2.71875 1.984375 2.8125 1.984375 2.8125 1.890625 C 2.8125 1.859375 2.796875 1.859375 2.703125 1.75 C 1.609375 0.71875 1.34375 -0.75 1.34375 -1.984375 C 1.34375 -4.28125 2.28125 -5.359375 2.6875 -5.71875 C 2.796875 -5.828125 2.8125 -5.828125 2.8125 -5.875 C 2.8125 -5.90625 2.78125 -5.96875 2.703125 -5.96875 C 2.5625 -5.96875 2.171875 -5.5625 2.109375 -5.484375 C 1.046875 -4.375 0.8125 -2.9375 0.8125 -1.984375 C 0.8125 -0.203125 1.5625 1.21875 2.640625 1.984375 Z M 2.640625 1.984375 "/>
</g>
<g id="glyph-4-23">
<path d="M 6.21875 -2.40625 C 6.21875 -3.046875 5.9375 -3.5 5.0625 -3.5 C 4.328125 -3.5 3.96875 -3 3.84375 -2.78125 C 3.703125 -3.34375 3.25 -3.5 2.734375 -3.5 C 1.953125 -3.5 1.59375 -2.953125 1.484375 -2.75 L 1.484375 -3.5 L 0.328125 -3.421875 L 0.328125 -3.15625 C 0.859375 -3.15625 0.9375 -3.109375 0.9375 -2.71875 L 0.9375 -0.625 C 0.9375 -0.265625 0.828125 -0.265625 0.328125 -0.265625 L 0.328125 0 C 0.671875 -0.03125 1.015625 -0.03125 1.234375 -0.03125 C 1.46875 -0.03125 1.796875 -0.03125 2.140625 0 L 2.140625 -0.265625 C 1.625 -0.265625 1.53125 -0.265625 1.53125 -0.625 L 1.53125 -2.0625 C 1.53125 -2.890625 2.15625 -3.28125 2.671875 -3.28125 C 3.1875 -3.28125 3.265625 -2.875 3.265625 -2.4375 L 3.265625 -0.625 C 3.265625 -0.265625 3.171875 -0.265625 2.671875 -0.265625 L 2.671875 0 C 3 -0.03125 3.359375 -0.03125 3.578125 -0.03125 C 3.796875 -0.03125 4.140625 -0.03125 4.484375 0 L 4.484375 -0.265625 C 3.96875 -0.265625 3.875 -0.265625 3.875 -0.625 L 3.875 -2.0625 C 3.875 -2.890625 4.5 -3.28125 5 -3.28125 C 5.515625 -3.28125 5.609375 -2.875 5.609375 -2.4375 L 5.609375 -0.625 C 5.609375 -0.265625 5.515625 -0.265625 5 -0.265625 L 5 0 C 5.34375 -0.03125 5.6875 -0.03125 5.90625 -0.03125 C 6.140625 -0.03125 6.46875 -0.03125 6.8125 0 L 6.8125 -0.265625 C 6.3125 -0.265625 6.21875 -0.265625 6.21875 -0.625 Z M 6.21875 -2.40625 "/>
</g>
<g id="glyph-4-24">
<path d="M 3.515625 -2.625 C 3.71875 -3.078125 4.015625 -3.15625 4.28125 -3.171875 L 4.28125 -3.421875 C 4 -3.40625 3.984375 -3.40625 3.65625 -3.40625 C 3.625 -3.40625 3.203125 -3.40625 2.96875 -3.421875 L 2.96875 -3.171875 C 3.203125 -3.15625 3.3125 -3.015625 3.3125 -2.84375 C 3.3125 -2.796875 3.296875 -2.734375 3.265625 -2.640625 L 2.40625 -0.71875 L 1.484375 -2.796875 C 1.4375 -2.921875 1.4375 -2.9375 1.4375 -2.96875 C 1.4375 -3.15625 1.671875 -3.171875 1.859375 -3.171875 L 1.859375 -3.421875 C 1.5 -3.40625 1.15625 -3.40625 0.984375 -3.40625 C 0.8125 -3.40625 0.421875 -3.40625 0.171875 -3.421875 L 0.171875 -3.171875 C 0.59375 -3.171875 0.703125 -3.15625 0.828125 -2.84375 L 2.09375 0 C 1.734375 0.84375 1.5 1.40625 0.9375 1.40625 C 0.734375 1.40625 0.609375 1.296875 0.609375 1.296875 C 0.671875 1.28125 0.84375 1.203125 0.84375 0.96875 C 0.84375 0.75 0.6875 0.625 0.515625 0.625 C 0.34375 0.625 0.171875 0.734375 0.171875 0.984375 C 0.171875 1.328125 0.515625 1.625 0.9375 1.625 C 1.640625 1.625 2.03125 0.765625 2.0625 0.6875 Z M 3.515625 -2.625 "/>
</g>
<g id="glyph-4-25">
<path d="M 2.453125 -1.984375 C 2.453125 -2.75 2.328125 -3.65625 1.84375 -4.59375 C 1.453125 -5.328125 0.71875 -5.96875 0.578125 -5.96875 C 0.5 -5.96875 0.484375 -5.90625 0.484375 -5.875 C 0.484375 -5.84375 0.484375 -5.828125 0.578125 -5.71875 C 1.6875 -4.671875 1.9375 -3.21875 1.9375 -1.984375 C 1.9375 0.296875 1 1.375 0.59375 1.734375 C 0.484375 1.84375 0.484375 1.859375 0.484375 1.890625 C 0.484375 1.9375 0.5 1.984375 0.578125 1.984375 C 0.703125 1.984375 1.109375 1.578125 1.171875 1.515625 C 2.234375 0.390625 2.453125 -1.03125 2.453125 -1.984375 Z M 2.453125 -1.984375 "/>
</g>
<g id="glyph-4-26">
<path d="M 3.859375 -2.40625 C 3.859375 -3.078125 3.5625 -3.5 2.734375 -3.5 C 2.03125 -3.5 1.65625 -3.0625 1.515625 -2.8125 L 1.515625 -5.515625 L 0.328125 -5.4375 L 0.328125 -5.171875 C 0.859375 -5.171875 0.9375 -5.109375 0.9375 -4.71875 L 0.9375 -0.625 C 0.9375 -0.265625 0.828125 -0.265625 0.328125 -0.265625 L 0.328125 0 C 0.671875 -0.03125 1.015625 -0.03125 1.234375 -0.03125 C 1.46875 -0.03125 1.796875 -0.03125 2.140625 0 L 2.140625 -0.265625 C 1.625 -0.265625 1.53125 -0.265625 1.53125 -0.625 L 1.53125 -2.0625 C 1.53125 -2.890625 2.171875 -3.28125 2.65625 -3.28125 C 3.140625 -3.28125 3.265625 -2.9375 3.265625 -2.4375 L 3.265625 -0.625 C 3.265625 -0.265625 3.171875 -0.265625 2.65625 -0.265625 L 2.65625 0 C 3 -0.03125 3.34375 -0.03125 3.5625 -0.03125 C 3.796875 -0.03125 4.125 -0.03125 4.46875 0 L 4.46875 -0.265625 C 3.953125 -0.265625 3.859375 -0.265625 3.859375 -0.625 Z M 3.859375 -2.40625 "/>
</g>
<g id="glyph-5-0">
<path d="M 4.75 -0.0625 C 5.71875 -0.453125 6.625 -1.5625 6.625 -3.03125 C 6.625 -4.859375 5.234375 -6.296875 3.5625 -6.296875 C 1.890625 -6.296875 0.515625 -4.84375 0.515625 -3.03125 C 0.515625 -1.21875 1.90625 0.203125 3.5625 0.203125 C 3.875 0.203125 4.21875 0.140625 4.4375 0.078125 C 4.59375 0.953125 4.734375 1.734375 5.5625 1.734375 C 6.484375 1.734375 6.671875 0.53125 6.671875 0.078125 C 6.671875 0 6.671875 -0.109375 6.5625 -0.109375 C 6.5 -0.109375 6.46875 -0.046875 6.453125 -0.015625 C 6.375 0.765625 5.78125 0.828125 5.625 0.828125 C 5.140625 0.828125 4.953125 0.4375 4.75 -0.0625 Z M 2.921875 -0.171875 C 2.0625 -0.515625 1.390625 -1.4375 1.390625 -3.03125 C 1.390625 -5.25 2.640625 -6.046875 3.5625 -6.046875 C 4.5 -6.046875 5.734375 -5.25 5.734375 -3.03125 C 5.734375 -1.84375 5.375 -0.90625 4.609375 -0.390625 C 4.4375 -0.828125 4.15625 -1.328125 3.578125 -1.328125 C 3.140625 -1.328125 2.8125 -0.984375 2.8125 -0.578125 C 2.8125 -0.359375 2.90625 -0.1875 2.921875 -0.171875 Z M 4.359375 -0.234375 C 4.109375 -0.109375 3.796875 -0.046875 3.5625 -0.046875 C 3.125 -0.046875 3.03125 -0.421875 3.03125 -0.578125 C 3.03125 -0.84375 3.234375 -1.109375 3.578125 -1.109375 C 4.0625 -1.109375 4.25 -0.734375 4.359375 -0.234375 Z M 4.359375 -0.234375 "/>
</g>
<g id="glyph-5-1">
<path d="M 3.546875 -1.5 C 3.546875 -0.703125 3.09375 -0.125 2.453125 -0.125 C 1.703125 -0.125 1.65625 -0.515625 1.65625 -0.984375 L 1.65625 -3.953125 L 0.3125 -3.859375 L 0.3125 -3.578125 C 1 -3.578125 1 -3.546875 1 -2.75 L 1 -1.40625 C 1 -0.828125 1 -0.453125 1.40625 -0.140625 C 1.671875 0.03125 2.03125 0.09375 2.390625 0.09375 C 2.859375 0.09375 3.296875 -0.109375 3.5625 -0.640625 L 3.5625 0.09375 L 4.890625 0 L 4.890625 -0.28125 C 4.28125 -0.28125 4.203125 -0.34375 4.203125 -0.78125 L 4.203125 -3.953125 L 2.84375 -3.859375 L 2.84375 -3.578125 C 3.453125 -3.578125 3.546875 -3.515625 3.546875 -3.078125 Z M 3.546875 -1.5 "/>
</g>
<g id="glyph-5-2">
<path d="M 3.0625 -0.640625 C 3.09375 -0.265625 3.359375 0.046875 3.75 0.046875 C 3.96875 0.046875 4.53125 -0.078125 4.53125 -0.796875 L 4.53125 -1.296875 L 4.28125 -1.296875 L 4.28125 -0.796875 C 4.28125 -0.703125 4.28125 -0.265625 3.953125 -0.265625 C 3.640625 -0.265625 3.640625 -0.6875 3.640625 -0.828125 L 3.640625 -2.390625 C 3.640625 -2.90625 3.640625 -3.203125 3.234375 -3.578125 C 2.90625 -3.875 2.46875 -4 2.03125 -4 C 1.28125 -4 0.65625 -3.625 0.65625 -3.0625 C 0.65625 -2.78125 0.84375 -2.625 1.078125 -2.625 C 1.3125 -2.625 1.484375 -2.8125 1.484375 -3.03125 C 1.484375 -3.421875 1.09375 -3.46875 1.078125 -3.46875 C 1.328125 -3.703125 1.75 -3.78125 2.015625 -3.78125 C 2.46875 -3.78125 2.96875 -3.4375 2.96875 -2.65625 L 2.96875 -2.359375 C 2.5 -2.34375 1.828125 -2.296875 1.21875 -2.015625 C 0.578125 -1.703125 0.390625 -1.234375 0.390625 -0.875 C 0.390625 -0.140625 1.25 0.09375 1.84375 0.09375 C 2.59375 0.09375 2.9375 -0.390625 3.0625 -0.640625 Z M 2.96875 -1.265625 C 2.96875 -0.390625 2.3125 -0.125 1.90625 -0.125 C 1.5 -0.125 1.09375 -0.421875 1.09375 -0.875 C 1.09375 -1.46875 1.609375 -2.09375 2.96875 -2.140625 Z M 2.96875 -1.265625 "/>
</g>
<g id="glyph-5-3">
<path d="M 1.65625 -2.3125 C 1.65625 -3.265625 2.328125 -3.734375 2.890625 -3.734375 C 3.421875 -3.734375 3.546875 -3.28125 3.546875 -2.75 L 3.546875 -0.6875 C 3.546875 -0.28125 3.4375 -0.28125 2.84375 -0.28125 L 2.84375 0 C 3.265625 -0.015625 3.4375 -0.03125 3.875 -0.03125 C 4.296875 -0.03125 4.421875 -0.015625 4.890625 0 L 4.890625 -0.28125 C 4.4375 -0.28125 4.203125 -0.28125 4.203125 -0.546875 L 4.203125 -2.265625 C 4.203125 -3.015625 4.203125 -3.265625 3.953125 -3.578125 C 3.75 -3.828125 3.40625 -3.953125 2.953125 -3.953125 C 2.125 -3.953125 1.75 -3.328125 1.625 -3.078125 L 1.609375 -3.078125 L 1.609375 -3.953125 L 0.3125 -3.859375 L 0.3125 -3.578125 C 0.921875 -3.578125 1 -3.515625 1 -3.078125 L 1 -0.6875 C 1 -0.28125 0.90625 -0.28125 0.3125 -0.28125 L 0.3125 0 C 0.734375 -0.015625 0.90625 -0.03125 1.328125 -0.03125 C 1.765625 -0.03125 1.875 -0.015625 2.34375 0 L 2.34375 -0.28125 C 1.765625 -0.28125 1.65625 -0.28125 1.65625 -0.6875 Z M 1.65625 -2.3125 "/>
</g>
<g id="glyph-5-4">
<path d="M 2.90625 -3.578125 L 2.90625 -3.859375 L 1.609375 -3.859375 L 1.609375 -5.5 L 1.359375 -5.5 C 1.34375 -4.75 1.03125 -3.828125 0.171875 -3.796875 L 0.171875 -3.578125 L 0.953125 -3.578125 L 0.953125 -1.109375 C 0.953125 -0.109375 1.671875 0.09375 2.140625 0.09375 C 2.75 0.09375 3.0625 -0.46875 3.0625 -1.109375 L 3.0625 -1.625 L 2.8125 -1.625 L 2.8125 -1.140625 C 2.8125 -0.46875 2.53125 -0.15625 2.203125 -0.15625 C 1.609375 -0.15625 1.609375 -0.9375 1.609375 -1.09375 L 1.609375 -3.578125 Z M 2.90625 -3.578125 "/>
</g>
<g id="glyph-5-5">
<path d="M 1.640625 -3.953125 L 0.359375 -3.859375 L 0.359375 -3.578125 C 0.921875 -3.578125 1.015625 -3.515625 1.015625 -3.078125 L 1.015625 -0.6875 C 1.015625 -0.28125 0.90625 -0.28125 0.328125 -0.28125 L 0.328125 0 C 0.71875 -0.015625 0.90625 -0.03125 1.3125 -0.03125 C 1.453125 -0.03125 1.828125 -0.03125 2.265625 0 L 2.265625 -0.28125 C 1.6875 -0.28125 1.640625 -0.328125 1.640625 -0.671875 Z M 1.671875 -5.5 C 1.671875 -5.78125 1.453125 -5.984375 1.1875 -5.984375 C 0.90625 -5.984375 0.703125 -5.765625 0.703125 -5.5 C 0.703125 -5.25 0.90625 -5.015625 1.1875 -5.015625 C 1.453125 -5.015625 1.671875 -5.234375 1.671875 -5.5 Z M 1.671875 -5.5 "/>
</g>
<g id="glyph-5-6">
<path d="M 1.625 -3.15625 C 1.578125 -3.28125 1.578125 -3.328125 1.578125 -3.34375 C 1.578125 -3.578125 1.875 -3.578125 2.0625 -3.578125 L 2.0625 -3.859375 C 1.625 -3.828125 1.453125 -3.828125 1.078125 -3.828125 C 1.046875 -3.828125 0.53125 -3.828125 0.1875 -3.859375 L 0.1875 -3.578125 C 0.59375 -3.578125 0.765625 -3.5625 0.859375 -3.3125 L 2.28125 0 L 2.0625 0.53125 C 1.859375 1 1.59375 1.609375 1.015625 1.609375 C 0.796875 1.609375 0.640625 1.5 0.609375 1.46875 C 0.6875 1.46875 0.9375 1.390625 0.9375 1.09375 C 0.9375 0.859375 0.765625 0.71875 0.5625 0.71875 C 0.34375 0.71875 0.171875 0.859375 0.171875 1.09375 C 0.171875 1.5 0.546875 1.828125 1.015625 1.828125 C 1.59375 1.828125 1.984375 1.3125 2.203125 0.828125 L 3.8125 -2.953125 C 3.921875 -3.1875 4.078125 -3.5625 4.640625 -3.578125 L 4.640625 -3.859375 C 4.359375 -3.828125 4.078125 -3.828125 3.96875 -3.828125 C 3.71875 -3.828125 3.4375 -3.828125 3.1875 -3.859375 L 3.1875 -3.578125 C 3.609375 -3.5625 3.609375 -3.234375 3.609375 -3.203125 C 3.609375 -3.09375 3.5625 -3.015625 3.53125 -2.9375 L 2.625 -0.8125 Z M 1.625 -3.15625 "/>
</g>
<g id="glyph-5-7">
<path d="M 4.328125 -1.90625 C 4.328125 -3.078125 3.390625 -4 2.296875 -4 C 1.15625 -4 0.265625 -3.046875 0.265625 -1.90625 C 0.265625 -0.78125 1.1875 0.09375 2.28125 0.09375 C 3.421875 0.09375 4.328125 -0.796875 4.328125 -1.90625 Z M 2.296875 -0.15625 C 1.84375 -0.15625 1.46875 -0.375 1.265625 -0.71875 C 1.03125 -1.09375 1.03125 -1.578125 1.03125 -1.984375 C 1.03125 -2.3125 1.03125 -2.828125 1.25 -3.1875 C 1.515625 -3.640625 1.96875 -3.78125 2.28125 -3.78125 C 2.796875 -3.78125 3.15625 -3.5 3.34375 -3.1875 C 3.546875 -2.8125 3.5625 -2.359375 3.5625 -1.984375 C 3.5625 -1.65625 3.5625 -1.140625 3.328125 -0.734375 C 3.078125 -0.328125 2.671875 -0.15625 2.296875 -0.15625 Z M 2.296875 -0.15625 "/>
</g>
<g id="glyph-5-8">
<path d="M 2.6875 -3.578125 L 2.6875 -3.859375 L 1.625 -3.859375 L 1.625 -4.859375 C 1.625 -5.671875 2.0625 -6.078125 2.4375 -6.078125 C 2.53125 -6.078125 2.625 -6.0625 2.703125 -6.03125 C 2.625 -5.984375 2.46875 -5.875 2.46875 -5.65625 C 2.46875 -5.421875 2.640625 -5.265625 2.875 -5.265625 C 3.109375 -5.265625 3.265625 -5.4375 3.265625 -5.671875 C 3.265625 -6 2.9375 -6.296875 2.4375 -6.296875 C 1.75 -6.296875 1.015625 -5.78125 1.015625 -4.875 L 1.015625 -3.859375 L 0.296875 -3.859375 L 0.296875 -3.578125 L 1.015625 -3.578125 L 1.015625 -0.6875 C 1.015625 -0.28125 0.90625 -0.28125 0.328125 -0.28125 L 0.328125 0 C 0.796875 -0.015625 0.90625 -0.03125 1.375 -0.03125 C 1.71875 -0.03125 1.9375 -0.015625 2.5 0 L 2.5 -0.28125 L 2.328125 -0.28125 C 1.671875 -0.28125 1.640625 -0.375 1.640625 -0.703125 L 1.640625 -3.578125 Z M 2.6875 -3.578125 "/>
</g>
<g id="glyph-5-9">
<path d="M 1.640625 -6.203125 L 0.328125 -6.109375 L 0.328125 -5.828125 C 0.921875 -5.828125 1.015625 -5.765625 1.015625 -5.328125 L 1.015625 -0.6875 C 1.015625 -0.28125 0.90625 -0.28125 0.328125 -0.28125 L 0.328125 0 C 0.734375 -0.015625 0.90625 -0.03125 1.328125 -0.03125 C 1.75 -0.03125 1.890625 -0.015625 2.328125 0 L 2.328125 -0.28125 C 1.75 -0.28125 1.640625 -0.28125 1.640625 -0.6875 Z M 1.640625 -6.203125 "/>
</g>
<g id="glyph-5-10">
<path d="M 1.625 -2.84375 C 1.625 -3.015625 1.625 -3.03125 1.71875 -3.171875 C 2.015625 -3.578125 2.453125 -3.734375 2.796875 -3.734375 C 3.1875 -3.734375 3.546875 -3.515625 3.765625 -3.140625 C 4 -2.75 4.015625 -2.21875 4.015625 -1.9375 C 4.015625 -1.515625 3.96875 -1.046875 3.734375 -0.6875 C 3.546875 -0.40625 3.171875 -0.125 2.703125 -0.125 C 2.296875 -0.125 1.953125 -0.34375 1.75 -0.671875 C 1.625 -0.859375 1.625 -0.859375 1.625 -1.03125 Z M 1.53125 -0.546875 C 1.8125 -0.15625 2.265625 0.09375 2.75 0.09375 C 3.8125 0.09375 4.796875 -0.765625 4.796875 -1.9375 C 4.796875 -3.046875 3.90625 -3.953125 2.828125 -3.953125 C 2.21875 -3.953125 1.8125 -3.640625 1.59375 -3.390625 L 1.59375 -6.203125 L 0.265625 -6.109375 L 0.265625 -5.828125 C 0.875 -5.828125 0.953125 -5.765625 0.953125 -5.328125 L 0.953125 0 L 1.203125 0 Z M 1.53125 -0.546875 "/>
</g>
<g id="glyph-5-11">
<path d="M 1.59375 -2.046875 C 1.59375 -2.40625 1.6875 -3.734375 2.703125 -3.734375 L 2.703125 -3.71875 C 2.6875 -3.703125 2.546875 -3.609375 2.546875 -3.390625 C 2.546875 -3.140625 2.734375 -3 2.9375 -3 C 3.125 -3 3.328125 -3.125 3.328125 -3.390625 C 3.328125 -3.6875 3.0625 -3.953125 2.65625 -3.953125 C 2.125 -3.953125 1.75 -3.578125 1.546875 -3.015625 L 1.53125 -3.015625 L 1.53125 -3.953125 L 0.265625 -3.859375 L 0.265625 -3.578125 C 0.875 -3.578125 0.953125 -3.515625 0.953125 -3.078125 L 0.953125 -0.6875 C 0.953125 -0.28125 0.859375 -0.28125 0.265625 -0.28125 L 0.265625 0 C 0.734375 -0.015625 0.859375 -0.03125 1.3125 -0.03125 C 1.671875 -0.03125 1.890625 -0.015625 2.453125 0 L 2.453125 -0.28125 L 2.265625 -0.28125 C 1.625 -0.28125 1.59375 -0.375 1.59375 -0.703125 Z M 1.59375 -2.046875 "/>
</g>
<g id="glyph-5-12">
<path d="M 3.046875 2.125 C 3.046875 2.078125 3.015625 2.0625 2.96875 2 C 1.8125 0.9375 1.46875 -0.671875 1.46875 -2.234375 C 1.46875 -3.625 1.734375 -5.296875 3 -6.5 C 3.03125 -6.53125 3.046875 -6.5625 3.046875 -6.609375 C 3.046875 -6.671875 3 -6.703125 2.9375 -6.703125 C 2.828125 -6.703125 2.03125 -6.0625 1.546875 -5.078125 C 1.125 -4.234375 0.90625 -3.3125 0.90625 -2.25 C 0.90625 -1.59375 0.984375 -0.578125 1.46875 0.46875 C 2 1.578125 2.828125 2.21875 2.9375 2.21875 C 3 2.21875 3.046875 2.1875 3.046875 2.125 Z M 3.046875 2.125 "/>
</g>
<g id="glyph-5-13">
<path d="M 1.640625 -6.203125 L 0.3125 -6.109375 L 0.3125 -5.828125 C 0.921875 -5.828125 1 -5.765625 1 -5.328125 L 1 -0.6875 C 1 -0.28125 0.90625 -0.28125 0.3125 -0.28125 L 0.3125 0 C 0.734375 -0.015625 0.90625 -0.03125 1.328125 -0.03125 C 1.765625 -0.03125 1.875 -0.015625 2.34375 0 L 2.34375 -0.28125 C 1.765625 -0.28125 1.65625 -0.28125 1.65625 -0.6875 L 1.65625 -2.3125 C 1.65625 -3.265625 2.328125 -3.734375 2.890625 -3.734375 C 3.421875 -3.734375 3.546875 -3.28125 3.546875 -2.75 L 3.546875 -0.6875 C 3.546875 -0.28125 3.4375 -0.28125 2.84375 -0.28125 L 2.84375 0 C 3.265625 -0.015625 3.4375 -0.03125 3.875 -0.03125 C 4.296875 -0.03125 4.421875 -0.015625 4.890625 0 L 4.890625 -0.28125 C 4.4375 -0.28125 4.203125 -0.28125 4.203125 -0.546875 L 4.203125 -2.265625 C 4.203125 -3.015625 4.203125 -3.265625 3.953125 -3.578125 C 3.75 -3.828125 3.40625 -3.953125 2.953125 -3.953125 C 2.359375 -3.953125 1.921875 -3.640625 1.640625 -3.140625 Z M 1.640625 -6.203125 "/>
</g>
<g id="glyph-5-14">
<path d="M 3.078125 -3.765625 C 3.078125 -3.921875 3.078125 -4 2.96875 -4 C 2.921875 -4 2.90625 -4 2.78125 -3.890625 C 2.765625 -3.875 2.6875 -3.796875 2.640625 -3.75 C 2.359375 -3.953125 2.078125 -4 1.78125 -4 C 0.59375 -4 0.296875 -3.359375 0.296875 -2.890625 C 0.296875 -2.609375 0.421875 -2.375 0.640625 -2.1875 C 0.9375 -1.90625 1.28125 -1.84375 1.734375 -1.765625 C 2.1875 -1.671875 2.34375 -1.640625 2.53125 -1.5 C 2.625 -1.421875 2.84375 -1.25 2.84375 -0.90625 C 2.84375 -0.125 1.953125 -0.125 1.828125 -0.125 C 0.90625 -0.125 0.671875 -0.890625 0.578125 -1.375 C 0.546875 -1.453125 0.53125 -1.515625 0.421875 -1.515625 C 0.296875 -1.515625 0.296875 -1.4375 0.296875 -1.28125 L 0.296875 -0.140625 C 0.296875 0.015625 0.296875 0.09375 0.40625 0.09375 C 0.46875 0.09375 0.46875 0.09375 0.640625 -0.078125 C 0.671875 -0.140625 0.765625 -0.25 0.8125 -0.296875 C 1.1875 0.078125 1.59375 0.09375 1.828125 0.09375 C 2.921875 0.09375 3.3125 -0.546875 3.3125 -1.140625 C 3.3125 -1.546875 3.125 -1.78125 2.9375 -2 C 2.625 -2.28125 2.3125 -2.34375 1.640625 -2.46875 C 1.40625 -2.515625 0.765625 -2.640625 0.765625 -3.140625 C 0.765625 -3.4375 0.96875 -3.8125 1.78125 -3.8125 C 2.75 -3.8125 2.8125 -3.0625 2.828125 -2.84375 C 2.828125 -2.734375 2.828125 -2.6875 2.953125 -2.6875 C 3.078125 -2.6875 3.078125 -2.75 3.078125 -2.90625 Z M 3.078125 -3.765625 "/>
</g>
<g id="glyph-5-15">
<path d="M 3.484375 -1.078125 C 3.484375 -0.90625 3.484375 -0.890625 3.34375 -0.703125 C 3.0625 -0.296875 2.65625 -0.125 2.296875 -0.125 C 1.90625 -0.125 1.5625 -0.34375 1.328125 -0.71875 C 1.09375 -1.09375 1.078125 -1.625 1.078125 -1.90625 C 1.078125 -2.328125 1.125 -2.8125 1.359375 -3.15625 C 1.5625 -3.453125 1.921875 -3.734375 2.390625 -3.734375 C 2.765625 -3.734375 3.125 -3.546875 3.375 -3.203125 C 3.484375 -3.0625 3.484375 -3.046875 3.484375 -2.875 Z M 3.5 -3.421875 C 3.453125 -3.484375 3.0625 -3.953125 2.359375 -3.953125 C 1.265625 -3.953125 0.296875 -3.078125 0.296875 -1.921875 C 0.296875 -0.796875 1.203125 0.09375 2.265625 0.09375 C 2.90625 0.09375 3.3125 -0.28125 3.484375 -0.46875 L 3.484375 0.09375 L 4.828125 0 L 4.828125 -0.28125 C 4.21875 -0.28125 4.140625 -0.34375 4.140625 -0.78125 L 4.140625 -6.203125 L 2.8125 -6.109375 L 2.8125 -5.828125 C 3.421875 -5.828125 3.5 -5.765625 3.5 -5.328125 Z M 3.5 -3.421875 "/>
</g>
<g id="glyph-5-16">
<path d="M 5.6875 -2.984375 C 5.890625 -3.53125 6.25 -3.5625 6.4375 -3.578125 L 6.4375 -3.859375 C 6.09375 -3.828125 6.0625 -3.828125 5.78125 -3.828125 C 5.4375 -3.828125 5.3125 -3.828125 4.953125 -3.859375 L 4.953125 -3.578125 C 5.328125 -3.5625 5.453125 -3.328125 5.453125 -3.140625 C 5.453125 -3.0625 5.4375 -3 5.421875 -2.9375 L 4.59375 -0.703125 L 3.6875 -3.15625 C 3.640625 -3.265625 3.640625 -3.296875 3.640625 -3.328125 C 3.640625 -3.5625 3.921875 -3.578125 4.15625 -3.578125 L 4.15625 -3.859375 C 3.75 -3.828125 3.375 -3.828125 3.234375 -3.828125 C 2.953125 -3.828125 2.703125 -3.828125 2.40625 -3.859375 L 2.40625 -3.578125 C 2.703125 -3.578125 2.875 -3.5625 2.96875 -3.4375 C 3.0625 -3.34375 3.171875 -2.984375 3.171875 -2.953125 C 3.171875 -2.9375 3.125 -2.84375 3.125 -2.828125 L 2.390625 -0.828125 L 1.546875 -3.140625 C 1.5 -3.28125 1.5 -3.296875 1.5 -3.328125 C 1.5 -3.578125 1.84375 -3.578125 2.015625 -3.578125 L 2.015625 -3.859375 C 1.59375 -3.828125 1.390625 -3.828125 1.03125 -3.828125 C 0.734375 -3.828125 0.484375 -3.828125 0.171875 -3.859375 L 0.171875 -3.578125 C 0.609375 -3.578125 0.71875 -3.5625 0.828125 -3.25 L 1.984375 -0.09375 C 2.03125 0.015625 2.0625 0.09375 2.1875 0.09375 C 2.328125 0.09375 2.359375 0 2.390625 -0.09375 L 3.3125 -2.59375 L 4.234375 -0.09375 C 4.265625 0 4.296875 0.09375 4.4375 0.09375 C 4.5625 0.09375 4.59375 0.015625 4.625 -0.078125 Z M 5.6875 -2.984375 "/>
</g>
<g id="glyph-5-17">
<path d="M 1.59375 -1.9375 L 1.59375 -6.203125 L 0.265625 -6.109375 L 0.265625 -5.828125 C 0.875 -5.828125 0.953125 -5.765625 0.953125 -5.328125 L 0.953125 -0.6875 C 0.953125 -0.28125 0.859375 -0.28125 0.265625 -0.28125 L 0.265625 0 C 0.65625 -0.015625 0.890625 -0.03125 1.265625 -0.03125 C 1.625 -0.03125 1.84375 -0.015625 2.25 0 L 2.25 -0.28125 C 1.65625 -0.28125 1.5625 -0.28125 1.5625 -0.6875 L 1.5625 -1.59375 L 2.140625 -2.078125 L 3 -0.90625 C 3.140625 -0.703125 3.21875 -0.59375 3.21875 -0.46875 C 3.21875 -0.390625 3.1875 -0.28125 2.90625 -0.28125 L 2.90625 0 C 3.3125 -0.015625 3.53125 -0.03125 3.875 -0.03125 C 4.140625 -0.03125 4.421875 -0.03125 4.6875 0 L 4.6875 -0.28125 C 4.390625 -0.28125 4.171875 -0.28125 3.859375 -0.71875 L 2.578125 -2.4375 C 3.453125 -3.203125 3.875 -3.546875 4.484375 -3.578125 L 4.484375 -3.859375 C 4.171875 -3.828125 4.140625 -3.828125 3.8125 -3.828125 C 3.546875 -3.828125 3.3125 -3.828125 2.828125 -3.859375 L 2.828125 -3.578125 C 2.96875 -3.5625 3.078125 -3.5 3.078125 -3.359375 C 3.078125 -3.1875 2.9375 -3.078125 2.84375 -3 Z M 1.59375 -1.9375 "/>
</g>
<g id="glyph-5-18">
<path d="M 3.578125 -2.046875 C 3.765625 -2.046875 3.8125 -2.046875 3.8125 -2.234375 C 3.8125 -3.15625 3.3125 -4 2.171875 -4 C 1.09375 -4 0.265625 -3.078125 0.265625 -1.96875 C 0.265625 -0.796875 1.203125 0.09375 2.28125 0.09375 C 3.375 0.09375 3.8125 -0.859375 3.8125 -1.0625 C 3.8125 -1.125 3.765625 -1.1875 3.6875 -1.1875 C 3.609375 -1.1875 3.578125 -1.125 3.5625 -1.078125 C 3.265625 -0.171875 2.46875 -0.15625 2.328125 -0.15625 C 1.90625 -0.15625 1.53125 -0.390625 1.328125 -0.703125 C 1.03125 -1.140625 1.03125 -1.671875 1.03125 -2.046875 Z M 1.03125 -2.265625 C 1.125 -3.640625 1.921875 -3.78125 2.171875 -3.78125 C 2.65625 -3.78125 3.203125 -3.40625 3.203125 -2.265625 Z M 1.03125 -2.265625 "/>
</g>
<g id="glyph-5-19">
<path d="M 2.65625 -2.25 C 2.65625 -2.96875 2.5625 -3.953125 2.09375 -4.953125 C 1.5625 -6.046875 0.734375 -6.703125 0.625 -6.703125 C 0.53125 -6.703125 0.515625 -6.625 0.515625 -6.609375 C 0.515625 -6.5625 0.53125 -6.53125 0.59375 -6.46875 C 1.125 -6 2.09375 -4.796875 2.09375 -2.25 C 2.09375 -0.96875 1.875 0.8125 0.578125 2.015625 C 0.546875 2.046875 0.515625 2.078125 0.515625 2.125 C 0.515625 2.15625 0.53125 2.21875 0.625 2.21875 C 0.734375 2.21875 1.53125 1.578125 2.015625 0.609375 C 2.453125 -0.25 2.65625 -1.171875 2.65625 -2.25 Z M 2.65625 -2.25 "/>
</g>
<g id="glyph-6-0">
<path d="M -1.03125 -6.703125 L -5.421875 -5.234375 C -5.453125 -5.234375 -5.515625 -5.203125 -5.546875 -5.203125 C -5.828125 -5.203125 -5.828125 -5.71875 -5.828125 -5.953125 L -6.109375 -5.953125 C -6.078125 -5.546875 -6.078125 -5.109375 -6.078125 -4.703125 C -6.078125 -4.203125 -6.078125 -4.140625 -6.109375 -3.59375 L -5.828125 -3.59375 C -5.828125 -4.046875 -5.8125 -4.21875 -5.65625 -4.3125 C -5.546875 -4.390625 -4.9375 -4.578125 -4.9375 -4.578125 C -4.921875 -4.578125 -4.828125 -4.546875 -4.8125 -4.546875 L -1.03125 -3.28125 L -5.390625 -1.828125 C -5.5 -1.78125 -5.515625 -1.78125 -5.546875 -1.78125 C -5.828125 -1.78125 -5.828125 -2.28125 -5.828125 -2.53125 L -6.109375 -2.53125 C -6.078125 -2.125 -6.078125 -1.6875 -6.078125 -1.28125 C -6.078125 -0.78125 -6.078125 -0.71875 -6.109375 -0.171875 L -5.828125 -0.171875 C -5.828125 -0.671875 -5.828125 -0.859375 -5.484375 -0.96875 L 0.015625 -2.8125 C 0.140625 -2.84375 0.203125 -2.890625 0.203125 -3 C 0.203125 -3.078125 0.171875 -3.140625 0.015625 -3.203125 L -4.546875 -4.703125 L -0.015625 -6.234375 C 0.140625 -6.28125 0.203125 -6.296875 0.203125 -6.421875 C 0.203125 -6.53125 0.140625 -6.578125 0.015625 -6.625 L -5.1875 -8.359375 C -5.59375 -8.484375 -5.8125 -8.734375 -5.828125 -9.265625 L -6.109375 -9.265625 C -6.078125 -8.984375 -6.078125 -8.703125 -6.078125 -8.421875 C -6.078125 -8.140625 -6.09375 -7.890625 -6.109375 -7.359375 L -5.828125 -7.359375 C -5.8125 -7.921875 -5.546875 -8.140625 -5.34375 -8.140625 C -5.296875 -8.140625 -5.265625 -8.109375 -5.203125 -8.09375 Z M -1.03125 -6.703125 "/>
</g>
<g id="glyph-6-1">
<path d="M -0.640625 -3.0625 C -0.265625 -3.09375 0.046875 -3.359375 0.046875 -3.75 C 0.046875 -3.96875 -0.078125 -4.53125 -0.796875 -4.53125 L -1.296875 -4.53125 L -1.296875 -4.28125 L -0.796875 -4.28125 C -0.703125 -4.28125 -0.265625 -4.28125 -0.265625 -3.953125 C -0.265625 -3.640625 -0.6875 -3.640625 -0.828125 -3.640625 L -2.390625 -3.640625 C -2.90625 -3.640625 -3.203125 -3.640625 -3.578125 -3.234375 C -3.875 -2.90625 -4 -2.46875 -4 -2.03125 C -4 -1.28125 -3.625 -0.65625 -3.0625 -0.65625 C -2.78125 -0.65625 -2.625 -0.84375 -2.625 -1.078125 C -2.625 -1.3125 -2.8125 -1.484375 -3.03125 -1.484375 C -3.421875 -1.484375 -3.46875 -1.09375 -3.46875 -1.078125 C -3.703125 -1.328125 -3.78125 -1.75 -3.78125 -2.015625 C -3.78125 -2.46875 -3.4375 -2.96875 -2.65625 -2.96875 L -2.359375 -2.96875 C -2.34375 -2.5 -2.296875 -1.828125 -2.015625 -1.21875 C -1.703125 -0.578125 -1.234375 -0.390625 -0.875 -0.390625 C -0.140625 -0.390625 0.09375 -1.25 0.09375 -1.84375 C 0.09375 -2.59375 -0.390625 -2.9375 -0.640625 -3.0625 Z M -1.265625 -2.96875 C -0.390625 -2.96875 -0.125 -2.3125 -0.125 -1.90625 C -0.125 -1.5 -0.421875 -1.09375 -0.875 -1.09375 C -1.46875 -1.09375 -2.09375 -1.609375 -2.140625 -2.96875 Z M -1.265625 -2.96875 "/>
</g>
<g id="glyph-6-2">
<path d="M -1.59375 -1.125 C -1.453125 -1.34375 -1.328125 -1.625 -1.328125 -2.03125 C -1.328125 -2.875 -1.9375 -3.515625 -2.640625 -3.515625 C -3.078125 -3.515625 -3.375 -3.265625 -3.5 -3.15625 C -3.828125 -3.515625 -3.828125 -3.9375 -3.828125 -4.046875 C -3.796875 -4 -3.75 -3.921875 -3.59375 -3.921875 C -3.5 -3.921875 -3.328125 -3.984375 -3.328125 -4.1875 C -3.328125 -4.3125 -3.421875 -4.453125 -3.609375 -4.453125 C -3.765625 -4.453125 -4.046875 -4.328125 -4.046875 -3.984375 C -4.046875 -3.71875 -3.953125 -3.3125 -3.625 -3 C -3.828125 -2.765625 -3.953125 -2.40625 -3.953125 -2.03125 C -3.953125 -1.1875 -3.34375 -0.546875 -2.640625 -0.546875 C -2.1875 -0.546875 -1.859375 -0.8125 -1.71875 -0.953125 C -1.703125 -0.9375 -1.390625 -0.6875 -0.984375 -0.6875 C -0.671875 -0.6875 -0.359375 -0.828125 -0.203125 -1.078125 C -0.046875 -0.609375 0.28125 -0.265625 0.703125 -0.265625 C 1.328125 -0.265625 1.84375 -1.140625 1.84375 -2.28125 C 1.84375 -3.390625 1.375 -4.328125 0.671875 -4.328125 C 0.3125 -4.328125 -0.078125 -4.15625 -0.296875 -3.828125 C -0.609375 -3.328125 -0.609375 -2.8125 -0.609375 -1.953125 C -0.609375 -1.78125 -0.609375 -1.5 -0.625 -1.421875 C -0.671875 -1.15625 -0.921875 -0.984375 -1.203125 -0.984375 C -1.34375 -0.984375 -1.484375 -1.03125 -1.59375 -1.125 Z M -1.5625 -2.03125 C -1.5625 -1.234375 -2.4375 -1.234375 -2.640625 -1.234375 C -2.875 -1.234375 -3.1875 -1.25 -3.390625 -1.40625 C -3.578125 -1.53125 -3.703125 -1.78125 -3.703125 -2.03125 C -3.703125 -2.828125 -2.84375 -2.828125 -2.640625 -2.828125 C -2.4375 -2.828125 -1.5625 -2.828125 -1.5625 -2.03125 Z M -0.046875 -2.4375 C -0.046875 -2.71875 -0.03125 -3.828125 0.6875 -3.828125 C 1.203125 -3.828125 1.59375 -3.140625 1.59375 -2.296875 C 1.59375 -1.421875 1.1875 -0.765625 0.6875 -0.765625 C 0.546875 -0.765625 -0.046875 -0.84375 -0.046875 -1.625 Z M -0.046875 -2.4375 "/>
</g>
<g id="glyph-6-3">
<path d="M -2.046875 -3.578125 C -2.046875 -3.765625 -2.046875 -3.8125 -2.234375 -3.8125 C -3.15625 -3.8125 -4 -3.3125 -4 -2.171875 C -4 -1.09375 -3.078125 -0.265625 -1.96875 -0.265625 C -0.796875 -0.265625 0.09375 -1.203125 0.09375 -2.28125 C 0.09375 -3.375 -0.859375 -3.8125 -1.0625 -3.8125 C -1.125 -3.8125 -1.1875 -3.765625 -1.1875 -3.6875 C -1.1875 -3.609375 -1.125 -3.578125 -1.078125 -3.5625 C -0.171875 -3.265625 -0.15625 -2.46875 -0.15625 -2.328125 C -0.15625 -1.90625 -0.390625 -1.53125 -0.703125 -1.328125 C -1.140625 -1.03125 -1.671875 -1.03125 -2.046875 -1.03125 Z M -2.265625 -1.03125 C -3.640625 -1.125 -3.78125 -1.921875 -3.78125 -2.171875 C -3.78125 -2.65625 -3.40625 -3.203125 -2.265625 -3.203125 Z M -2.265625 -1.03125 "/>
</g>
<g id="glyph-6-4">
<path d="M -2.046875 -1.59375 C -2.40625 -1.59375 -3.734375 -1.6875 -3.734375 -2.703125 L -3.71875 -2.703125 C -3.703125 -2.6875 -3.609375 -2.546875 -3.390625 -2.546875 C -3.140625 -2.546875 -3 -2.734375 -3 -2.9375 C -3 -3.125 -3.125 -3.328125 -3.390625 -3.328125 C -3.6875 -3.328125 -3.953125 -3.0625 -3.953125 -2.65625 C -3.953125 -2.125 -3.578125 -1.75 -3.015625 -1.546875 L -3.015625 -1.53125 L -3.953125 -1.53125 L -3.859375 -0.265625 L -3.578125 -0.265625 C -3.578125 -0.875 -3.515625 -0.953125 -3.078125 -0.953125 L -0.6875 -0.953125 C -0.28125 -0.953125 -0.28125 -0.859375 -0.28125 -0.265625 L 0 -0.265625 C -0.015625 -0.734375 -0.03125 -0.859375 -0.03125 -1.3125 C -0.03125 -1.671875 -0.015625 -1.890625 0 -2.453125 L -0.28125 -2.453125 L -0.28125 -2.265625 C -0.28125 -1.625 -0.375 -1.59375 -0.703125 -1.59375 Z M -2.046875 -1.59375 "/>
</g>
<g id="glyph-6-5">
<path d="M -3.578125 -2.90625 L -3.859375 -2.90625 L -3.859375 -1.609375 L -5.5 -1.609375 L -5.5 -1.359375 C -4.75 -1.34375 -3.828125 -1.03125 -3.796875 -0.171875 L -3.578125 -0.171875 L -3.578125 -0.953125 L -1.109375 -0.953125 C -0.109375 -0.953125 0.09375 -1.671875 0.09375 -2.140625 C 0.09375 -2.75 -0.46875 -3.0625 -1.109375 -3.0625 L -1.625 -3.0625 L -1.625 -2.8125 L -1.140625 -2.8125 C -0.46875 -2.8125 -0.15625 -2.53125 -0.15625 -2.203125 C -0.15625 -1.609375 -0.9375 -1.609375 -1.09375 -1.609375 L -3.578125 -1.609375 Z M -3.578125 -2.90625 "/>
</g>
<g id="glyph-6-6">
<path d="M 2.125 -3.046875 C 2.078125 -3.046875 2.0625 -3.015625 2 -2.96875 C 0.9375 -1.8125 -0.671875 -1.46875 -2.234375 -1.46875 C -3.625 -1.46875 -5.296875 -1.734375 -6.5 -3 C -6.53125 -3.03125 -6.5625 -3.046875 -6.609375 -3.046875 C -6.671875 -3.046875 -6.703125 -3 -6.703125 -2.9375 C -6.703125 -2.828125 -6.0625 -2.03125 -5.078125 -1.546875 C -4.234375 -1.125 -3.3125 -0.90625 -2.25 -0.90625 C -1.59375 -0.90625 -0.578125 -0.984375 0.46875 -1.46875 C 1.578125 -2 2.21875 -2.828125 2.21875 -2.9375 C 2.21875 -3 2.1875 -3.046875 2.125 -3.046875 Z M 2.125 -3.046875 "/>
</g>
<g id="glyph-6-7">
<path d="M -3 -1.625 C -3.515625 -1.921875 -3.703125 -2.40625 -3.703125 -2.78125 C -3.703125 -3.484375 -2.890625 -4.015625 -1.9375 -4.015625 C -0.90625 -4.015625 -0.125 -3.421875 -0.125 -2.6875 C -0.125 -2.28125 -0.359375 -1.953125 -0.671875 -1.734375 C -0.84375 -1.625 -0.859375 -1.625 -1.03125 -1.625 Z M -0.421875 -1.625 C -0.203125 -1.84375 0.09375 -2.15625 0.09375 -2.75 C 0.09375 -3.8125 -0.765625 -4.796875 -1.9375 -4.796875 C -3.0625 -4.796875 -3.953125 -3.921875 -3.953125 -2.859375 C -3.953125 -2.375 -3.75 -1.9375 -3.390625 -1.59375 L -3.953125 -1.59375 L -3.859375 -0.265625 L -3.578125 -0.265625 C -3.578125 -0.90625 -3.515625 -0.953125 -3.140625 -0.953125 L 1.046875 -0.953125 C 1.453125 -0.953125 1.453125 -0.859375 1.453125 -0.265625 L 1.734375 -0.265625 C 1.71875 -0.6875 1.703125 -0.859375 1.703125 -1.28125 C 1.703125 -1.71875 1.71875 -1.828125 1.734375 -2.3125 L 1.453125 -2.3125 C 1.453125 -1.71875 1.453125 -1.625 1.046875 -1.625 Z M -0.421875 -1.625 "/>
</g>
<g id="glyph-6-8">
<path d="M -6.203125 -1.640625 L -6.109375 -0.3125 L -5.828125 -0.3125 C -5.828125 -0.921875 -5.765625 -1 -5.328125 -1 L -0.6875 -1 C -0.28125 -1 -0.28125 -0.90625 -0.28125 -0.3125 L 0 -0.3125 C -0.015625 -0.734375 -0.03125 -0.90625 -0.03125 -1.328125 C -0.03125 -1.765625 -0.015625 -1.875 0 -2.34375 L -0.28125 -2.34375 C -0.28125 -1.765625 -0.28125 -1.65625 -0.6875 -1.65625 L -2.3125 -1.65625 C -3.265625 -1.65625 -3.734375 -2.328125 -3.734375 -2.890625 C -3.734375 -3.421875 -3.28125 -3.546875 -2.75 -3.546875 L -0.6875 -3.546875 C -0.28125 -3.546875 -0.28125 -3.4375 -0.28125 -2.84375 L 0 -2.84375 C -0.015625 -3.265625 -0.03125 -3.4375 -0.03125 -3.875 C -0.03125 -4.296875 -0.015625 -4.421875 0 -4.890625 L -0.28125 -4.890625 C -0.28125 -4.4375 -0.28125 -4.203125 -0.546875 -4.203125 L -2.265625 -4.203125 C -3.015625 -4.203125 -3.265625 -4.203125 -3.578125 -3.953125 C -3.828125 -3.75 -3.953125 -3.40625 -3.953125 -2.953125 C -3.953125 -2.359375 -3.640625 -1.921875 -3.140625 -1.640625 Z M -6.203125 -1.640625 "/>
</g>
<g id="glyph-6-9">
<path d="M -1.90625 -4.328125 C -3.078125 -4.328125 -4 -3.390625 -4 -2.296875 C -4 -1.15625 -3.046875 -0.265625 -1.90625 -0.265625 C -0.78125 -0.265625 0.09375 -1.1875 0.09375 -2.28125 C 0.09375 -3.421875 -0.796875 -4.328125 -1.90625 -4.328125 Z M -0.15625 -2.296875 C -0.15625 -1.84375 -0.375 -1.46875 -0.71875 -1.265625 C -1.09375 -1.03125 -1.578125 -1.03125 -1.984375 -1.03125 C -2.3125 -1.03125 -2.828125 -1.03125 -3.1875 -1.25 C -3.640625 -1.515625 -3.78125 -1.96875 -3.78125 -2.28125 C -3.78125 -2.796875 -3.5 -3.15625 -3.1875 -3.34375 C -2.8125 -3.546875 -2.359375 -3.5625 -1.984375 -3.5625 C -1.65625 -3.5625 -1.140625 -3.5625 -0.734375 -3.328125 C -0.328125 -3.078125 -0.15625 -2.671875 -0.15625 -2.296875 Z M -0.15625 -2.296875 "/>
</g>
<g id="glyph-6-10">
<path d="M -1.5 -3.546875 C -0.703125 -3.546875 -0.125 -3.09375 -0.125 -2.453125 C -0.125 -1.703125 -0.515625 -1.65625 -0.984375 -1.65625 L -3.953125 -1.65625 L -3.859375 -0.3125 L -3.578125 -0.3125 C -3.578125 -1 -3.546875 -1 -2.75 -1 L -1.40625 -1 C -0.828125 -1 -0.453125 -1 -0.140625 -1.40625 C 0.03125 -1.671875 0.09375 -2.03125 0.09375 -2.390625 C 0.09375 -2.859375 -0.109375 -3.296875 -0.640625 -3.5625 L 0.09375 -3.5625 L 0 -4.890625 L -0.28125 -4.890625 C -0.28125 -4.28125 -0.34375 -4.203125 -0.78125 -4.203125 L -3.953125 -4.203125 L -3.859375 -2.84375 L -3.578125 -2.84375 C -3.578125 -3.453125 -3.515625 -3.546875 -3.078125 -3.546875 Z M -1.5 -3.546875 "/>
</g>
<g id="glyph-6-11">
<path d="M -2.25 -2.65625 C -2.96875 -2.65625 -3.953125 -2.5625 -4.953125 -2.09375 C -6.046875 -1.5625 -6.703125 -0.734375 -6.703125 -0.625 C -6.703125 -0.53125 -6.625 -0.515625 -6.609375 -0.515625 C -6.5625 -0.515625 -6.53125 -0.53125 -6.46875 -0.59375 C -6 -1.125 -4.796875 -2.09375 -2.25 -2.09375 C -0.96875 -2.09375 0.8125 -1.875 2.015625 -0.578125 C 2.046875 -0.546875 2.078125 -0.515625 2.125 -0.515625 C 2.15625 -0.515625 2.21875 -0.53125 2.21875 -0.625 C 2.21875 -0.734375 1.578125 -1.53125 0.609375 -2.015625 C -0.25 -2.453125 -1.171875 -2.65625 -2.25 -2.65625 Z M -2.25 -2.65625 "/>
</g>
<g id="glyph-7-0">
<path d="M -6.71875 -2.15625 L -6.296875 -2.15625 C -6.296875 -1.25 -5.453125 -0.515625 -4.578125 -0.515625 C -3.84375 -0.515625 -3.1875 -1.015625 -2.953125 -1.734375 C -2.890625 -1.953125 -2.90625 -2.15625 -2.734375 -2.15625 L -0.203125 -2.15625 C -0.203125 -1.515625 -0.59375 -0.96875 -1.25 -0.796875 C -1.234375 -0.84375 -1.21875 -0.890625 -1.21875 -0.921875 C -1.21875 -1.203125 -1.4375 -1.34375 -1.640625 -1.34375 C -1.890625 -1.34375 -2.0625 -1.15625 -2.0625 -0.921875 C -2.0625 -0.6875 -1.890625 -0.515625 -1.59375 -0.515625 C -0.796875 -0.515625 -0.09375 -1 0.046875 -1.875 L 0.078125 -2.0625 C 0.078125 -2.125 0.109375 -2.15625 0.171875 -2.15625 L 0.484375 -2.15625 L 0.484375 -2.4375 L 0.078125 -2.4375 C 0.078125 -2.578125 0.03125 -2.71875 -0.015625 -2.875 C -0.265625 -3.625 -1.015625 -4.078125 -1.765625 -4.078125 C -2.6875 -4.078125 -3.484375 -3.40625 -3.609375 -2.4375 L -6.03125 -2.4375 C -5.984375 -2.59375 -5.984375 -2.765625 -5.9375 -2.9375 C -5.8125 -3.328125 -5.515625 -3.65625 -5.109375 -3.765625 C -5.109375 -3.734375 -5.109375 -3.703125 -5.109375 -3.671875 C -5.109375 -3.421875 -4.921875 -3.25 -4.703125 -3.25 C -4.46875 -3.25 -4.296875 -3.421875 -4.296875 -3.65625 C -4.296875 -4 -4.546875 -4.078125 -4.765625 -4.078125 C -5.5 -4.078125 -6.03125 -3.609375 -6.21875 -2.96875 C -6.28125 -2.796875 -6.28125 -2.625 -6.3125 -2.4375 L -6.71875 -2.4375 Z M -0.203125 -2.4375 L -2.78125 -2.4375 C -2.75 -2.5625 -2.71875 -2.6875 -2.671875 -2.8125 C -2.46875 -3.28125 -2 -3.609375 -1.484375 -3.609375 L -1.4375 -3.609375 C -0.765625 -3.546875 -0.265625 -3.078125 -0.203125 -2.4375 Z M -6.03125 -2.15625 L -3.6875 -2.15625 C -3.828125 -1.59375 -4.015625 -1.171875 -4.671875 -0.984375 C -4.734375 -0.984375 -4.796875 -0.96875 -4.859375 -0.96875 C -5.453125 -0.96875 -5.984375 -1.546875 -6.03125 -2.15625 Z M -6.03125 -2.15625 "/>
</g>
</g>
</defs>
<path fill="none" stroke-width="0.3985" stroke-linecap="butt" stroke-linejoin="miter" stroke="rgb(30.195618%, 29.804993%, 33.332825%)" stroke-opacity="1" stroke-miterlimit="10" d="M -0.000757531 0.000470928 L 246.202412 0.000470928 " transform="matrix(0.997366, 0, 0, -0.997366, 45.543724, 258.332501)"/>
<path fill-rule="nonzero" fill="rgb(30.195618%, 29.804993%, 33.332825%)" fill-opacity="1" stroke-width="0.3985" stroke-linecap="butt" stroke-linejoin="miter" stroke="rgb(30.195618%, 29.804993%, 33.332825%)" stroke-opacity="1" stroke-miterlimit="10" d="M 5.783929 0.000470928 C 5.071114 0.1728 1.949611 1.144108 -0.00083847 2.205498 L -0.00083847 -2.204556 C 1.949611 -1.143166 5.071114 -0.171858 5.783929 0.000470928 Z M 5.783929 0.000470928 " transform="matrix(0.997366, 0, 0, -0.997366, 291.098493, 258.332501)"/>
<path fill="none" stroke-width="0.3985" stroke-linecap="butt" stroke-linejoin="miter" stroke="rgb(30.195618%, 29.804993%, 33.332825%)" stroke-opacity="1" stroke-miterlimit="10" d="M -0.000757531 0.000470928 L -0.000757531 246.20364 " transform="matrix(0.997366, 0, 0, -0.997366, 45.543724, 258.332501)"/>
<path fill-rule="nonzero" fill="rgb(30.195618%, 29.804993%, 33.332825%)" fill-opacity="1" stroke-width="0.3985" stroke-linecap="butt" stroke-linejoin="miter" stroke="rgb(30.195618%, 29.804993%, 33.332825%)" stroke-opacity="1" stroke-miterlimit="10" d="M 5.780771 0.000757531 C 5.071873 0.173086 1.95037 1.144395 -0.0000800107 2.205784 L -0.0000800107 -2.204269 C 1.95037 -1.146796 5.071873 -0.171571 5.780771 0.000757531 Z M 5.780771 0.000757531 " transform="matrix(0, -0.997366, -0.997366, 0, 45.543724, 12.777264)"/>
<g fill="rgb(30.195618%, 29.804993%, 33.332825%)" fill-opacity="1">
<use xlink:href="#glyph-0-0" x="159.055952" y="269.396283"/>
</g>
<g fill="rgb(30.195618%, 29.804993%, 33.332825%)" fill-opacity="1">
<use xlink:href="#glyph-1-0" x="164.799783" y="270.500367"/>
</g>
<g fill="rgb(30.195618%, 29.804993%, 33.332825%)" fill-opacity="1">
<use xlink:href="#glyph-0-1" x="26.402275" y="180.336479"/>
</g>
<g fill="rgb(30.195618%, 29.804993%, 33.332825%)" fill-opacity="1">
<use xlink:href="#glyph-2-0" x="34.370232" y="181.67295"/>
</g>
<g fill="rgb(30.195618%, 29.804993%, 33.332825%)" fill-opacity="1">
<use xlink:href="#glyph-0-1" x="27.804571" y="140.430866"/>
</g>
<g fill="rgb(30.195618%, 29.804993%, 33.332825%)" fill-opacity="1">
<use xlink:href="#glyph-1-0" x="35.772529" y="141.53495"/>
</g>
<g fill="rgb(30.195618%, 29.804993%, 33.332825%)" fill-opacity="1">
<use xlink:href="#glyph-0-1" x="25.038875" y="100.292865"/>
</g>
<g fill="rgb(30.195618%, 29.804993%, 33.332825%)" fill-opacity="1">
<use xlink:href="#glyph-2-1" x="33.006833" y="101.628339"/>
</g>
<path fill="none" stroke-width="1.19553" stroke-linecap="butt" stroke-linejoin="miter" stroke="rgb(0%, 19.999695%, 39.99939%)" stroke-opacity="1" stroke-miterlimit="10" d="M 16.965806 200.642228 L 220.568487 40.129606 " transform="matrix(0.997366, 0, 0, -0.997366, 45.543724, 258.332501)"/>
<path fill="none" stroke-width="1.19553" stroke-linecap="butt" stroke-linejoin="miter" stroke="rgb(0%, 19.999695%, 39.99939%)" stroke-opacity="1" stroke-miterlimit="10" d="M 16.965806 40.129606 L 220.568487 200.642228 " transform="matrix(0.997366, 0, 0, -0.997366, 45.543724, 258.332501)"/>
<path fill="none" stroke-width="0.3985" stroke-linecap="butt" stroke-linejoin="miter" stroke="rgb(79.998779%, 79.998779%, 79.998779%)" stroke-opacity="1" stroke-dasharray="2.98883 2.98883" stroke-miterlimit="10" d="M 118.769105 120.383959 L 118.769105 76.24426 " transform="matrix(0.997366, 0, 0, -0.997366, 45.543724, 258.332501)"/>
<path fill="none" stroke-width="0.3985" stroke-linecap="butt" stroke-linejoin="miter" stroke="rgb(79.998779%, 79.998779%, 79.998779%)" stroke-opacity="1" stroke-dasharray="2.98883 2.98883" stroke-miterlimit="10" d="M 118.769105 57.515242 L 118.769105 0.000470928 " transform="matrix(0.997366, 0, 0, -0.997366, 45.543724, 258.332501)"/>
<path fill="none" stroke-width="0.3985" stroke-linecap="butt" stroke-linejoin="miter" stroke="rgb(79.998779%, 79.998779%, 79.998779%)" stroke-opacity="1" stroke-dasharray="2.98883 2.98883" stroke-miterlimit="10" d="M 118.769105 120.383959 L -0.000757531 120.383959 " transform="matrix(0.997366, 0, 0, -0.997366, 45.543724, 258.332501)"/>
<path fill="none" stroke-width="1.19553" stroke-linecap="butt" stroke-linejoin="miter" stroke="rgb(79.998779%, 0%, 0%)" stroke-opacity="1" stroke-miterlimit="10" d="M 1.695116 160.513093 L 210.389332 160.513093 " transform="matrix(0.997366, 0, 0, -0.997366, 45.543724, 258.332501)"/>
<path fill="none" stroke-width="1.19553" stroke-linecap="butt" stroke-linejoin="miter" stroke="rgb(79.998779%, 0%, 0%)" stroke-opacity="1" stroke-miterlimit="10" d="M 1.695116 80.254824 L 210.389332 80.254824 " transform="matrix(0.997366, 0, 0, -0.997366, 45.543724, 258.332501)"/>
<path fill-rule="nonzero" fill="rgb(0%, 19.999695%, 39.99939%)" fill-opacity="1" d="M 166.183594 138.265625 C 166.183594 137.058594 165.207031 136.078125 164 136.078125 C 162.792969 136.078125 161.8125 137.058594 161.8125 138.265625 C 161.8125 139.472656 162.792969 140.449219 164 140.449219 C 165.207031 140.449219 166.183594 139.472656 166.183594 138.265625 Z M 166.183594 138.265625 "/>
<path fill-rule="nonzero" fill="rgb(79.998779%, 0%, 0%)" fill-opacity="1" d="M 115.417969 98.242188 C 115.417969 97.035156 114.441406 96.054688 113.234375 96.054688 C 112.023438 96.054688 111.046875 97.035156 111.046875 98.242188 C 111.046875 99.449219 112.023438 100.429688 113.234375 100.429688 C 114.441406 100.429688 115.417969 99.449219 115.417969 98.242188 Z M 115.417969 98.242188 "/>
<path fill-rule="nonzero" fill="rgb(79.998779%, 0%, 0%)" fill-opacity="1" d="M 216.953125 98.242188 C 216.953125 97.035156 215.972656 96.054688 214.765625 96.054688 C 213.558594 96.054688 212.578125 97.035156 212.578125 98.242188 C 212.578125 99.449219 213.558594 100.429688 214.765625 100.429688 C 215.972656 100.429688 216.953125 99.449219 216.953125 98.242188 Z M 216.953125 98.242188 "/>
<path fill-rule="nonzero" fill="rgb(79.998779%, 0%, 0%)" fill-opacity="1" d="M 115.417969 178.289062 C 115.417969 177.082031 114.441406 176.101562 113.234375 176.101562 C 112.023438 176.101562 111.046875 177.082031 111.046875 178.289062 C 111.046875 179.496094 112.023438 180.472656 113.234375 180.472656 C 114.441406 180.472656 115.417969 179.496094 115.417969 178.289062 Z M 115.417969 178.289062 "/>
<path fill-rule="nonzero" fill="rgb(79.998779%, 0%, 0%)" fill-opacity="1" d="M 216.953125 178.289062 C 216.953125 177.082031 215.972656 176.101562 214.765625 176.101562 C 213.558594 176.101562 212.578125 177.082031 212.578125 178.289062 C 212.578125 179.496094 213.558594 180.472656 214.765625 180.472656 C 215.972656 180.472656 216.953125 179.496094 216.953125 178.289062 Z M 216.953125 178.289062 "/>
<g fill="rgb(0%, 19.999695%, 39.99939%)" fill-opacity="1">
<use xlink:href="#glyph-3-0" x="273.271322" y="59.944421"/>
</g>
<g fill="rgb(0%, 19.999695%, 39.99939%)" fill-opacity="1">
<use xlink:href="#glyph-3-1" x="273.271322" y="222.700601"/>
</g>
<g fill="rgb(79.998779%, 0%, 0%)" fill-opacity="1">
<use xlink:href="#glyph-4-0" x="263.118135" y="100.558165"/>
<use xlink:href="#glyph-4-1" x="268.627662" y="100.558165"/>
<use xlink:href="#glyph-4-2" x="270.973443" y="100.558165"/>
</g>
<g fill="rgb(79.998779%, 0%, 0%)" fill-opacity="1">
<use xlink:href="#glyph-4-2" x="275.427328" y="100.558165"/>
<use xlink:href="#glyph-4-3" x="279.650689" y="100.558165"/>
</g>
<g fill="rgb(79.998779%, 0%, 0%)" fill-opacity="1">
<use xlink:href="#glyph-0-1" x="285.764347" y="100.558165"/>
</g>
<g fill="rgb(79.998779%, 0%, 0%)" fill-opacity="1">
<use xlink:href="#glyph-2-1" x="293.729295" y="101.893638"/>
</g>
<g fill="rgb(79.998779%, 0%, 0%)" fill-opacity="1">
<use xlink:href="#glyph-4-4" x="302.980863" y="100.558165"/>
</g>
<g fill="rgb(79.998779%, 0%, 0%)" fill-opacity="1">
<use xlink:href="#glyph-4-5" x="311.894991" y="100.558165"/>
<use xlink:href="#glyph-4-6" x="316.118352" y="100.558165"/>
<use xlink:href="#glyph-4-7" x="320.341713" y="100.558165"/>
</g>
<g fill="rgb(79.998779%, 0%, 0%)" fill-opacity="1">
<use xlink:href="#glyph-4-8" x="263.118135" y="180.497055"/>
<use xlink:href="#glyph-4-9" x="269.21828" y="180.497055"/>
<use xlink:href="#glyph-4-10" x="272.971849" y="180.497055"/>
<use xlink:href="#glyph-4-1" x="275.31763" y="180.497055"/>
<use xlink:href="#glyph-4-10" x="277.663412" y="180.497055"/>
<use xlink:href="#glyph-4-11" x="280.009194" y="180.497055"/>
<use xlink:href="#glyph-4-12" x="284.701552" y="180.497055"/>
</g>
<g fill="rgb(79.998779%, 0%, 0%)" fill-opacity="1">
<use xlink:href="#glyph-0-1" x="291.738896" y="180.497055"/>
</g>
<g fill="rgb(79.998779%, 0%, 0%)" fill-opacity="1">
<use xlink:href="#glyph-2-0" x="299.709502" y="181.832529"/>
</g>
<g fill="rgb(79.998779%, 0%, 0%)" fill-opacity="1">
<use xlink:href="#glyph-4-4" x="307.59767" y="180.497055"/>
</g>
<g fill="rgb(79.998779%, 0%, 0%)" fill-opacity="1">
<use xlink:href="#glyph-4-5" x="316.511799" y="180.497055"/>
<use xlink:href="#glyph-4-13" x="320.73516" y="180.497055"/>
</g>
<path fill="none" stroke-width="0.79701" stroke-linecap="butt" stroke-linejoin="miter" stroke="rgb(79.998779%, 0%, 0%)" stroke-opacity="1" stroke-miterlimit="10" d="M 69.565287 167.202588 L 104.728216 167.202588 " transform="matrix(0.997366, 0, 0, -0.997366, 45.543724, 258.332501)"/>
<path fill-rule="nonzero" fill="rgb(79.998779%, 0%, 0%)" fill-opacity="1" stroke-width="0.79701" stroke-linecap="butt" stroke-linejoin="miter" stroke="rgb(79.998779%, 0%, 0%)" stroke-opacity="1" stroke-miterlimit="10" d="M 4.76211 0.00173811 C 4.178542 0.146651 1.605358 0.965213 -0.000433895 1.85819 L -0.000433895 -1.858631 C 1.605358 -0.965654 4.178542 -0.143175 4.76211 0.00173811 Z M 4.76211 0.00173811 " transform="matrix(0.997366, 0, 0, -0.997366, 149.996527, 91.572046)"/>
<path fill="none" stroke-width="0.79701" stroke-linecap="butt" stroke-linejoin="miter" stroke="rgb(79.998779%, 0%, 0%)" stroke-opacity="1" stroke-miterlimit="10" d="M 167.972923 167.202588 L 132.809994 167.202588 " transform="matrix(0.997366, 0, 0, -0.997366, 45.543724, 258.332501)"/>
<path fill-rule="nonzero" fill="rgb(79.998779%, 0%, 0%)" fill-opacity="1" stroke-width="0.79701" stroke-linecap="butt" stroke-linejoin="miter" stroke="rgb(79.998779%, 0%, 0%)" stroke-opacity="1" stroke-miterlimit="10" d="M 4.76087 -0.00173811 C 4.177302 0.143175 1.608035 0.965654 -0.001674 1.858631 L -0.001674 -1.85819 C 1.608035 -0.965213 4.177302 -0.146651 4.76087 -0.00173811 Z M 4.76087 -0.00173811 " transform="matrix(-0.997366, 0, 0, 0.997366, 178.002237, 91.572046)"/>
<g fill="rgb(79.998779%, 0%, 0%)" fill-opacity="1">
<use xlink:href="#glyph-4-14" x="120.400037" y="71.967669"/>
<use xlink:href="#glyph-4-15" x="125.092395" y="71.967669"/>
<use xlink:href="#glyph-4-3" x="129.784754" y="71.967669"/>
<use xlink:href="#glyph-4-16" x="133.076479" y="71.967669"/>
<use xlink:href="#glyph-4-1" x="137.768837" y="71.967669"/>
<use xlink:href="#glyph-4-15" x="140.114618" y="71.967669"/>
<use xlink:href="#glyph-4-17" x="144.806977" y="71.967669"/>
</g>
<g fill="rgb(79.998779%, 0%, 0%)" fill-opacity="1">
<use xlink:href="#glyph-4-2" x="150.952431" y="71.967669"/>
<use xlink:href="#glyph-4-18" x="155.175792" y="71.967669"/>
</g>
<g fill="rgb(79.998779%, 0%, 0%)" fill-opacity="1">
<use xlink:href="#glyph-4-1" x="160.570851" y="71.967669"/>
<use xlink:href="#glyph-4-19" x="162.916633" y="71.967669"/>
<use xlink:href="#glyph-4-20" x="167.139994" y="71.967669"/>
</g>
<g fill="rgb(79.998779%, 0%, 0%)" fill-opacity="1">
<use xlink:href="#glyph-4-2" x="172.070825" y="71.967669"/>
<use xlink:href="#glyph-4-3" x="176.294186" y="71.967669"/>
</g>
<g fill="rgb(79.998779%, 0%, 0%)" fill-opacity="1">
<use xlink:href="#glyph-4-19" x="182.399895" y="71.967669"/>
<use xlink:href="#glyph-4-21" x="186.623256" y="71.967669"/>
</g>
<g fill="rgb(79.998779%, 0%, 0%)" fill-opacity="1">
<use xlink:href="#glyph-0-1" x="192.721811" y="71.967669"/>
</g>
<g fill="rgb(79.998779%, 0%, 0%)" fill-opacity="1">
<use xlink:href="#glyph-2-1" x="200.690001" y="73.304139"/>
</g>
<g fill="rgb(79.998779%, 0%, 0%)" fill-opacity="1">
<use xlink:href="#glyph-4-22" x="133.615138" y="81.407739"/>
<use xlink:href="#glyph-4-15" x="136.899709" y="81.407739"/>
<use xlink:href="#glyph-4-11" x="141.592067" y="81.407739"/>
<use xlink:href="#glyph-4-9" x="146.284425" y="81.407739"/>
<use xlink:href="#glyph-4-23" x="150.037994" y="81.407739"/>
<use xlink:href="#glyph-4-16" x="157.076133" y="81.407739"/>
<use xlink:href="#glyph-4-1" x="161.768491" y="81.407739"/>
<use xlink:href="#glyph-4-2" x="164.114273" y="81.407739"/>
</g>
<g fill="rgb(79.998779%, 0%, 0%)" fill-opacity="1">
<use xlink:href="#glyph-4-24" x="168.107109" y="81.407739"/>
<use xlink:href="#glyph-4-23" x="172.564969" y="81.407739"/>
<use xlink:href="#glyph-4-9" x="179.603108" y="81.407739"/>
<use xlink:href="#glyph-4-11" x="183.356677" y="81.407739"/>
</g>
<g fill="rgb(79.998779%, 0%, 0%)" fill-opacity="1">
<use xlink:href="#glyph-4-21" x="187.810562" y="81.407739"/>
<use xlink:href="#glyph-4-25" x="191.095133" y="81.407739"/>
</g>
<path fill="none" stroke-width="0.79701" stroke-linecap="butt" stroke-linejoin="miter" stroke="rgb(79.998779%, 0%, 0%)" stroke-opacity="1" stroke-miterlimit="10" d="M 69.565287 73.569246 L 104.728216 73.569246 " transform="matrix(0.997366, 0, 0, -0.997366, 45.543724, 258.332501)"/>
<path fill-rule="nonzero" fill="rgb(79.998779%, 0%, 0%)" fill-opacity="1" stroke-width="0.79701" stroke-linecap="butt" stroke-linejoin="miter" stroke="rgb(79.998779%, 0%, 0%)" stroke-opacity="1" stroke-miterlimit="10" d="M 4.76211 0.000875826 C 4.178542 0.145789 1.605358 0.964351 -0.000433895 1.857328 L -0.000433895 -1.855576 C 1.605358 -0.966516 4.178542 -0.144037 4.76211 0.000875826 Z M 4.76211 0.000875826 " transform="matrix(0.997366, 0, 0, -0.997366, 149.996527, 184.957905)"/>
<path fill="none" stroke-width="0.79701" stroke-linecap="butt" stroke-linejoin="miter" stroke="rgb(79.998779%, 0%, 0%)" stroke-opacity="1" stroke-miterlimit="10" d="M 167.972923 73.569246 L 132.809994 73.569246 " transform="matrix(0.997366, 0, 0, -0.997366, 45.543724, 258.332501)"/>
<path fill-rule="nonzero" fill="rgb(79.998779%, 0%, 0%)" fill-opacity="1" stroke-width="0.79701" stroke-linecap="butt" stroke-linejoin="miter" stroke="rgb(79.998779%, 0%, 0%)" stroke-opacity="1" stroke-miterlimit="10" d="M 4.76087 -0.000875826 C 4.177302 0.144037 1.608035 0.966516 -0.001674 1.855576 L -0.001674 -1.857328 C 1.608035 -0.964351 4.177302 -0.145789 4.76087 -0.000875826 Z M 4.76087 -0.000875826 " transform="matrix(-0.997366, 0, 0, 0.997366, 178.002237, 184.957905)"/>
<g fill="rgb(79.998779%, 0%, 0%)" fill-opacity="1">
<use xlink:href="#glyph-4-14" x="118.75937" y="198.659092"/>
<use xlink:href="#glyph-4-26" x="123.451728" y="198.659092"/>
<use xlink:href="#glyph-4-2" x="128.144086" y="198.659092"/>
<use xlink:href="#glyph-4-3" x="132.367447" y="198.659092"/>
<use xlink:href="#glyph-4-21" x="135.659172" y="198.659092"/>
<use xlink:href="#glyph-4-19" x="138.943744" y="198.659092"/>
<use xlink:href="#glyph-4-12" x="143.167104" y="198.659092"/>
<use xlink:href="#glyph-4-9" x="147.390465" y="198.659092"/>
</g>
<g fill="rgb(79.998779%, 0%, 0%)" fill-opacity="1">
<use xlink:href="#glyph-4-2" x="153.958017" y="198.659092"/>
<use xlink:href="#glyph-4-18" x="158.181378" y="198.659092"/>
</g>
<g fill="rgb(79.998779%, 0%, 0%)" fill-opacity="1">
<use xlink:href="#glyph-4-1" x="163.576437" y="198.659092"/>
<use xlink:href="#glyph-4-19" x="165.922219" y="198.659092"/>
<use xlink:href="#glyph-4-20" x="170.14558" y="198.659092"/>
</g>
<g fill="rgb(79.998779%, 0%, 0%)" fill-opacity="1">
<use xlink:href="#glyph-4-2" x="175.076411" y="198.659092"/>
<use xlink:href="#glyph-4-3" x="179.299772" y="198.659092"/>
</g>
<g fill="rgb(79.998779%, 0%, 0%)" fill-opacity="1">
<use xlink:href="#glyph-4-19" x="185.405481" y="198.659092"/>
<use xlink:href="#glyph-4-21" x="189.628842" y="198.659092"/>
</g>
<g fill="rgb(79.998779%, 0%, 0%)" fill-opacity="1">
<use xlink:href="#glyph-0-1" x="195.727397" y="198.659092"/>
</g>
<g fill="rgb(79.998779%, 0%, 0%)" fill-opacity="1">
<use xlink:href="#glyph-2-0" x="203.694068" y="199.994565"/>
</g>
<g fill="rgb(30.195618%, 29.804993%, 33.332825%)" fill-opacity="1">
<use xlink:href="#glyph-5-0" x="89.166522" y="284.02864"/>
<use xlink:href="#glyph-5-1" x="96.315382" y="284.02864"/>
<use xlink:href="#glyph-5-2" x="101.421712" y="284.02864"/>
<use xlink:href="#glyph-5-3" x="106.017408" y="284.02864"/>
</g>
<g fill="rgb(30.195618%, 29.804993%, 33.332825%)" fill-opacity="1">
<use xlink:href="#glyph-5-4" x="110.864396" y="284.02864"/>
<use xlink:href="#glyph-5-5" x="114.438827" y="284.02864"/>
<use xlink:href="#glyph-5-4" x="116.991991" y="284.02864"/>
</g>
<g fill="rgb(30.195618%, 29.804993%, 33.332825%)" fill-opacity="1">
<use xlink:href="#glyph-5-6" x="120.316024" y="284.02864"/>
</g>
<g fill="rgb(30.195618%, 29.804993%, 33.332825%)" fill-opacity="1">
<use xlink:href="#glyph-5-7" x="128.225021" y="284.02864"/>
<use xlink:href="#glyph-5-8" x="132.820717" y="284.02864"/>
</g>
<g fill="rgb(30.195618%, 29.804993%, 33.332825%)" fill-opacity="1">
<use xlink:href="#glyph-5-9" x="138.696126" y="284.02864"/>
<use xlink:href="#glyph-5-2" x="141.249291" y="284.02864"/>
<use xlink:href="#glyph-5-10" x="145.844987" y="284.02864"/>
</g>
<g fill="rgb(30.195618%, 29.804993%, 33.332825%)" fill-opacity="1">
<use xlink:href="#glyph-5-7" x="151.210657" y="284.02864"/>
<use xlink:href="#glyph-5-11" x="155.806353" y="284.02864"/>
</g>
<g fill="rgb(30.195618%, 29.804993%, 33.332825%)" fill-opacity="1">
<use xlink:href="#glyph-5-12" x="162.459784" y="284.02864"/>
<use xlink:href="#glyph-5-4" x="166.034214" y="284.02864"/>
<use xlink:href="#glyph-5-13" x="169.608644" y="284.02864"/>
<use xlink:href="#glyph-5-7" x="174.714974" y="284.02864"/>
<use xlink:href="#glyph-5-1" x="179.31067" y="284.02864"/>
<use xlink:href="#glyph-5-14" x="184.416999" y="284.02864"/>
<use xlink:href="#glyph-5-2" x="188.042403" y="284.02864"/>
<use xlink:href="#glyph-5-3" x="192.6381" y="284.02864"/>
<use xlink:href="#glyph-5-15" x="197.744429" y="284.02864"/>
<use xlink:href="#glyph-5-14" x="202.850758" y="284.02864"/>
</g>
<g fill="rgb(30.195618%, 29.804993%, 33.332825%)" fill-opacity="1">
<use xlink:href="#glyph-5-7" x="209.543537" y="284.02864"/>
<use xlink:href="#glyph-5-8" x="214.139233" y="284.02864"/>
</g>
<g fill="rgb(30.195618%, 29.804993%, 33.332825%)" fill-opacity="1">
<use xlink:href="#glyph-5-16" x="220.005699" y="284.02864"/>
</g>
<g fill="rgb(30.195618%, 29.804993%, 33.332825%)" fill-opacity="1">
<use xlink:href="#glyph-5-7" x="226.393529" y="284.02864"/>
<use xlink:href="#glyph-5-11" x="230.989225" y="284.02864"/>
<use xlink:href="#glyph-5-17" x="234.584224" y="284.02864"/>
</g>
<g fill="rgb(30.195618%, 29.804993%, 33.332825%)" fill-opacity="1">
<use xlink:href="#glyph-5-18" x="239.175449" y="284.02864"/>
<use xlink:href="#glyph-5-11" x="243.264089" y="284.02864"/>
<use xlink:href="#glyph-5-14" x="246.859088" y="284.02864"/>
<use xlink:href="#glyph-5-19" x="250.484492" y="284.02864"/>
</g>
<g fill="rgb(30.195618%, 29.804993%, 33.332825%)" fill-opacity="1">
<use xlink:href="#glyph-6-0" x="15.980797" y="178.892293"/>
</g>
<g fill="rgb(30.195618%, 29.804993%, 33.332825%)" fill-opacity="1">
<use xlink:href="#glyph-6-1" x="15.980797" y="170.216005"/>
<use xlink:href="#glyph-6-2" x="15.980797" y="165.620309"/>
<use xlink:href="#glyph-6-3" x="15.980797" y="161.024613"/>
</g>
<g fill="rgb(30.195618%, 29.804993%, 33.332825%)" fill-opacity="1">
<use xlink:href="#glyph-6-4" x="15.980797" y="153.868598"/>
<use xlink:href="#glyph-6-1" x="15.980797" y="150.273599"/>
<use xlink:href="#glyph-6-5" x="15.980797" y="145.677902"/>
<use xlink:href="#glyph-6-3" x="15.980797" y="142.103472"/>
</g>
<g fill="rgb(30.195618%, 29.804993%, 33.332825%)" fill-opacity="1">
<use xlink:href="#glyph-6-6" x="15.980797" y="134.9564"/>
</g>
<g fill="rgb(30.195618%, 29.804993%, 33.332825%)" fill-opacity="1">
<use xlink:href="#glyph-7-0" x="15.980797" y="131.381969"/>
</g>
<g fill="rgb(30.195618%, 29.804993%, 33.332825%)" fill-opacity="1">
<use xlink:href="#glyph-6-7" x="15.980797" y="123.719793"/>
</g>
<g fill="rgb(30.195618%, 29.804993%, 33.332825%)" fill-opacity="1">
<use xlink:href="#glyph-6-3" x="15.980797" y="118.363066"/>
<use xlink:href="#glyph-6-4" x="15.980797" y="114.274425"/>
</g>
<g fill="rgb(30.195618%, 29.804993%, 33.332825%)" fill-opacity="1">
<use xlink:href="#glyph-6-8" x="15.980797" y="107.612052"/>
<use xlink:href="#glyph-6-9" x="15.980797" y="102.505723"/>
<use xlink:href="#glyph-6-10" x="15.980797" y="97.910026"/>
<use xlink:href="#glyph-6-4" x="15.980797" y="92.803697"/>
<use xlink:href="#glyph-6-11" x="15.980797" y="89.208698"/>
</g>
</svg>
